STARTFONT 2.1
FONT -FontForge-Bebas Neue-Book-R-Normal--26-250-75-75-P-95-ISO10646-1
SIZE 25 75 75
FONTBOUNDINGBOX 17 24 0 -3
COMMENT "Generated by fontforge, http://fontforge.sourceforge.net"
COMMENT "Copyright 2019 The Bebas Neue Project Authors (https://github.com/dharmatype/Bebas-Neue)"
STARTPROPERTIES 37
FOUNDRY "FontForge"
FAMILY_NAME "Bebas Neue"
WEIGHT_NAME "Book"
SLANT "R"
SETWIDTH_NAME "Normal"
ADD_STYLE_NAME ""
PIXEL_SIZE 26
POINT_SIZE 250
RESOLUTION_X 75
RESOLUTION_Y 75
SPACING "P"
AVERAGE_WIDTH 95
CHARSET_REGISTRY "ISO10646"
CHARSET_ENCODING "1"
FONTNAME_REGISTRY ""
CHARSET_COLLECTIONS "ISO10646-1"
FONT_NAME "BebasNeue-Regular"
FACE_NAME "Bebas Neue Regular"
COPYRIGHT "Copyright 2019 The Bebas Neue Project Authors (https://github.com/dharmatype/Bebas-Neue)"
FONT_VERSION "2.000"
FONT_ASCENT 21
FONT_DESCENT 5
UNDERLINE_POSITION -2
UNDERLINE_THICKNESS 3
CAP_HEIGHT 18
RAW_ASCENT 800
RAW_DESCENT 200
RELATIVE_WEIGHT 40
RELATIVE_SETWIDTH 50
SUPERSCRIPT_X 0
SUPERSCRIPT_Y 9
SUPERSCRIPT_SIZE 15
SUBSCRIPT_X 0
SUBSCRIPT_Y 1
SUBSCRIPT_SIZE 15
FIGURE_WIDTH 10
AVG_UPPERCASE_WIDTH 100
ENDPROPERTIES
CHARS 64
STARTCHAR exclam
ENCODING 33
SWIDTH 210 0
DWIDTH 5 0
BBX 3 19 1 0
BITMAP
E0
E0
E0
E0
E0
E0
E0
E0
E0
E0
E0
60
60
60
00
00
E0
E0
E0
ENDCHAR
STARTCHAR quotedbl
ENCODING 34
SWIDTH 336 0
DWIDTH 9 0
BBX 7 6 1 13
BITMAP
EE
EE
EC
EC
CC
4C
ENDCHAR
STARTCHAR numbersign
ENCODING 35
SWIDTH 412 0
DWIDTH 11 0
BBX 10 19 0 0
BITMAP
1980
1980
1980
1980
7FC0
7FC0
7FC0
3B80
3380
3300
3300
7FC0
7FC0
FF80
3300
3300
7300
7700
6700
ENDCHAR
STARTCHAR dollar
ENCODING 36
SWIDTH 400 0
DWIDTH 10 0
BBX 8 21 1 -1
BITMAP
18
18
7E
7F
E7
E3
E0
E0
70
78
3E
1E
0F
07
E3
E3
E7
FF
7E
18
18
ENDCHAR
STARTCHAR percent
ENCODING 37
SWIDTH 589 0
DWIDTH 15 0
BBX 13 19 1 0
BITMAP
7060
F860
C8C0
C8C0
C880
C980
C980
CB00
DB70
FBF8
76D8
06C8
04C8
0CC8
0CC8
08C8
18C8
18F8
3070
ENDCHAR
STARTCHAR ampersand
ENCODING 38
SWIDTH 417 0
DWIDTH 11 0
BBX 9 19 1 0
BITMAP
3F00
7F00
FF00
E000
E000
E380
E380
7F80
3F80
7F80
E380
E380
E380
E380
E380
E780
FF80
FF80
7B80
ENDCHAR
STARTCHAR quotesingle
ENCODING 39
SWIDTH 188 0
DWIDTH 5 0
BBX 3 6 1 13
BITMAP
E0
E0
E0
E0
C0
40
ENDCHAR
STARTCHAR parenleft
ENCODING 40
SWIDTH 276 0
DWIDTH 7 0
BBX 5 22 1 -1
BITMAP
18
78
78
E0
E0
E0
E0
E0
E0
E0
E0
E0
E0
E0
E0
E0
E0
E0
E0
78
78
38
ENDCHAR
STARTCHAR parenright
ENCODING 41
SWIDTH 276 0
DWIDTH 7 0
BBX 5 22 1 -1
BITMAP
C0
F0
F8
38
38
38
38
38
38
38
38
38
38
38
38
38
38
38
38
F8
F0
E0
ENDCHAR
STARTCHAR asterisk
ENCODING 42
SWIDTH 422 0
DWIDTH 11 0
BBX 11 10 0 9
BITMAP
0E00
0C00
4440
64C0
FFE0
0E00
0A00
1B00
3180
1100
ENDCHAR
STARTCHAR plus
ENCODING 43
SWIDTH 400 0
DWIDTH 10 0
BBX 9 9 1 5
BITMAP
1800
1800
1800
FF80
FF80
FF80
1800
1800
1800
ENDCHAR
STARTCHAR comma
ENCODING 44
SWIDTH 188 0
DWIDTH 5 0
BBX 3 6 1 -3
BITMAP
E0
E0
E0
40
40
C0
ENDCHAR
STARTCHAR hyphen
ENCODING 45
SWIDTH 270 0
DWIDTH 7 0
BBX 5 3 1 8
BITMAP
F8
F8
F8
ENDCHAR
STARTCHAR period
ENCODING 46
SWIDTH 188 0
DWIDTH 5 0
BBX 3 3 1 0
BITMAP
E0
E0
E0
ENDCHAR
STARTCHAR slash
ENCODING 47
SWIDTH 389 0
DWIDTH 10 0
BBX 10 19 0 0
BITMAP
01C0
0180
0380
0380
0300
0700
0600
0600
0E00
0C00
1C00
1C00
1800
3800
3000
3000
7000
6000
E000
ENDCHAR
STARTCHAR zero
ENCODING 48
SWIDTH 400 0
DWIDTH 10 0
BBX 9 19 1 0
BITMAP
3C00
7F00
FF00
E300
E380
E380
E380
E380
E380
E380
E380
E380
E380
E380
E380
E300
FF00
7F00
3C00
ENDCHAR
STARTCHAR one
ENCODING 49
SWIDTH 400 0
DWIDTH 10 0
BBX 6 19 2 0
BITMAP
0C
1C
FC
FC
FC
1C
1C
1C
1C
1C
1C
1C
1C
1C
1C
1C
1C
1C
1C
ENDCHAR
STARTCHAR two
ENCODING 50
SWIDTH 400 0
DWIDTH 10 0
BBX 9 19 1 0
BITMAP
3E00
7F00
FF00
E700
E380
E380
E700
0700
0F00
0E00
1C00
3800
7000
7000
E000
E000
FF00
FF00
FF00
ENDCHAR
STARTCHAR three
ENCODING 51
SWIDTH 400 0
DWIDTH 10 0
BBX 8 19 1 0
BITMAP
3C
7F
FF
E7
E7
07
07
1F
1C
1F
07
07
03
E3
E7
E7
FF
7F
3C
ENDCHAR
STARTCHAR four
ENCODING 52
SWIDTH 400 0
DWIDTH 10 0
BBX 10 19 0 0
BITMAP
0780
0780
0780
0F80
0F80
1F80
1B80
1B80
3B80
3380
7380
7380
6380
FFC0
FFC0
FFC0
0380
0380
0380
ENDCHAR
STARTCHAR five
ENCODING 53
SWIDTH 400 0
DWIDTH 10 0
BBX 9 19 1 0
BITMAP
FF00
FF00
FF00
E000
E000
E000
EE00
FF00
FF00
E700
E380
0380
0380
E380
E380
E700
FF00
7F00
3C00
ENDCHAR
STARTCHAR six
ENCODING 54
SWIDTH 400 0
DWIDTH 10 0
BBX 9 19 1 0
BITMAP
3E00
7F00
FF00
E300
E380
E000
E000
EE00
FF00
FF00
E380
E380
E380
E380
E380
E380
FF00
7F00
3E00
ENDCHAR
STARTCHAR seven
ENCODING 55
SWIDTH 400 0
DWIDTH 10 0
BBX 8 19 1 0
BITMAP
FF
FF
FF
07
07
07
06
0E
0E
0E
1C
1C
1C
18
38
38
38
70
70
ENDCHAR
STARTCHAR eight
ENCODING 56
SWIDTH 400 0
DWIDTH 10 0
BBX 9 19 1 0
BITMAP
3E00
7F00
FF00
E300
E380
E380
E300
FF00
7E00
7F00
E700
E380
E380
E380
E380
E380
FF00
7F00
3E00
ENDCHAR
STARTCHAR nine
ENCODING 57
SWIDTH 400 0
DWIDTH 10 0
BBX 8 19 1 0
BITMAP
3C
7F
FF
E7
E3
E3
E3
E3
E7
FF
FB
7B
03
03
E3
E7
FF
7F
3C
ENDCHAR
STARTCHAR colon
ENCODING 58
SWIDTH 188 0
DWIDTH 5 0
BBX 3 13 1 0
BITMAP
E0
E0
E0
00
00
00
00
00
00
00
E0
E0
E0
ENDCHAR
STARTCHAR semicolon
ENCODING 59
SWIDTH 188 0
DWIDTH 5 0
BBX 3 16 1 -3
BITMAP
E0
E0
E0
00
00
00
00
00
00
00
E0
E0
E0
40
C0
80
ENDCHAR
STARTCHAR less
ENCODING 60
SWIDTH 400 0
DWIDTH 10 0
BBX 8 9 1 5
BITMAP
01
03
1F
7C
E0
F0
7C
0F
03
ENDCHAR
STARTCHAR equal
ENCODING 61
SWIDTH 400 0
DWIDTH 10 0
BBX 8 7 1 6
BITMAP
FF
FF
FF
00
FF
FF
FF
ENDCHAR
STARTCHAR greater
ENCODING 62
SWIDTH 400 0
DWIDTH 10 0
BBX 8 9 1 5
BITMAP
80
E0
F8
1E
07
0F
3E
F8
C0
ENDCHAR
STARTCHAR question
ENCODING 63
SWIDTH 363 0
DWIDTH 9 0
BBX 9 19 0 0
BITMAP
3E00
7F00
7F80
6380
E380
E380
E380
0700
0700
0E00
0C00
1C00
1C00
1C00
0000
0000
1C00
1C00
1C00
ENDCHAR
STARTCHAR at
ENCODING 64
SWIDTH 696 0
DWIDTH 18 0
BBX 16 22 1 -2
BITMAP
01E0
07FC
1FFE
3C0E
3807
7003
63BB
E7F3
E7F3
C633
CE33
CE73
CE73
CE77
CFFE
CFFC
E738
7000
780C
3FF8
1FF8
07E0
ENDCHAR
STARTCHAR A
ENCODING 65
SWIDTH 401 0
DWIDTH 10 0
BBX 10 19 0 0
BITMAP
1E00
1E00
1F00
1F00
1F00
3F00
3B00
3B00
3300
3380
3380
7380
7380
7F80
7F80
7FC0
61C0
61C0
E1C0
ENDCHAR
STARTCHAR B
ENCODING 66
SWIDTH 404 0
DWIDTH 11 0
BBX 9 19 1 0
BITMAP
FE00
FF00
FF00
E380
E380
E380
E380
E700
FF00
FE00
FF00
E380
E380
E380
E380
E380
FF80
FF00
FE00
ENDCHAR
STARTCHAR C
ENCODING 67
SWIDTH 383 0
DWIDTH 10 0
BBX 8 19 1 0
BITMAP
3C
7E
FF
E7
E3
E3
E3
E0
E0
E0
E0
E0
E3
E3
E3
E7
FF
7E
3C
ENDCHAR
STARTCHAR D
ENCODING 68
SWIDTH 406 0
DWIDTH 11 0
BBX 9 19 1 0
BITMAP
FE00
FF00
FF00
E380
E380
E380
E380
E380
E380
E380
E380
E380
E380
E380
E380
E380
FF00
FF00
FE00
ENDCHAR
STARTCHAR E
ENCODING 69
SWIDTH 363 0
DWIDTH 9 0
BBX 8 19 1 0
BITMAP
FF
FF
FF
E0
E0
E0
E0
E0
FE
FE
FE
E0
E0
E0
E0
E0
FF
FF
FF
ENDCHAR
STARTCHAR F
ENCODING 70
SWIDTH 344 0
DWIDTH 9 0
BBX 8 19 1 0
BITMAP
FF
FF
FF
E0
E0
E0
E0
E0
FE
FE
FE
E0
E0
E0
E0
E0
E0
E0
E0
ENDCHAR
STARTCHAR G
ENCODING 71
SWIDTH 391 0
DWIDTH 10 0
BBX 8 19 1 0
BITMAP
3C
7F
FF
E3
E3
E3
E0
E0
EF
EF
EF
E3
E3
E3
E3
E3
FF
7F
3C
ENDCHAR
STARTCHAR H
ENCODING 72
SWIDTH 420 0
DWIDTH 11 0
BBX 9 19 1 0
BITMAP
E380
E380
E380
E380
E380
E380
E380
E380
FF80
FF80
FF80
E380
E380
E380
E380
E380
E380
E380
E380
ENDCHAR
STARTCHAR I
ENCODING 73
SWIDTH 192 0
DWIDTH 5 0
BBX 3 19 1 0
BITMAP
E0
E0
E0
E0
E0
E0
E0
E0
E0
E0
E0
E0
E0
E0
E0
E0
E0
E0
E0
ENDCHAR
STARTCHAR J
ENCODING 74
SWIDTH 265 0
DWIDTH 7 0
BBX 6 19 0 0
BITMAP
1C
1C
1C
1C
1C
1C
1C
1C
1C
1C
1C
1C
1C
1C
1C
1C
FC
F8
F0
ENDCHAR
STARTCHAR K
ENCODING 75
SWIDTH 414 0
DWIDTH 11 0
BBX 9 19 1 0
BITMAP
E380
E380
E700
E700
E600
EE00
EC00
FC00
FC00
FE00
FE00
FE00
E700
E700
E700
E700
E380
E380
E380
ENDCHAR
STARTCHAR L
ENCODING 76
SWIDTH 344 0
DWIDTH 9 0
BBX 8 19 1 0
BITMAP
E0
E0
E0
E0
E0
E0
E0
E0
E0
E0
E0
E0
E0
E0
E0
E0
FF
FF
FF
ENDCHAR
STARTCHAR M
ENCODING 77
SWIDTH 538 0
DWIDTH 14 0
BBX 12 19 1 0
BITMAP
F0F0
F0F0
F0F0
F9F0
F9F0
F9F0
F9F0
F9F0
F9F0
F9F0
FF70
EF70
EF70
EF70
EF70
EF70
EE70
EE70
E670
ENDCHAR
STARTCHAR N
ENCODING 78
SWIDTH 427 0
DWIDTH 11 0
BBX 9 19 1 0
BITMAP
F380
F380
F380
FB80
FB80
FB80
FB80
FB80
FF80
EF80
EF80
EF80
EF80
E780
E780
E780
E780
E380
E380
ENDCHAR
STARTCHAR O
ENCODING 79
SWIDTH 400 0
DWIDTH 10 0
BBX 9 19 1 0
BITMAP
3C00
7F00
FF00
E300
E380
E380
E380
E380
E380
E380
E380
E380
E380
E380
E380
E300
FF00
7F00
3C00
ENDCHAR
STARTCHAR P
ENCODING 80
SWIDTH 386 0
DWIDTH 10 0
BBX 9 19 1 0
BITMAP
FE00
FF00
FF00
E300
E380
E380
E380
E380
E700
FF00
FE00
F800
E000
E000
E000
E000
E000
E000
E000
ENDCHAR
STARTCHAR Q
ENCODING 81
SWIDTH 400 0
DWIDTH 10 0
BBX 9 21 1 -2
BITMAP
3C00
7F00
FF00
E300
E380
E380
E380
E380
E380
E380
E380
E380
E380
E380
E380
E300
FF00
7F00
3F80
0380
0080
ENDCHAR
STARTCHAR R
ENCODING 82
SWIDTH 403 0
DWIDTH 10 0
BBX 9 19 1 0
BITMAP
FE00
FF00
FF00
E700
E380
E380
E380
E700
FF00
FE00
FF00
E700
E380
E380
E380
E380
E380
E380
E380
ENDCHAR
STARTCHAR S
ENCODING 83
SWIDTH 372 0
DWIDTH 10 0
BBX 8 19 1 0
BITMAP
3C
FE
FF
E7
C7
E0
E0
F0
78
3C
1E
0F
07
C7
C7
C7
FF
FE
7C
ENDCHAR
STARTCHAR T
ENCODING 84
SWIDTH 364 0
DWIDTH 9 0
BBX 9 19 0 0
BITMAP
FF80
FF80
FF80
1C00
1C00
1C00
1C00
1C00
1C00
1C00
1C00
1C00
1C00
1C00
1C00
1C00
1C00
1C00
1C00
ENDCHAR
STARTCHAR U
ENCODING 85
SWIDTH 402 0
DWIDTH 10 0
BBX 8 19 1 0
BITMAP
E3
E3
E3
E3
E3
E3
E3
E3
E3
E3
E3
E3
E3
E3
E3
E3
FF
7F
3E
ENDCHAR
STARTCHAR V
ENCODING 86
SWIDTH 382 0
DWIDTH 10 0
BBX 10 19 0 0
BITMAP
E1C0
6180
7180
7180
7380
7380
7380
7380
3300
3300
3B00
3B00
3F00
3F00
3F00
1E00
1E00
1E00
1E00
ENDCHAR
STARTCHAR W
ENCODING 87
SWIDTH 557 0
DWIDTH 14 0
BBX 14 19 0 0
BITMAP
E38C
639C
639C
679C
779C
779C
77D8
76D8
76D8
76D8
76D8
36D8
36D8
36F8
3EF8
3CF8
3CF8
3C70
3C70
ENDCHAR
STARTCHAR X
ENCODING 88
SWIDTH 406 0
DWIDTH 11 0
BBX 10 19 0 0
BITMAP
F1C0
71C0
7180
3B80
3B80
3B00
1F00
1F00
1E00
0E00
1E00
1F00
3F00
3F00
3380
7380
7380
61C0
E1C0
ENDCHAR
STARTCHAR Y
ENCODING 89
SWIDTH 394 0
DWIDTH 10 0
BBX 10 19 0 0
BITMAP
E1C0
71C0
7180
7380
3B80
3B00
3F00
1F00
1E00
1E00
0E00
0E00
0E00
0E00
0E00
0E00
0E00
0E00
0E00
ENDCHAR
STARTCHAR Z
ENCODING 90
SWIDTH 362 0
DWIDTH 9 0
BBX 9 19 0 0
BITMAP
7F80
7F80
7F80
0780
0700
0700
0E00
0E00
0E00
1C00
1C00
3800
3800
3800
7000
7000
FF80
FF80
FF80
ENDCHAR
STARTCHAR bracketleft
ENCODING 91
SWIDTH 276 0
DWIDTH 7 0
BBX 4 22 2 -1
BITMAP
F0
F0
F0
C0
C0
C0
C0
C0
C0
C0
C0
C0
C0
C0
C0
C0
C0
C0
C0
F0
F0
F0
ENDCHAR
STARTCHAR backslash
ENCODING 92
SWIDTH 389 0
DWIDTH 10 0
BBX 10 19 0 0
BITMAP
E000
6000
7000
3000
3000
3800
1800
1C00
1C00
0C00
0E00
0600
0600
0700
0300
0380
0380
0180
01C0
ENDCHAR
STARTCHAR bracketright
ENCODING 93
SWIDTH 276 0
DWIDTH 7 0
BBX 5 22 1 -1
BITMAP
F8
F8
F8
38
38
38
38
38
38
38
38
38
38
38
38
38
38
38
38
F8
F8
F8
ENDCHAR
STARTCHAR asciicircum
ENCODING 94
SWIDTH 400 0
DWIDTH 10 0
BBX 10 7 0 12
BITMAP
0C00
1E00
1E00
3B00
3380
7180
E1C0
ENDCHAR
STARTCHAR underscore
ENCODING 95
SWIDTH 300 0
DWIDTH 8 0
BBX 8 3 0 -2
BITMAP
FF
FF
FF
ENDCHAR
STARTCHAR degree
ENCODING 176
SWIDTH 400 0
DWIDTH 10 0
BBX 7 7 2 12
BITMAP
38
FC
CC
C6
CC
FC
78
ENDCHAR
ENDFONT
