STARTFONT 2.1
FONT -FontForge-Lilita One-Book-R-Normal--21-200-75-75-P-112-ISO10646-1
SIZE 20 75 75
FONTBOUNDINGBOX 22 24 -2 -5
COMMENT "Generated by fontforge, http://fontforge.sourceforge.net"
COMMENT "Copyright (c) 2011 Juan Montoreano (juan@remolacha.biz), with Reserved Font Names "Lilita One""
STARTPROPERTIES 39
FOUNDRY "FontForge"
FAMILY_NAME "Lilita One"
WEIGHT_NAME "Book"
SLANT "R"
SETWIDTH_NAME "Normal"
ADD_STYLE_NAME ""
PIXEL_SIZE 21
POINT_SIZE 200
RESOLUTION_X 75
RESOLUTION_Y 75
SPACING "P"
AVERAGE_WIDTH 112
CHARSET_REGISTRY "ISO10646"
CHARSET_ENCODING "1"
FONTNAME_REGISTRY ""
CHARSET_COLLECTIONS "ISO10646-1"
FONT_NAME "LilitaOne"
FACE_NAME "Lilita One"
COPYRIGHT "Copyright (c) 2011 Juan Montoreano (juan@remolacha.biz), with Reserved Font Names "Lilita One""
FONT_VERSION "1.002"
FONT_ASCENT 17
FONT_DESCENT 4
UNDERLINE_POSITION -2
UNDERLINE_THICKNESS 2
X_HEIGHT 10
CAP_HEIGHT 14
RAW_ASCENT 800
RAW_DESCENT 200
NORM_SPACE 4
RELATIVE_WEIGHT 40
RELATIVE_SETWIDTH 50
SUPERSCRIPT_X 0
SUPERSCRIPT_Y 10
SUPERSCRIPT_SIZE 13
SUBSCRIPT_X 0
SUBSCRIPT_Y 2
SUBSCRIPT_SIZE 13
AVG_LOWERCASE_WIDTH 104
AVG_UPPERCASE_WIDTH 128
ENDPROPERTIES
CHARS 228
STARTCHAR space
ENCODING 32
SWIDTH 188 0
DWIDTH 4 0
BBX 1 1 0 0
BITMAP
00
ENDCHAR
STARTCHAR exclam
ENCODING 33
SWIDTH 287 0
DWIDTH 6 0
BBX 4 15 1 0
BITMAP
F0
F0
F0
F0
F0
F0
F0
F0
E0
E0
E0
00
F0
F0
F0
ENDCHAR
STARTCHAR quotedbl
ENCODING 34
SWIDTH 460 0
DWIDTH 10 0
BBX 7 6 1 9
BITMAP
44
EE
6E
6E
6E
6E
ENDCHAR
STARTCHAR numbersign
ENCODING 35
SWIDTH 833 0
DWIDTH 18 0
BBX 14 14 2 0
BITMAP
0738
0738
0630
7FFC
7FFC
7C7C
1C60
18E0
FFF8
FFF8
39C0
3180
7380
7380
ENDCHAR
STARTCHAR dollar
ENCODING 36
SWIDTH 531 0
DWIDTH 11 0
BBX 10 19 1 -2
BITMAP
0800
0800
1F00
7F80
FF80
FF80
E800
E800
FF00
FF80
7F80
09C0
89C0
EBC0
FF80
FF80
7F00
0800
0800
ENDCHAR
STARTCHAR uni0025
ENCODING 37
SWIDTH 798 0
DWIDTH 17 0
BBX 15 15 1 0
BITMAP
7818
FC38
FC78
CC70
CCE0
FDC0
FFC0
7BB8
077C
0E7E
1EE6
1CE6
387E
707C
703C
ENDCHAR
STARTCHAR ampersand
ENCODING 38
SWIDTH 667 0
DWIDTH 14 0
BBX 12 15 1 0
BITMAP
1F00
3F80
7FC0
FBC0
F380
7000
7FF0
7FF0
7FF0
F1C0
F1C0
F3C0
FFC0
7F80
3F00
ENDCHAR
STARTCHAR quotesingle
ENCODING 39
SWIDTH 301 0
DWIDTH 6 0
BBX 4 6 1 9
BITMAP
60
F0
70
60
60
60
ENDCHAR
STARTCHAR parenleft
ENCODING 40
SWIDTH 430 0
DWIDTH 9 0
BBX 5 17 2 -2
BITMAP
30
38
78
70
F0
F0
E0
E0
E0
E0
E0
F0
70
70
78
38
20
ENDCHAR
STARTCHAR parenright
ENCODING 41
SWIDTH 422 0
DWIDTH 9 0
BBX 5 17 2 -2
BITMAP
20
F0
70
70
78
38
38
38
38
38
38
38
78
70
70
F0
20
ENDCHAR
STARTCHAR asterisk
ENCODING 42
SWIDTH 557 0
DWIDTH 12 0
BBX 8 9 2 6
BITMAP
18
18
18
FF
FF
3C
3C
66
24
ENDCHAR
STARTCHAR plus
ENCODING 43
SWIDTH 602 0
DWIDTH 13 0
BBX 11 11 1 2
BITMAP
0C00
0C00
0C00
0C00
FFC0
FFE0
FFC0
0C00
0C00
0C00
0C00
ENDCHAR
STARTCHAR comma
ENCODING 44
SWIDTH 305 0
DWIDTH 6 0
BBX 5 5 1 -2
BITMAP
78
78
78
70
F0
ENDCHAR
STARTCHAR hyphen
ENCODING 45
SWIDTH 525 0
DWIDTH 11 0
BBX 9 2 1 4
BITMAP
FF80
FF80
ENDCHAR
STARTCHAR period
ENCODING 46
SWIDTH 229 0
DWIDTH 5 0
BBX 4 4 0 0
BITMAP
F0
F0
F0
F0
ENDCHAR
STARTCHAR slash
ENCODING 47
SWIDTH 573 0
DWIDTH 12 0
BBX 12 19 0 -2
BITMAP
0020
0070
0070
00E0
00E0
01C0
0180
0380
0700
0700
0E00
0C00
1C00
1800
3800
7000
7000
E000
C000
ENDCHAR
STARTCHAR zero
ENCODING 48
SWIDTH 639 0
DWIDTH 13 0
BBX 12 15 1 0
BITMAP
0F00
3FC0
7FC0
FFE0
F9E0
F1F0
F0F0
F0F0
F0F0
F1F0
F9E0
FFE0
7FE0
3FC0
1F80
ENDCHAR
STARTCHAR one
ENCODING 49
SWIDTH 406 0
DWIDTH 9 0
BBX 7 15 0 0
BITMAP
7E
FE
FE
FE
1E
1E
1E
1E
1E
1E
1E
1E
1E
1E
1E
ENDCHAR
STARTCHAR two
ENCODING 50
SWIDTH 525 0
DWIDTH 11 0
BBX 9 15 1 0
BITMAP
3E00
FF00
FF80
FF80
4780
0780
0F80
0F00
1F00
3E00
7C00
FF80
FF80
FF80
FF80
ENDCHAR
STARTCHAR three
ENCODING 51
SWIDTH 528 0
DWIDTH 11 0
BBX 10 15 0 0
BITMAP
3F00
7F80
7FC0
7FC0
47C0
0780
1F00
1F00
1FC0
03C0
03C0
7FC0
7FC0
FF80
7F00
ENDCHAR
STARTCHAR four
ENCODING 52
SWIDTH 598 0
DWIDTH 13 0
BBX 12 15 0 0
BITMAP
07C0
0FC0
0FC0
1FC0
1FC0
3FC0
3BC0
7BC0
F3C0
FFF0
7FF0
7FF0
03C0
03C0
03C0
ENDCHAR
STARTCHAR five
ENCODING 53
SWIDTH 524 0
DWIDTH 11 0
BBX 9 15 1 0
BITMAP
7F00
7F00
7F00
7F00
7000
7000
7E00
7F00
1F80
0780
0780
CF80
FF00
FF00
FE00
ENDCHAR
STARTCHAR six
ENCODING 54
SWIDTH 575 0
DWIDTH 12 0
BBX 10 15 1 0
BITMAP
0F80
3F80
7F80
7F00
F000
F000
FF00
FF80
FFC0
F3C0
F1C0
F3C0
7FC0
7F80
3F00
ENDCHAR
STARTCHAR seven
ENCODING 55
SWIDTH 500 0
DWIDTH 11 0
BBX 10 15 0 0
BITMAP
7F80
7FC0
FFC0
7FC0
07C0
0780
0780
0F80
0F00
0F00
1F00
1F00
1E00
3E00
3E00
ENDCHAR
STARTCHAR eight
ENCODING 56
SWIDTH 570 0
DWIDTH 12 0
BBX 10 15 1 0
BITMAP
1E00
7F80
7F80
F7C0
F3C0
F380
7F80
7F80
FFC0
F3C0
F3C0
F3C0
FFC0
7F80
3F00
ENDCHAR
STARTCHAR nine
ENCODING 57
SWIDTH 565 0
DWIDTH 12 0
BBX 10 15 1 0
BITMAP
1E00
7F80
FF80
FFC0
F3C0
F3C0
F3C0
FFC0
7FC0
3FC0
03C0
4780
7F80
7F00
7E00
ENDCHAR
STARTCHAR colon
ENCODING 58
SWIDTH 277 0
DWIDTH 6 0
BBX 4 11 1 0
BITMAP
F0
F0
F0
F0
00
00
00
F0
F0
F0
F0
ENDCHAR
STARTCHAR semicolon
ENCODING 59
SWIDTH 277 0
DWIDTH 6 0
BBX 5 13 0 -2
BITMAP
78
78
78
78
00
00
00
00
38
38
78
70
F0
ENDCHAR
STARTCHAR less
ENCODING 60
SWIDTH 484 0
DWIDTH 10 0
BBX 7 12 1 1
BITMAP
06
0E
1C
38
70
E0
E0
70
38
1C
0E
06
ENDCHAR
STARTCHAR equal
ENCODING 61
SWIDTH 580 0
DWIDTH 12 0
BBX 10 8 1 3
BITMAP
7F80
FFC0
7FC0
0000
0000
7FC0
FFC0
7FC0
ENDCHAR
STARTCHAR greater
ENCODING 62
SWIDTH 450 0
DWIDTH 9 0
BBX 7 12 1 1
BITMAP
E0
F0
78
38
1C
0E
0E
1C
38
70
E0
60
ENDCHAR
STARTCHAR question
ENCODING 63
SWIDTH 584 0
DWIDTH 12 0
BBX 10 15 1 0
BITMAP
3F00
7F80
FF80
7FC0
07C0
0780
0F80
1F00
1E00
3C00
3C00
0000
3C00
3C00
3C00
ENDCHAR
STARTCHAR at
ENCODING 64
SWIDTH 867 0
DWIDTH 18 0
BBX 16 16 1 -2
BITMAP
07F0
1FF8
3C1C
708E
63E6
E7E6
CEE7
CEE6
CEE6
CFFE
CFFC
E738
7000
7E20
1FF0
07E0
ENDCHAR
STARTCHAR A
ENCODING 65
SWIDTH 655 0
DWIDTH 14 0
BBX 13 15 0 0
BITMAP
0FC0
0FC0
0FC0
1FE0
1FE0
1DE0
3DE0
3DF0
3CF0
3FF0
7FF0
7FF8
78F8
7878
F078
ENDCHAR
STARTCHAR B
ENCODING 66
SWIDTH 594 0
DWIDTH 12 0
BBX 11 15 1 0
BITMAP
FE00
FF80
FFC0
FFC0
F3C0
F3C0
FFC0
FF80
FFC0
F3E0
F3E0
F3E0
FFE0
FFC0
FF80
ENDCHAR
STARTCHAR C
ENCODING 67
SWIDTH 561 0
DWIDTH 12 0
BBX 10 15 1 0
BITMAP
0F80
3FC0
7FC0
7F80
F880
F000
F000
F000
F000
F000
F800
FFC0
7FC0
3FC0
1F80
ENDCHAR
STARTCHAR D
ENCODING 68
SWIDTH 616 0
DWIDTH 13 0
BBX 11 15 1 0
BITMAP
FE00
FF80
FFC0
FFE0
F3E0
F1E0
F1E0
F1E0
F1E0
F1E0
F3E0
FFE0
FFC0
FF80
FF00
ENDCHAR
STARTCHAR E
ENCODING 69
SWIDTH 493 0
DWIDTH 10 0
BBX 9 15 1 0
BITMAP
FF00
FF00
FF00
FF00
F000
F000
FE00
FE00
FE00
F000
F000
FF00
FF80
FF80
FF00
ENDCHAR
STARTCHAR F
ENCODING 70
SWIDTH 472 0
DWIDTH 10 0
BBX 8 15 1 0
BITMAP
FF
FF
FF
FF
F0
F0
FE
FE
FE
FE
F0
F0
F0
F0
F0
ENDCHAR
STARTCHAR G
ENCODING 71
SWIDTH 621 0
DWIDTH 13 0
BBX 11 15 1 0
BITMAP
0FC0
3FE0
7FE0
7FC0
F840
F000
F000
F0E0
F0E0
F0E0
F8E0
FFE0
7FE0
3FE0
1FE0
ENDCHAR
STARTCHAR H
ENCODING 72
SWIDTH 644 0
DWIDTH 14 0
BBX 11 15 1 0
BITMAP
F0E0
F1E0
F1E0
F1E0
F1E0
F1E0
FFE0
FFE0
FFE0
FFE0
F1E0
F1E0
F1E0
F1E0
F1E0
ENDCHAR
STARTCHAR I
ENCODING 73
SWIDTH 429 0
DWIDTH 9 0
BBX 9 15 0 0
BITMAP
7F00
FF80
FF80
7F00
3E00
3E00
3E00
3E00
3E00
3E00
3E00
7F00
FF80
FF80
7F00
ENDCHAR
STARTCHAR J
ENCODING 74
SWIDTH 462 0
DWIDTH 10 0
BBX 9 15 0 0
BITMAP
1F80
1F80
1F80
1F80
0780
0780
0780
0780
0780
0780
0F80
7F80
FF80
FF00
7E00
ENDCHAR
STARTCHAR K
ENCODING 75
SWIDTH 620 0
DWIDTH 13 0
BBX 12 15 1 0
BITMAP
F1E0
F3E0
F3C0
F7C0
F780
FF80
FF00
FF00
FF80
FF80
F7C0
F3E0
F3E0
F1F0
F1C0
ENDCHAR
STARTCHAR L
ENCODING 76
SWIDTH 435 0
DWIDTH 9 0
BBX 8 15 1 0
BITMAP
F0
F0
F0
F0
F0
F0
F0
F0
F0
F0
F0
FF
FF
FF
FF
ENDCHAR
STARTCHAR M
ENCODING 77
SWIDTH 907 0
DWIDTH 19 0
BBX 17 15 1 0
BITMAP
7C1F00
7C3F00
FE3F00
FE3F80
FE7F80
FF7F80
F77F80
F7F780
F7F780
F7E780
F3E780
F3E780
F3E780
F1C780
F1C780
ENDCHAR
STARTCHAR N
ENCODING 78
SWIDTH 648 0
DWIDTH 14 0
BBX 12 15 1 0
BITMAP
F0E0
F8F0
F8F0
FCF0
FCF0
FEF0
FEF0
FFF0
FFF0
F7F0
F7F0
F3F0
F3F0
F1F0
F1F0
ENDCHAR
STARTCHAR O
ENCODING 79
SWIDTH 696 0
DWIDTH 15 0
BBX 13 15 1 0
BITMAP
0F80
3FE0
7FF0
FFF0
F9F8
F0F8
F078
F078
F078
F0F8
F8F8
FFF0
7FF0
3FE0
1FC0
ENDCHAR
STARTCHAR P
ENCODING 80
SWIDTH 570 0
DWIDTH 12 0
BBX 10 15 1 0
BITMAP
FE00
FF80
FFC0
FFC0
F3C0
F3C0
F3C0
FFC0
FF80
FF00
FE00
F000
F000
F000
F000
ENDCHAR
STARTCHAR Q
ENCODING 81
SWIDTH 706 0
DWIDTH 15 0
BBX 13 19 1 -4
BITMAP
0F80
3FE0
7FF0
FFF0
F9F8
F0F8
F078
F078
F078
F0F8
F8F8
FFF0
7FF0
3FE0
1FC0
07C0
03E0
01E0
0080
ENDCHAR
STARTCHAR R
ENCODING 82
SWIDTH 590 0
DWIDTH 12 0
BBX 11 15 1 0
BITMAP
FE00
FF80
FFC0
FFC0
F3C0
F3C0
F3C0
FFC0
FF80
FF80
F7C0
F7C0
F3E0
F3E0
F1C0
ENDCHAR
STARTCHAR S
ENCODING 83
SWIDTH 531 0
DWIDTH 11 0
BBX 9 15 1 0
BITMAP
1F00
7F80
FF80
FF80
F100
F800
FE00
7F80
3F80
0F80
C780
FF80
FF80
FF00
7E00
ENDCHAR
STARTCHAR T
ENCODING 84
SWIDTH 502 0
DWIDTH 11 0
BBX 10 15 0 0
BITMAP
FFC0
FFC0
FFC0
FFC0
1E00
1E00
1E00
1E00
1E00
1E00
1E00
1E00
1E00
1E00
1E00
ENDCHAR
STARTCHAR U
ENCODING 85
SWIDTH 628 0
DWIDTH 13 0
BBX 11 15 1 0
BITMAP
F1E0
F1E0
F1E0
F1E0
F1E0
F1E0
F1E0
F1E0
F1E0
F1E0
F1E0
FFE0
FFE0
7FC0
3F80
ENDCHAR
STARTCHAR V
ENCODING 86
SWIDTH 661 0
DWIDTH 14 0
BBX 14 15 0 0
BITMAP
F87C
F8F8
78F8
7CF8
7CF8
3CF0
3CF0
3DF0
3FF0
1FE0
1FE0
1FE0
1FC0
0FC0
0FC0
ENDCHAR
STARTCHAR W
ENCODING 87
SWIDTH 953 0
DWIDTH 20 0
BBX 20 15 0 0
BITMAP
F8F1F0
78F1E0
78F1E0
78F1E0
79FBE0
7DFBE0
7DFBC0
3DFBC0
3FFBC0
3FFFC0
3FBFC0
3F9FC0
3F9F80
3F9F80
1F1F80
ENDCHAR
STARTCHAR X
ENCODING 88
SWIDTH 683 0
DWIDTH 14 0
BBX 14 15 0 0
BITMAP
F87C
7C78
7CF8
3EF0
3FF0
1FE0
1FE0
0FC0
1FE0
1FE0
3FF0
3FF0
7CF8
7CF8
F87C
ENDCHAR
STARTCHAR Y
ENCODING 89
SWIDTH 615 0
DWIDTH 13 0
BBX 13 15 0 0
BITMAP
F078
F8F8
7CF0
7DF0
3DE0
3FE0
1FC0
1FC0
0F80
0F80
0F80
0F80
0F80
0F80
0F80
ENDCHAR
STARTCHAR Z
ENCODING 90
SWIDTH 563 0
DWIDTH 12 0
BBX 10 15 1 0
BITMAP
FF80
FFC0
FFC0
FFC0
07C0
0F80
1F00
1F00
3E00
7C00
7C00
FFC0
FFC0
FFC0
7FC0
ENDCHAR
STARTCHAR bracketleft
ENCODING 91
SWIDTH 385 0
DWIDTH 8 0
BBX 5 19 2 -2
BITMAP
F8
F8
F8
C0
C0
C0
C0
C0
C0
C0
C0
C0
C0
C0
C0
C0
C0
F8
F8
ENDCHAR
STARTCHAR backslash
ENCODING 92
SWIDTH 587 0
DWIDTH 12 0
BBX 12 18 0 -2
BITMAP
E000
7000
7000
3800
3800
1C00
0C00
0E00
0700
0700
0380
0380
01C0
00C0
00E0
0070
0070
0030
ENDCHAR
STARTCHAR bracketright
ENCODING 93
SWIDTH 385 0
DWIDTH 8 0
BBX 5 19 1 -2
BITMAP
F8
F8
F8
18
18
18
18
18
18
18
18
18
18
18
18
18
18
F8
F8
ENDCHAR
STARTCHAR asciicircum
ENCODING 94
SWIDTH 687 0
DWIDTH 14 0
BBX 12 7 1 7
BITMAP
0600
0F80
3FC0
79E0
F0F0
E030
4010
ENDCHAR
STARTCHAR underscore
ENCODING 95
SWIDTH 636 0
DWIDTH 13 0
BBX 11 2 1 -3
BITMAP
FFE0
FFE0
ENDCHAR
STARTCHAR grave
ENCODING 96
SWIDTH 350 0
DWIDTH 7 0
BBX 5 4 1 11
BITMAP
40
F0
78
18
ENDCHAR
STARTCHAR a
ENCODING 97
SWIDTH 517 0
DWIDTH 11 0
BBX 11 11 0 0
BITMAP
1E00
3F00
3F80
0380
3F80
7F80
F380
F3C0
FFE0
7FE0
3DC0
ENDCHAR
STARTCHAR b
ENCODING 98
SWIDTH 520 0
DWIDTH 11 0
BBX 9 15 1 0
BITMAP
F000
F000
F000
F000
FE00
FF00
FF80
FF80
F780
F380
F380
F780
FF80
FF00
7E00
ENDCHAR
STARTCHAR c
ENCODING 99
SWIDTH 424 0
DWIDTH 9 0
BBX 8 11 1 0
BITMAP
1C
7F
FF
FE
F2
E0
E0
F2
FE
7E
3E
ENDCHAR
STARTCHAR d
ENCODING 100
SWIDTH 565 0
DWIDTH 12 0
BBX 10 15 1 0
BITMAP
0780
0780
0780
0780
1F80
7F80
FF80
FF80
F780
E780
E780
F7C0
FFC0
7FC0
3DC0
ENDCHAR
STARTCHAR e
ENCODING 101
SWIDTH 486 0
DWIDTH 10 0
BBX 9 11 1 0
BITMAP
1C00
7F00
FF00
FF80
E780
FF80
FF00
E000
FF00
7F00
3F00
ENDCHAR
STARTCHAR f
ENCODING 102
SWIDTH 375 0
DWIDTH 8 0
BBX 8 15 0 0
BITMAP
1F
3F
3F
38
7E
FE
FE
38
38
38
38
38
38
38
38
ENDCHAR
STARTCHAR g
ENCODING 103
SWIDTH 516 0
DWIDTH 11 0
BBX 9 15 1 -4
BITMAP
1E00
7F80
FF80
FF80
F780
E780
E780
F780
FF80
7F80
3F80
0780
7F80
7F00
7E00
ENDCHAR
STARTCHAR h
ENCODING 104
SWIDTH 501 0
DWIDTH 11 0
BBX 9 15 1 0
BITMAP
E000
E000
E000
E000
EE00
FF00
FF00
FF80
E780
E780
E780
E780
E780
E780
E780
ENDCHAR
STARTCHAR i
ENCODING 105
SWIDTH 273 0
DWIDTH 6 0
BBX 4 15 1 0
BITMAP
F0
F0
F0
00
F0
F0
F0
F0
F0
F0
F0
F0
F0
F0
F0
ENDCHAR
STARTCHAR j
ENCODING 106
SWIDTH 271 0
DWIDTH 6 0
BBX 7 19 -2 -4
BITMAP
1E
1E
1E
00
1C
1E
1E
1E
1E
1E
1E
1E
1E
1E
1E
1E
FE
FC
F8
ENDCHAR
STARTCHAR k
ENCODING 107
SWIDTH 531 0
DWIDTH 11 0
BBX 10 15 1 0
BITMAP
F000
F000
F000
F000
F3C0
F780
F700
FF00
FE00
FE00
FF00
FF00
F780
F780
F3C0
ENDCHAR
STARTCHAR l
ENCODING 108
SWIDTH 272 0
DWIDTH 6 0
BBX 4 15 1 0
BITMAP
F0
F0
F0
F0
F0
F0
F0
F0
F0
F0
F0
F0
F0
F0
F0
ENDCHAR
STARTCHAR m
ENCODING 109
SWIDTH 788 0
DWIDTH 17 0
BBX 16 11 0 0
BITMAP
631C
7FFE
FFFE
7FFF
39CF
39CF
39CF
39CF
39CF
39CF
39CF
ENDCHAR
STARTCHAR n
ENCODING 110
SWIDTH 551 0
DWIDTH 12 0
BBX 11 11 0 0
BITMAP
6380
7FC0
FFE0
7FE0
39E0
39E0
39E0
39E0
39E0
39E0
39E0
ENDCHAR
STARTCHAR o
ENCODING 111
SWIDTH 513 0
DWIDTH 11 0
BBX 9 11 1 0
BITMAP
1C00
7F00
FF00
FF80
E780
E380
E380
F780
FF80
7F00
3E00
ENDCHAR
STARTCHAR p
ENCODING 112
SWIDTH 555 0
DWIDTH 12 0
BBX 11 15 0 -4
BITMAP
6300
7FC0
FFE0
7FE0
3DE0
3DE0
3DE0
3DE0
3FE0
3FC0
3F80
3800
3800
3800
3800
ENDCHAR
STARTCHAR q
ENCODING 113
SWIDTH 511 0
DWIDTH 11 0
BBX 9 15 1 -4
BITMAP
1E00
7F80
FF80
FF80
E780
E780
E780
F780
FF80
7F80
3F80
0780
0780
0780
0780
ENDCHAR
STARTCHAR r
ENCODING 114
SWIDTH 396 0
DWIDTH 8 0
BBX 8 11 0 0
BITMAP
63
7F
FF
7F
3C
3C
3C
3C
3C
3C
3C
ENDCHAR
STARTCHAR s
ENCODING 115
SWIDTH 450 0
DWIDTH 9 0
BBX 8 11 1 0
BITMAP
3C
7F
FE
F2
F8
7E
3F
9F
FF
FE
FC
ENDCHAR
STARTCHAR t
ENCODING 116
SWIDTH 368 0
DWIDTH 8 0
BBX 8 13 0 0
BITMAP
38
38
7E
FF
FF
3C
3C
3C
3C
3C
3C
3C
3C
ENDCHAR
STARTCHAR u
ENCODING 117
SWIDTH 544 0
DWIDTH 11 0
BBX 10 11 1 0
BITMAP
E380
E780
E780
E780
E780
E780
E780
F780
FFC0
FFC0
7DC0
ENDCHAR
STARTCHAR v
ENCODING 118
SWIDTH 521 0
DWIDTH 11 0
BBX 11 11 0 0
BITMAP
F1E0
F1E0
7BC0
7BC0
7BC0
7B80
3B80
3F80
3F80
3F00
1F00
ENDCHAR
STARTCHAR w
ENCODING 119
SWIDTH 752 0
DWIDTH 16 0
BBX 16 11 0 0
BITMAP
F18F
F3CE
73CE
73CE
73DE
7FFE
7FFC
3FFC
3EFC
3E7C
3E7C
ENDCHAR
STARTCHAR x
ENCODING 120
SWIDTH 557 0
DWIDTH 12 0
BBX 11 11 0 0
BITMAP
F1E0
79E0
7BC0
3FC0
3F80
1F80
1F80
3FC0
3BC0
79E0
F9E0
ENDCHAR
STARTCHAR y
ENCODING 121
SWIDTH 537 0
DWIDTH 11 0
BBX 11 15 0 -4
BITMAP
F1E0
71E0
79C0
7BC0
3BC0
3F80
3F80
1F80
1F00
0F00
0F00
1E00
1E00
3E00
3C00
ENDCHAR
STARTCHAR z
ENCODING 122
SWIDTH 454 0
DWIDTH 10 0
BBX 8 11 1 0
BITMAP
FE
FF
FF
FE
1C
3C
78
F1
FF
FF
FF
ENDCHAR
STARTCHAR braceleft
ENCODING 123
SWIDTH 362 0
DWIDTH 8 0
BBX 5 23 1 -5
BITMAP
10
38
70
70
70
70
70
70
70
70
E0
E0
E0
70
70
70
70
70
70
70
70
38
10
ENDCHAR
STARTCHAR bar
ENCODING 124
SWIDTH 628 0
DWIDTH 13 0
BBX 3 24 5 -5
BITMAP
E0
E0
E0
E0
E0
E0
E0
E0
E0
E0
E0
E0
E0
E0
E0
E0
E0
E0
E0
E0
E0
E0
E0
40
ENDCHAR
STARTCHAR braceright
ENCODING 125
SWIDTH 362 0
DWIDTH 8 0
BBX 5 23 2 -5
BITMAP
C0
E0
60
60
60
60
60
60
60
70
78
38
78
70
60
60
60
60
60
60
E0
E0
40
ENDCHAR
STARTCHAR asciitilde
ENCODING 126
SWIDTH 459 0
DWIDTH 10 0
BBX 9 3 0 5
BITMAP
3900
FF80
6F00
ENDCHAR
STARTCHAR exclamdown
ENCODING 161
SWIDTH 287 0
DWIDTH 6 0
BBX 4 15 1 -4
BITMAP
F0
F0
F0
F0
00
E0
E0
E0
F0
F0
F0
F0
F0
F0
F0
ENDCHAR
STARTCHAR cent
ENCODING 162
SWIDTH 528 0
DWIDTH 11 0
BBX 9 15 1 0
BITMAP
0400
0400
3F80
7F80
FF00
F500
E400
E400
E400
F500
FF80
7F80
3F80
0E00
0400
ENDCHAR
STARTCHAR sterling
ENCODING 163
SWIDTH 490 0
DWIDTH 10 0
BBX 9 15 1 0
BITMAP
3F00
7F80
FF80
FF00
F000
F000
7000
FF00
FE00
3800
7800
7F00
FF80
FF80
FF80
ENDCHAR
STARTCHAR currency
ENCODING 164
SWIDTH 728 0
DWIDTH 15 0
BBX 11 11 2 2
BITMAP
8040
CE60
7FC0
3B80
60C0
60C0
60C0
71C0
3F80
7FC0
C060
ENDCHAR
STARTCHAR yen
ENCODING 165
SWIDTH 659 0
DWIDTH 14 0
BBX 14 15 0 0
BITMAP
F87C
78F8
7CF0
3FF0
1FE0
1FC0
3FF0
7FF0
0F80
7FF0
3FF0
0F80
0F80
0F80
0F80
ENDCHAR
STARTCHAR brokenbar
ENCODING 166
SWIDTH 415 0
DWIDTH 9 0
BBX 3 21 3 -5
BITMAP
40
E0
E0
E0
E0
E0
E0
E0
E0
00
00
40
E0
E0
E0
E0
E0
E0
E0
E0
40
ENDCHAR
STARTCHAR section
ENCODING 167
SWIDTH 617 0
DWIDTH 13 0
BBX 11 19 1 -4
BITMAP
1F80
7FC0
7FC0
FF80
F800
FC00
7F00
7FC0
7FC0
F1E0
F9C0
7FC0
7F80
1FC0
87E0
E3E0
FFC0
FFC0
7F80
ENDCHAR
STARTCHAR dieresis
ENCODING 168
SWIDTH 457 0
DWIDTH 10 0
BBX 8 4 1 11
BITMAP
E7
E7
E7
C6
ENDCHAR
STARTCHAR copyright
ENCODING 169
SWIDTH 693 0
DWIDTH 15 0
BBX 11 11 2 4
BITMAP
3F00
60C0
CE40
9E20
9820
9820
9E20
DF60
4040
3180
1F00
ENDCHAR
STARTCHAR ordfeminine
ENCODING 170
SWIDTH 506 0
DWIDTH 11 0
BBX 7 8 2 7
BITMAP
70
7C
1C
FC
DC
DE
FE
64
ENDCHAR
STARTCHAR guillemotleft
ENCODING 171
SWIDTH 773 0
DWIDTH 16 0
BBX 12 10 2 0
BITMAP
1820
3C70
38E0
71C0
E380
E1C0
70E0
38F0
1C70
0820
ENDCHAR
STARTCHAR logicalnot
ENCODING 172
SWIDTH 613 0
DWIDTH 13 0
BBX 10 6 1 1
BITMAP
FFC0
FFC0
01C0
01C0
01C0
01C0
ENDCHAR
STARTCHAR uni00AD
ENCODING 173
SWIDTH 454 0
DWIDTH 10 0
BBX 7 2 1 4
BITMAP
FE
FE
ENDCHAR
STARTCHAR registered
ENCODING 174
SWIDTH 701 0
DWIDTH 15 0
BBX 11 11 2 4
BITMAP
3F00
60C0
DE40
9F20
9B20
9E20
9B20
DBE0
4040
3180
1F00
ENDCHAR
STARTCHAR degree
ENCODING 176
SWIDTH 386 0
DWIDTH 8 0
BBX 6 8 1 7
BITMAP
30
7C
CC
84
84
CC
7C
30
ENDCHAR
STARTCHAR plusminus
ENCODING 177
SWIDTH 595 0
DWIDTH 13 0
BBX 10 12 1 2
BITMAP
0400
0C00
0C00
0C00
7FC0
FFC0
0C00
0C00
0C00
0000
FFC0
7FC0
ENDCHAR
STARTCHAR twosuperior
ENCODING 178
SWIDTH 352 0
DWIDTH 7 0
BBX 5 7 1 8
BITMAP
70
F8
B8
38
30
F8
F8
ENDCHAR
STARTCHAR threesuperior
ENCODING 179
SWIDTH 305 0
DWIDTH 6 0
BBX 5 7 1 8
BITMAP
60
F0
B0
70
30
B8
F0
ENDCHAR
STARTCHAR acute
ENCODING 180
SWIDTH 357 0
DWIDTH 8 0
BBX 4 4 2 11
BITMAP
30
F0
F0
80
ENDCHAR
STARTCHAR mu
ENCODING 181
SWIDTH 572 0
DWIDTH 12 0
BBX 10 15 1 -4
BITMAP
E380
E780
E780
E780
E780
E780
E780
F780
FFC0
FFC0
FDC0
E000
E000
E000
E000
ENDCHAR
STARTCHAR paragraph
ENCODING 182
SWIDTH 780 0
DWIDTH 16 0
BBX 14 15 1 0
BITMAP
1FFC
7FFC
FFFC
FFF8
FCF0
FCF0
FCF0
FCF0
7CF0
1CF0
1CF0
1CF0
1CF0
1CF0
1CF0
ENDCHAR
STARTCHAR periodcentered
ENCODING 183
SWIDTH 309 0
DWIDTH 6 0
BBX 4 5 1 4
BITMAP
20
F0
F0
F0
F0
ENDCHAR
STARTCHAR cedilla
ENCODING 184
SWIDTH 402 0
DWIDTH 8 0
BBX 4 4 2 -4
BITMAP
30
F0
F0
60
ENDCHAR
STARTCHAR onesuperior
ENCODING 185
SWIDTH 283 0
DWIDTH 6 0
BBX 4 8 1 7
BITMAP
F0
F0
F0
70
70
70
70
30
ENDCHAR
STARTCHAR ordmasculine
ENCODING 186
SWIDTH 366 0
DWIDTH 8 0
BBX 6 8 1 7
BITMAP
30
7C
FC
CC
CC
FC
7C
30
ENDCHAR
STARTCHAR guillemotright
ENCODING 187
SWIDTH 732 0
DWIDTH 15 0
BBX 12 10 2 0
BITMAP
C180
E380
71C0
38E0
1C70
38E0
71C0
E3C0
C380
4100
ENDCHAR
STARTCHAR onequarter
ENCODING 188
SWIDTH 839 0
DWIDTH 18 0
BBX 14 15 2 0
BITMAP
F020
F070
F060
70C0
71C0
7180
7380
0300
0638
0E78
0C78
1CD8
18FC
3018
3018
ENDCHAR
STARTCHAR onehalf
ENCODING 189
SWIDTH 848 0
DWIDTH 18 0
BBX 14 15 2 0
BITMAP
F020
F070
F060
70C0
71C0
7180
7380
0300
067C
0E7C
0C0C
1C1C
1838
307C
307C
ENDCHAR
STARTCHAR threequarters
ENCODING 190
SWIDTH 868 0
DWIDTH 18 0
BBX 15 15 1 0
BITMAP
3010
7838
5830
3060
18E0
78C0
F9C0
0180
031C
073C
063C
0E6C
0C7E
180C
180C
ENDCHAR
STARTCHAR questiondown
ENCODING 191
SWIDTH 584 0
DWIDTH 12 0
BBX 10 15 1 -4
BITMAP
0F00
0F00
0F00
0F00
0000
0F00
0F00
1E00
3C00
7800
7800
F880
FF80
7FC0
3F80
ENDCHAR
STARTCHAR Agrave
ENCODING 192
SWIDTH 655 0
DWIDTH 14 0
BBX 13 19 0 0
BITMAP
0600
0780
0380
0080
0FC0
0FC0
0FC0
1FE0
1FE0
1DE0
3DE0
3DF0
3CF0
3FF0
7FF0
7FF8
78F8
7878
F078
ENDCHAR
STARTCHAR Aacute
ENCODING 193
SWIDTH 655 0
DWIDTH 14 0
BBX 13 19 0 0
BITMAP
0180
0780
0700
0400
0FC0
0FC0
0FC0
1FE0
1FE0
1DE0
3DE0
3DF0
3CF0
3FF0
7FF0
7FF8
78F8
7878
F078
ENDCHAR
STARTCHAR Acircumflex
ENCODING 194
SWIDTH 655 0
DWIDTH 14 0
BBX 13 19 0 0
BITMAP
0300
0FC0
1DC0
0840
0FC0
0FC0
0FC0
1FE0
1FE0
1DE0
3DE0
3DF0
3CF0
3FF0
7FF0
7FF8
78F8
7878
F078
ENDCHAR
STARTCHAR Atilde
ENCODING 195
SWIDTH 655 0
DWIDTH 14 0
BBX 13 19 0 0
BITMAP
0E40
1FE0
1BC0
0000
0FC0
0FC0
0FC0
1FE0
1FE0
1DE0
3DE0
3DF0
3CF0
3FF0
7FF0
7FF8
78F8
7878
F078
ENDCHAR
STARTCHAR Adieresis
ENCODING 196
SWIDTH 655 0
DWIDTH 14 0
BBX 13 19 0 0
BITMAP
1CE0
1CE0
1CE0
0000
0FC0
0FC0
0FC0
1FE0
1FE0
1DE0
3DE0
3DF0
3CF0
3FF0
7FF0
7FF8
78F8
7878
F078
ENDCHAR
STARTCHAR Aring
ENCODING 197
SWIDTH 655 0
DWIDTH 14 0
BBX 13 19 0 0
BITMAP
0300
0480
0480
0300
0FC0
0FC0
0FC0
1FE0
1FE0
1DE0
3DE0
3DF0
3CF0
3FF0
7FF0
7FF8
78F8
7878
F078
ENDCHAR
STARTCHAR AE
ENCODING 198
SWIDTH 917 0
DWIDTH 19 0
BBX 17 15 1 0
BITMAP
03FF80
03FF80
03FF80
07FF80
077800
0F7800
0F7F00
1E7F00
1E7F00
3FF800
3FF800
7FFF80
787F80
F07F80
F07F80
ENDCHAR
STARTCHAR Ccedilla
ENCODING 199
SWIDTH 546 0
DWIDTH 11 0
BBX 11 19 0 -4
BITMAP
0780
1FE0
3FC0
7FC0
7C40
7800
F800
F800
F800
F800
7C00
7FC0
3FE0
3FE0
0FC0
0200
0300
0F00
0E00
ENDCHAR
STARTCHAR Egrave
ENCODING 200
SWIDTH 488 0
DWIDTH 10 0
BBX 8 19 1 0
BITMAP
30
3C
1C
04
FF
FF
FF
FF
F0
F0
FE
FE
FE
F0
F0
FF
FF
FF
FF
ENDCHAR
STARTCHAR Eacute
ENCODING 201
SWIDTH 488 0
DWIDTH 10 0
BBX 8 19 1 0
BITMAP
0C
3C
38
20
FF
FF
FF
FF
F0
F0
FE
FE
FE
F0
F0
FF
FF
FF
FF
ENDCHAR
STARTCHAR Ecircumflex
ENCODING 202
SWIDTH 488 0
DWIDTH 10 0
BBX 8 19 1 0
BITMAP
18
7E
77
42
FF
FF
FF
FF
F0
F0
FE
FE
FE
F0
F0
FF
FF
FF
FF
ENDCHAR
STARTCHAR Edieresis
ENCODING 203
SWIDTH 488 0
DWIDTH 10 0
BBX 8 19 1 0
BITMAP
E7
E7
E7
00
FF
FF
FF
FF
F0
F0
FE
FE
FE
F0
F0
FF
FF
FF
FF
ENDCHAR
STARTCHAR Igrave
ENCODING 204
SWIDTH 432 0
DWIDTH 9 0
BBX 9 19 0 0
BITMAP
1000
3C00
1E00
0400
7F00
FF80
FF80
7F00
3E00
3E00
3E00
3E00
3E00
3E00
3E00
7F00
FF80
FF80
7F80
ENDCHAR
STARTCHAR Iacute
ENCODING 205
SWIDTH 432 0
DWIDTH 9 0
BBX 9 19 0 0
BITMAP
0400
1E00
3C00
1000
7F00
FF80
FF80
7F00
3E00
3E00
3E00
3E00
3E00
3E00
3E00
7F00
FF80
FF80
7F80
ENDCHAR
STARTCHAR Icircumflex
ENCODING 206
SWIDTH 432 0
DWIDTH 9 0
BBX 9 19 0 0
BITMAP
1C00
3F00
7700
4100
7F00
FF80
FF80
7F00
3E00
3E00
3E00
3E00
3E00
3E00
3E00
7F00
FF80
FF80
7F80
ENDCHAR
STARTCHAR Idieresis
ENCODING 207
SWIDTH 432 0
DWIDTH 9 0
BBX 9 19 0 0
BITMAP
7700
7700
7700
0000
7F00
FF80
FF80
7F00
3E00
3E00
3E00
3E00
3E00
3E00
3E00
7F00
FF80
FF80
7F80
ENDCHAR
STARTCHAR Eth
ENCODING 208
SWIDTH 620 0
DWIDTH 13 0
BBX 13 15 0 0
BITMAP
7F00
7FC0
7FE0
7FF0
79F0
78F0
FCF0
FEF8
FCF0
78F0
79F0
7FF0
7FE0
7FC0
7F80
ENDCHAR
STARTCHAR Ntilde
ENCODING 209
SWIDTH 657 0
DWIDTH 14 0
BBX 11 19 1 0
BITMAP
1C80
3FC0
3780
0000
F0E0
F9E0
F9E0
FDE0
FDE0
FFE0
FFE0
FFE0
FFE0
F7E0
F7E0
F3E0
F3E0
F1E0
F1E0
ENDCHAR
STARTCHAR Ograve
ENCODING 210
SWIDTH 696 0
DWIDTH 15 0
BBX 13 19 1 0
BITMAP
0C00
0F00
0780
0100
0F80
3FE0
7FF0
FFF0
F9F8
F0F8
F078
F078
F078
F0F8
F8F8
FFF0
7FF0
3FE0
1FC0
ENDCHAR
STARTCHAR Oacute
ENCODING 211
SWIDTH 696 0
DWIDTH 15 0
BBX 13 19 1 0
BITMAP
0300
0780
0F00
0800
0F80
3FE0
7FF0
FFF0
F9F8
F0F8
F078
F078
F078
F0F8
F8F8
FFF0
7FF0
3FE0
1FC0
ENDCHAR
STARTCHAR Ocircumflex
ENCODING 212
SWIDTH 696 0
DWIDTH 15 0
BBX 13 19 1 0
BITMAP
0600
1F80
1DC0
1080
0F80
3FE0
7FF0
FFF0
F9F8
F0F8
F078
F078
F078
F0F8
F8F8
FFF0
7FF0
3FE0
1FC0
ENDCHAR
STARTCHAR Otilde
ENCODING 213
SWIDTH 696 0
DWIDTH 15 0
BBX 13 19 1 0
BITMAP
1E40
3FC0
13C0
0000
0F80
3FE0
7FF0
FFF0
F9F8
F0F8
F078
F078
F078
F0F8
F8F8
FFF0
7FF0
3FE0
1FC0
ENDCHAR
STARTCHAR Odieresis
ENCODING 214
SWIDTH 696 0
DWIDTH 15 0
BBX 13 19 1 0
BITMAP
39C0
39C0
39C0
0000
0F80
3FE0
7FF0
FFF0
F9F8
F0F8
F078
F078
F078
F0F8
F8F8
FFF0
7FF0
3FE0
1FC0
ENDCHAR
STARTCHAR multiply
ENCODING 215
SWIDTH 610 0
DWIDTH 13 0
BBX 9 9 2 3
BITMAP
0100
E300
F780
7E00
3C00
3E00
7F00
E780
4300
ENDCHAR
STARTCHAR Oslash
ENCODING 216
SWIDTH 696 0
DWIDTH 15 0
BBX 13 19 1 -2
BITMAP
0040
0070
0FE0
3FE0
7FF0
F9F0
F3F8
F3F8
E778
E778
EE78
EE78
FC78
F8F0
7FF0
3FE0
7FC0
6000
2000
ENDCHAR
STARTCHAR Ugrave
ENCODING 217
SWIDTH 628 0
DWIDTH 13 0
BBX 11 19 1 0
BITMAP
0800
1E00
0F00
0200
F1E0
F1E0
F1E0
F1E0
F1E0
F1E0
F1E0
F1E0
F1E0
F1E0
F9E0
FFE0
FFE0
7FC0
3F80
ENDCHAR
STARTCHAR Uacute
ENCODING 218
SWIDTH 628 0
DWIDTH 13 0
BBX 11 19 1 0
BITMAP
0300
0F00
1E00
0800
F1E0
F1E0
F1E0
F1E0
F1E0
F1E0
F1E0
F1E0
F1E0
F1E0
F9E0
FFE0
FFE0
7FC0
3F80
ENDCHAR
STARTCHAR Ucircumflex
ENCODING 219
SWIDTH 628 0
DWIDTH 13 0
BBX 11 19 1 0
BITMAP
0E00
1F80
3B80
2080
F1E0
F1E0
F1E0
F1E0
F1E0
F1E0
F1E0
F1E0
F1E0
F1E0
F9E0
FFE0
FFE0
7FC0
3F80
ENDCHAR
STARTCHAR Udieresis
ENCODING 220
SWIDTH 628 0
DWIDTH 13 0
BBX 11 19 1 0
BITMAP
3980
3980
3980
0000
F1E0
F1E0
F1E0
F1E0
F1E0
F1E0
F1E0
F1E0
F1E0
F1E0
F9E0
FFE0
FFE0
7FC0
3F80
ENDCHAR
STARTCHAR Yacute
ENCODING 221
SWIDTH 615 0
DWIDTH 13 0
BBX 13 19 0 0
BITMAP
0100
0780
0F00
0400
F878
F8F8
7CF0
7DF0
3DE0
3FE0
1FC0
1FC0
0F80
0F80
0F80
0F80
0F80
0F80
0F80
ENDCHAR
STARTCHAR Thorn
ENCODING 222
SWIDTH 595 0
DWIDTH 13 0
BBX 10 15 1 0
BITMAP
F000
F000
FF00
FF80
FFC0
FFC0
F3C0
F3C0
F3C0
FFC0
FF80
FF00
F000
F000
F000
ENDCHAR
STARTCHAR germandbls
ENCODING 223
SWIDTH 672 0
DWIDTH 14 0
BBX 11 18 2 -3
BITMAP
3E00
7F80
FF80
FFC0
E3C0
E380
E780
EF80
EFC0
E1E0
E1E0
EBE0
EFE0
EFC0
E7C0
E000
E000
E000
ENDCHAR
STARTCHAR agrave
ENCODING 224
SWIDTH 517 0
DWIDTH 11 0
BBX 11 15 0 0
BITMAP
0800
1E00
0F00
0200
1E00
3F00
3F80
0380
3F80
7F80
F380
F3C0
FFE0
7FE0
3DC0
ENDCHAR
STARTCHAR aacute
ENCODING 225
SWIDTH 517 0
DWIDTH 11 0
BBX 11 15 0 0
BITMAP
0200
0E00
1E00
1800
1E00
3F00
3F80
0380
3F80
7F80
F380
F3C0
FFE0
7FE0
3DC0
ENDCHAR
STARTCHAR acircumflex
ENCODING 226
SWIDTH 517 0
DWIDTH 11 0
BBX 11 15 0 0
BITMAP
0C00
3F00
3F80
2100
1E00
3F00
3F80
0380
3F80
7F80
F380
F3C0
FFE0
7FE0
3DC0
ENDCHAR
STARTCHAR atilde
ENCODING 227
SWIDTH 517 0
DWIDTH 11 0
BBX 11 15 0 0
BITMAP
1880
7F80
7F80
0000
1E00
3F00
3F80
0380
3F80
7F80
F380
F3C0
FFE0
7FE0
3DC0
ENDCHAR
STARTCHAR adieresis
ENCODING 228
SWIDTH 517 0
DWIDTH 11 0
BBX 11 15 0 0
BITMAP
7380
7380
7380
3380
1E00
3F00
3F80
0380
3F80
7F80
F380
F3C0
FFE0
7FE0
3DC0
ENDCHAR
STARTCHAR aring
ENCODING 229
SWIDTH 517 0
DWIDTH 11 0
BBX 11 15 0 0
BITMAP
0C00
1200
1200
0C00
1E00
3F00
3F80
0380
3F80
7F80
F380
F3C0
FFE0
7FE0
3DC0
ENDCHAR
STARTCHAR ae
ENCODING 230
SWIDTH 685 0
DWIDTH 14 0
BBX 14 10 0 0
BITMAP
3FF8
3FFC
27FC
1F9C
7FFC
FFF8
F780
FF98
7FF8
3DF8
ENDCHAR
STARTCHAR ccedilla
ENCODING 231
SWIDTH 424 0
DWIDTH 9 0
BBX 8 15 1 -4
BITMAP
1C
7F
FF
FE
F2
E0
E0
F2
FE
7E
3E
18
38
38
30
ENDCHAR
STARTCHAR egrave
ENCODING 232
SWIDTH 486 0
DWIDTH 10 0
BBX 9 15 1 0
BITMAP
3000
3C00
3E00
0400
1C00
7F00
FF00
FF80
E780
FF80
FF00
E000
FF00
7F00
3F00
ENDCHAR
STARTCHAR eacute
ENCODING 233
SWIDTH 486 0
DWIDTH 10 0
BBX 9 15 1 0
BITMAP
0400
1E00
3C00
3000
1C00
7F00
FF00
FF80
E780
FF80
FF00
E000
FF00
7F00
3F00
ENDCHAR
STARTCHAR ecircumflex
ENCODING 234
SWIDTH 486 0
DWIDTH 10 0
BBX 9 15 1 0
BITMAP
1800
3E00
7F00
4200
1C00
7F00
FF00
FF80
E780
FF80
FF00
E000
FF00
7F00
3F00
ENDCHAR
STARTCHAR edieresis
ENCODING 235
SWIDTH 486 0
DWIDTH 10 0
BBX 9 15 1 0
BITMAP
E700
E700
E700
6700
1C00
7F00
FF00
FF80
E780
FF80
FF00
E000
FF00
7F00
3F00
ENDCHAR
STARTCHAR igrave
ENCODING 236
SWIDTH 267 0
DWIDTH 6 0
BBX 5 15 0 0
BITMAP
40
F0
78
18
00
78
78
78
78
78
78
78
78
78
78
ENDCHAR
STARTCHAR iacute
ENCODING 237
SWIDTH 267 0
DWIDTH 6 0
BBX 5 15 0 0
BITMAP
18
78
F8
40
00
78
78
78
78
78
78
78
78
78
78
ENDCHAR
STARTCHAR icircumflex
ENCODING 238
SWIDTH 267 0
DWIDTH 6 0
BBX 7 15 -1 0
BITMAP
18
7C
FE
42
00
3C
3C
3C
3C
3C
3C
3C
3C
3C
3C
ENDCHAR
STARTCHAR idieresis
ENCODING 239
SWIDTH 267 0
DWIDTH 6 0
BBX 8 15 -1 0
BITMAP
E7
E7
E7
C6
00
3C
3C
3C
3C
3C
3C
3C
3C
3C
3C
ENDCHAR
STARTCHAR eth
ENCODING 240
SWIDTH 574 0
DWIDTH 12 0
BBX 11 15 1 0
BITMAP
0C00
1E00
1FC0
1FE0
7F80
0780
03C0
7FC0
FFC0
F3C0
E3C0
F7C0
FF80
7F80
3E00
ENDCHAR
STARTCHAR ntilde
ENCODING 241
SWIDTH 551 0
DWIDTH 12 0
BBX 11 15 0 0
BITMAP
1C80
3FC0
3F80
0000
6380
7FC0
FFE0
7FE0
39E0
39E0
39E0
39E0
39E0
39E0
39E0
ENDCHAR
STARTCHAR ograve
ENCODING 242
SWIDTH 513 0
DWIDTH 11 0
BBX 9 15 1 0
BITMAP
3000
3C00
3E00
0400
1C00
7F00
FF00
FF80
E780
E380
E380
F780
FF80
7F00
3E00
ENDCHAR
STARTCHAR oacute
ENCODING 243
SWIDTH 513 0
DWIDTH 11 0
BBX 9 15 1 0
BITMAP
0400
1E00
3C00
3000
1C00
7F00
FF00
FF80
E780
E380
E380
F780
FF80
7F00
3E00
ENDCHAR
STARTCHAR ocircumflex
ENCODING 244
SWIDTH 513 0
DWIDTH 11 0
BBX 9 15 1 0
BITMAP
1800
3E00
7F00
4200
1C00
7F00
FF00
FF80
E780
E380
E380
F780
FF80
7F00
3E00
ENDCHAR
STARTCHAR otilde
ENCODING 245
SWIDTH 513 0
DWIDTH 11 0
BBX 9 15 1 0
BITMAP
3100
FF00
FF00
0000
1C00
7F00
FF00
FF80
E780
E380
E380
F780
FF80
7F00
3E00
ENDCHAR
STARTCHAR odieresis
ENCODING 246
SWIDTH 513 0
DWIDTH 11 0
BBX 9 15 1 0
BITMAP
E700
E700
E700
6300
1C00
7F00
FF00
FF80
E780
E380
E380
F780
FF80
7F00
3E00
ENDCHAR
STARTCHAR divide
ENCODING 247
SWIDTH 611 0
DWIDTH 13 0
BBX 11 11 1 2
BITMAP
0E00
0E00
0E00
0000
FFC0
FFE0
FFE0
0000
0E00
0E00
0E00
ENDCHAR
STARTCHAR oslash
ENCODING 248
SWIDTH 513 0
DWIDTH 11 0
BBX 9 13 1 -1
BITMAP
0100
1F80
7F00
FF00
EF80
CF80
DD80
D980
FB80
F380
7F00
FE00
4000
ENDCHAR
STARTCHAR ugrave
ENCODING 249
SWIDTH 544 0
DWIDTH 11 0
BBX 10 15 1 0
BITMAP
1000
1C00
1E00
0600
E380
E780
E780
E780
E780
E780
E780
F780
FFC0
FFC0
7DC0
ENDCHAR
STARTCHAR uacute
ENCODING 250
SWIDTH 544 0
DWIDTH 11 0
BBX 10 15 1 0
BITMAP
0600
0E00
1E00
1000
E380
E780
E780
E780
E780
E780
E780
F780
FFC0
FFC0
7DC0
ENDCHAR
STARTCHAR ucircumflex
ENCODING 251
SWIDTH 544 0
DWIDTH 11 0
BBX 10 15 1 0
BITMAP
1800
3E00
7F00
6300
E380
E780
E780
E780
E780
E780
E780
F780
FFC0
FFC0
7DC0
ENDCHAR
STARTCHAR udieresis
ENCODING 252
SWIDTH 544 0
DWIDTH 11 0
BBX 10 15 1 0
BITMAP
6700
6700
6700
6300
E380
E780
E780
E780
E780
E780
E780
F780
FFC0
FFC0
7DC0
ENDCHAR
STARTCHAR yacute
ENCODING 253
SWIDTH 537 0
DWIDTH 11 0
BBX 11 19 0 -4
BITMAP
0200
0F00
1E00
0800
F1E0
71E0
7BC0
7BC0
3BC0
3F80
3F80
1F80
1F00
0F00
0F00
1E00
1E00
3E00
3C00
ENDCHAR
STARTCHAR thorn
ENCODING 254
SWIDTH 628 0
DWIDTH 13 0
BBX 9 19 2 -4
BITMAP
F000
F000
F000
F000
FC00
FF00
FF80
FF80
F780
F780
F780
F780
FF80
FF00
FE00
F000
F000
F000
F000
ENDCHAR
STARTCHAR ydieresis
ENCODING 255
SWIDTH 524 0
DWIDTH 11 0
BBX 11 19 0 -4
BITMAP
3B80
3B80
3B80
3180
F1E0
71E0
7BC0
7BC0
3BC0
3F80
3F80
1F80
1F00
0F00
0F00
1E00
1E00
3E00
3C00
ENDCHAR
STARTCHAR dotlessi
ENCODING 305
SWIDTH 249 0
DWIDTH 5 0
BBX 4 10 1 0
BITMAP
F0
F0
F0
F0
F0
F0
F0
F0
F0
F0
ENDCHAR
STARTCHAR Lslash
ENCODING 321
SWIDTH 469 0
DWIDTH 10 0
BBX 9 15 0 0
BITMAP
7C00
7C00
7C00
7C00
7C00
7C00
7F00
FF00
FF00
7C00
7C00
7F80
7F80
7F80
7F80
ENDCHAR
STARTCHAR lslash
ENCODING 322
SWIDTH 381 0
DWIDTH 8 0
BBX 8 15 0 0
BITMAP
3C
3C
3C
3C
3C
3C
3C
3C
FF
FF
3C
3C
3C
3C
3C
ENDCHAR
STARTCHAR OE
ENCODING 338
SWIDTH 877 0
DWIDTH 18 0
BBX 16 15 1 0
BITMAP
0FFF
3FFF
7FFF
FFFF
F8F0
F0F0
F07E
F07E
F07E
F0F0
F8F0
FFFF
7FFF
3FFF
1FFF
ENDCHAR
STARTCHAR oe
ENCODING 339
SWIDTH 774 0
DWIDTH 16 0
BBX 15 11 1 0
BITMAP
1C70
7FFC
FFFE
FFDE
E79E
E3FE
E3FC
F780
FFFC
7FFC
3EFC
ENDCHAR
STARTCHAR Scaron
ENCODING 352
SWIDTH 536 0
DWIDTH 11 0
BBX 9 19 1 0
BITMAP
6300
7F00
3E00
0800
1F00
7F80
FF80
FF80
F100
F800
FE00
7F80
3F80
0F80
C780
FF80
FF80
FF00
7E00
ENDCHAR
STARTCHAR scaron
ENCODING 353
SWIDTH 450 0
DWIDTH 9 0
BBX 8 15 1 0
BITMAP
42
EE
7E
18
3C
7F
FE
F2
F8
7E
3F
9F
FF
FE
FC
ENDCHAR
STARTCHAR Ydieresis
ENCODING 376
SWIDTH 615 0
DWIDTH 13 0
BBX 13 19 0 0
BITMAP
1DC0
1DC0
1DC0
0000
F878
F8F8
7CF0
7DF0
3DE0
3FE0
1FC0
1FC0
0F80
0F80
0F80
0F80
0F80
0F80
0F80
ENDCHAR
STARTCHAR Zcaron
ENCODING 381
SWIDTH 563 0
DWIDTH 12 0
BBX 10 19 1 0
BITMAP
2100
7F00
3E00
0C00
FF80
FFC0
FFC0
FFC0
07C0
0F80
1F00
1F00
3E00
7C00
7C00
FFC0
FFC0
FFC0
7FC0
ENDCHAR
STARTCHAR zcaron
ENCODING 382
SWIDTH 454 0
DWIDTH 10 0
BBX 8 15 1 0
BITMAP
42
EE
7E
18
FE
FF
FF
FE
1C
3C
78
F1
FF
FF
FF
ENDCHAR
STARTCHAR florin
ENCODING 402
SWIDTH 422 0
DWIDTH 9 0
BBX 12 19 -2 -4
BITMAP
01E0
03F0
07E0
0700
1FC0
1FC0
1FC0
0F00
0F00
0F00
0F00
0F00
0E00
0E00
0E00
0E00
7E00
FC00
F800
ENDCHAR
STARTCHAR circumflex
ENCODING 710
SWIDTH 480 0
DWIDTH 10 0
BBX 7 4 2 11
BITMAP
30
FC
FE
84
ENDCHAR
STARTCHAR caron
ENCODING 711
SWIDTH 483 0
DWIDTH 10 0
BBX 7 4 2 11
BITMAP
84
FE
FC
30
ENDCHAR
STARTCHAR ring
ENCODING 730
SWIDTH 396 0
DWIDTH 8 0
BBX 4 4 2 11
BITMAP
60
90
90
60
ENDCHAR
STARTCHAR tilde
ENCODING 732
SWIDTH 440 0
DWIDTH 9 0
BBX 9 3 0 12
BITMAP
3100
FF80
7F00
ENDCHAR
STARTCHAR endash
ENCODING 8211
SWIDTH 469 0
DWIDTH 10 0
BBX 8 2 1 4
BITMAP
FF
FF
ENDCHAR
STARTCHAR emdash
ENCODING 8212
SWIDTH 789 0
DWIDTH 17 0
BBX 14 2 1 4
BITMAP
FFFC
7FFC
ENDCHAR
STARTCHAR quoteleft
ENCODING 8216
SWIDTH 341 0
DWIDTH 7 0
BBX 4 6 2 9
BITMAP
C0
C0
E0
E0
E0
F0
ENDCHAR
STARTCHAR quoteright
ENCODING 8217
SWIDTH 314 0
DWIDTH 7 0
BBX 4 6 1 9
BITMAP
70
F0
F0
E0
E0
60
ENDCHAR
STARTCHAR quotesinglbase
ENCODING 8218
SWIDTH 368 0
DWIDTH 8 0
BBX 5 5 1 -2
BITMAP
78
78
78
70
F0
ENDCHAR
STARTCHAR quotedblleft
ENCODING 8220
SWIDTH 564 0
DWIDTH 12 0
BBX 8 6 2 9
BITMAP
C6
C6
E7
E7
E7
F7
ENDCHAR
STARTCHAR quotedblright
ENCODING 8221
SWIDTH 530 0
DWIDTH 11 0
BBX 9 6 1 9
BITMAP
7780
F780
F700
E700
E700
6600
ENDCHAR
STARTCHAR quotedblbase
ENCODING 8222
SWIDTH 651 0
DWIDTH 14 0
BBX 11 5 1 -2
BITMAP
79E0
79E0
79C0
73C0
F380
ENDCHAR
STARTCHAR dagger
ENCODING 8224
SWIDTH 475 0
DWIDTH 10 0
BBX 8 17 1 -2
BITMAP
18
18
18
18
FF
FF
18
18
18
18
18
18
18
18
18
18
18
ENDCHAR
STARTCHAR daggerdbl
ENCODING 8225
SWIDTH 480 0
DWIDTH 10 0
BBX 8 17 1 -2
BITMAP
18
18
18
FF
FF
FF
18
18
18
18
FF
FF
FF
18
18
18
18
ENDCHAR
STARTCHAR bullet
ENCODING 8226
SWIDTH 357 0
DWIDTH 8 0
BBX 4 4 2 4
BITMAP
40
E0
F0
E0
ENDCHAR
STARTCHAR ellipsis
ENCODING 8230
SWIDTH 909 0
DWIDTH 19 0
BBX 17 4 1 0
BITMAP
F1E780
F1E780
F1E780
F1E780
ENDCHAR
STARTCHAR perthousand
ENCODING 8240
SWIDTH 1006 0
DWIDTH 21 0
BBX 19 15 1 0
BITMAP
781800
FC3800
FC7800
CC7000
CCE000
FDC000
FFC000
7BBB80
077FC0
0E7FE0
1EE660
1CE660
387FE0
707FE0
703FC0
ENDCHAR
STARTCHAR guilsinglleft
ENCODING 8249
SWIDTH 497 0
DWIDTH 10 0
BBX 6 10 2 0
BITMAP
18
3C
38
70
E0
E0
70
38
1C
08
ENDCHAR
STARTCHAR guilsinglright
ENCODING 8250
SWIDTH 443 0
DWIDTH 9 0
BBX 6 10 2 0
BITMAP
C0
E0
70
38
1C
38
70
E0
C0
40
ENDCHAR
STARTCHAR fraction
ENCODING 8260
SWIDTH 313 0
DWIDTH 7 0
BBX 9 13 -2 1
BITMAP
0180
0380
0300
0700
0E00
0E00
1C00
1C00
3800
3000
7000
E000
6000
ENDCHAR
STARTCHAR Euro
ENCODING 8364
SWIDTH 574 0
DWIDTH 12 0
BBX 10 15 1 0
BITMAP
0F80
1FC0
3FC0
7FC0
7880
F000
FF00
F000
FF00
F000
7840
7FC0
7FC0
3FC0
0FC0
ENDCHAR
STARTCHAR trademark
ENCODING 8482
SWIDTH 803 0
DWIDTH 17 0
BBX 15 8 1 7
BITMAP
FB9C
FBDC
FBDC
33FC
33FC
337E
336E
336E
ENDCHAR
STARTCHAR minus
ENCODING 8722
SWIDTH 603 0
DWIDTH 13 0
BBX 10 2 1 4
BITMAP
FFC0
7FC0
ENDCHAR
STARTCHAR fi
ENCODING 64257
SWIDTH 648 0
DWIDTH 14 0
BBX 12 15 0 0
BITMAP
1EF0
3EF0
3EF0
3800
7FE0
FFF0
FFF0
38F0
38F0
38F0
38F0
38F0
38F0
38F0
38F0
ENDCHAR
STARTCHAR fl
ENCODING 64258
SWIDTH 647 0
DWIDTH 14 0
BBX 12 15 0 0
BITMAP
1EF0
3EF0
3EF0
38F0
7FF0
FFF0
FFF0
38F0
38F0
38F0
38F0
38F0
38F0
38F0
38F0
ENDCHAR
STARTCHAR .notdef
ENCODING -1
SWIDTH 199 0
DWIDTH 4 0
BBX 1 1 0 0
BITMAP
00
ENDCHAR
STARTCHAR .null
ENCODING -1
SWIDTH 0 0
DWIDTH 0 0
BBX 1 1 0 0
BITMAP
00
ENDCHAR
STARTCHAR nonmarkingreturn
ENCODING -1
SWIDTH 333 0
DWIDTH 7 0
BBX 1 1 0 0
BITMAP
00
ENDCHAR
ENDFONT
