STARTFONT 2.1
FONT -FontForge-PT Sans Narrow-Bold-R-Normal-Sans-25-240-75-75--105--
SIZE 24 75 75
FONTBOUNDINGBOX 21 26 0 -6
COMMENT "Generated by fontforge, http://fontforge.sourceforge.net"
COMMENT "Copyright (c) 2009 ParaType Ltd. All rights reserved."
STARTPROPERTIES 40
FOUNDRY "FontForge"
FAMILY_NAME "PT Sans Narrow"
WEIGHT_NAME "Bold"
SLANT "R"
SETWIDTH_NAME "Normal"
ADD_STYLE_NAME "Sans"
PIXEL_SIZE 25
POINT_SIZE 240
RESOLUTION_X 75
RESOLUTION_Y 75
SPACING ""
AVERAGE_WIDTH 0
CHARSET_REGISTRY ""
CHARSET_ENCODING ""
FONTNAME_REGISTRY ""
CHARSET_COLLECTIONS "ISO10646-1"
FONT_NAME "PTSans-NarrowBold"
FACE_NAME "PT Sans Narrow Bold"
COPYRIGHT "Copyright (c) 2009 ParaType Ltd. All rights reserved."
FONT_VERSION "2.003W OFL"
FONT_ASCENT 20
FONT_DESCENT 5
UNDERLINE_POSITION -2
UNDERLINE_THICKNESS 2
X_HEIGHT 12
CAP_HEIGHT 17
RAW_ASCENT 800
RAW_DESCENT 200
NORM_SPACE 5
RELATIVE_WEIGHT 70
RELATIVE_SETWIDTH 30
SUPERSCRIPT_X 0
SUPERSCRIPT_Y 8
SUPERSCRIPT_SIZE 15
SUBSCRIPT_X 0
SUBSCRIPT_Y 1
SUBSCRIPT_SIZE 15
FIGURE_WIDTH 12
AVG_LOWERCASE_WIDTH 100
AVG_UPPERCASE_WIDTH 122
ENDPROPERTIES
CHARS 96
STARTCHAR space
ENCODING 32
SWIDTH 205 0
DWIDTH 5 0
BBX 1 1 0 0
BITMAP
00
ENDCHAR
STARTCHAR exclam
ENCODING 33
SWIDTH 251 0
DWIDTH 6 0
BBX 4 18 1 0
BITMAP
E0
E0
E0
E0
E0
E0
E0
E0
E0
E0
E0
60
00
00
60
F0
F0
60
ENDCHAR
STARTCHAR quotedbl
ENCODING 34
SWIDTH 351 0
DWIDTH 9 0
BBX 7 5 1 13
BITMAP
EE
EE
EE
CC
CC
ENDCHAR
STARTCHAR numbersign
ENCODING 35
SWIDTH 478 0
DWIDTH 12 0
BBX 11 15 1 1
BITMAP
1CE0
1CC0
1CC0
19C0
7FE0
7FE0
3980
3980
3380
FFC0
FFC0
7300
7300
6700
6700
ENDCHAR
STARTCHAR dollar
ENCODING 36
SWIDTH 478 0
DWIDTH 12 0
BBX 9 22 2 -2
BITMAP
1800
1800
3E00
7F00
FF00
EA00
E800
E800
F800
7800
3E00
1F00
1F00
1780
1380
1380
5780
FF00
FE00
7C00
1800
1800
ENDCHAR
STARTCHAR percent
ENCODING 37
SWIDTH 720 0
DWIDTH 18 0
BBX 16 18 1 0
BITMAP
3C04
7E0E
EE0C
E61C
E738
E670
FE70
7EE0
39C0
0388
03BE
077F
0E67
1C63
1C63
3877
707F
203E
ENDCHAR
STARTCHAR ampersand
ENCODING 38
SWIDTH 671 0
DWIDTH 17 0
BBX 14 18 2 0
BITMAP
0F00
1F80
3B80
3B80
3B80
3B00
1F00
1E00
3E00
7708
E71C
E3B8
E1F8
E0F0
F1F0
7FFC
7FB8
1F08
ENDCHAR
STARTCHAR quotesingle
ENCODING 39
SWIDTH 217 0
DWIDTH 5 0
BBX 3 5 1 13
BITMAP
E0
E0
E0
C0
C0
ENDCHAR
STARTCHAR parenleft
ENCODING 40
SWIDTH 278 0
DWIDTH 7 0
BBX 6 24 1 -6
BITMAP
08
1C
38
38
70
70
70
E0
E0
E0
E0
E0
E0
E0
E0
E0
E0
70
70
70
38
38
1C
18
ENDCHAR
STARTCHAR parenright
ENCODING 41
SWIDTH 278 0
DWIDTH 7 0
BBX 6 24 0 -6
BITMAP
40
E0
70
70
38
38
38
1C
1C
1C
1C
1C
1C
1C
1C
1C
1C
38
38
38
70
70
E0
40
ENDCHAR
STARTCHAR asterisk
ENCODING 42
SWIDTH 323 0
DWIDTH 8 0
BBX 7 8 0 11
BITMAP
28
6C
38
FE
FE
28
6C
6C
ENDCHAR
STARTCHAR plus
ENCODING 43
SWIDTH 444 0
DWIDTH 11 0
BBX 9 11 1 3
BITMAP
1C00
1C00
1C00
1C00
FF80
FF80
FF80
1C00
1C00
1C00
1C00
ENDCHAR
STARTCHAR comma
ENCODING 44
SWIDTH 216 0
DWIDTH 5 0
BBX 4 8 1 -4
BITMAP
60
F0
F0
70
30
60
E0
40
ENDCHAR
STARTCHAR hyphen
ENCODING 45
SWIDTH 298 0
DWIDTH 7 0
BBX 5 3 1 6
BITMAP
F8
F8
F8
ENDCHAR
STARTCHAR period
ENCODING 46
SWIDTH 212 0
DWIDTH 5 0
BBX 4 4 1 0
BITMAP
60
F0
F0
60
ENDCHAR
STARTCHAR slash
ENCODING 47
SWIDTH 349 0
DWIDTH 9 0
BBX 9 22 0 -4
BITMAP
0100
0180
0380
0300
0300
0700
0600
0600
0E00
0C00
0C00
1800
1800
3800
3000
3000
7000
6000
6000
E000
C000
4000
ENDCHAR
STARTCHAR zero
ENCODING 48
SWIDTH 478 0
DWIDTH 12 0
BBX 10 18 1 0
BITMAP
1E00
3F00
7F80
7380
E1C0
E1C0
E1C0
E1C0
E1C0
E1C0
E1C0
E1C0
E1C0
E1C0
7380
7F80
3F00
1E00
ENDCHAR
STARTCHAR one
ENCODING 49
SWIDTH 478 0
DWIDTH 12 0
BBX 10 18 1 0
BITMAP
0E00
1E00
3E00
7E00
EE00
4E00
0E00
0E00
0E00
0E00
0E00
0E00
0E00
0E00
0E00
7FC0
7FC0
7FC0
ENDCHAR
STARTCHAR two
ENCODING 50
SWIDTH 478 0
DWIDTH 12 0
BBX 9 18 1 0
BITMAP
3E00
FF00
FF80
4780
0380
0380
0380
0300
0700
0700
0E00
1E00
1C00
3800
7000
FF80
FF80
FF80
ENDCHAR
STARTCHAR three
ENCODING 51
SWIDTH 478 0
DWIDTH 12 0
BBX 9 18 1 0
BITMAP
FF00
FF00
FF00
0E00
0E00
1C00
1800
3E00
3F00
3F80
0780
0380
0380
0380
4780
FF00
FE00
7C00
ENDCHAR
STARTCHAR four
ENCODING 52
SWIDTH 478 0
DWIDTH 12 0
BBX 11 18 0 0
BITMAP
0380
0780
0780
0F80
0F80
1F80
3B80
3380
7380
6380
FFE0
FFE0
FFE0
0380
0380
0380
0380
0380
ENDCHAR
STARTCHAR five
ENCODING 53
SWIDTH 478 0
DWIDTH 12 0
BBX 9 18 1 0
BITMAP
7F00
7F00
7F00
7000
7000
7000
7E00
7F00
7F00
0780
0380
0380
0380
0380
0780
7F00
FE00
FC00
ENDCHAR
STARTCHAR six
ENCODING 54
SWIDTH 478 0
DWIDTH 12 0
BBX 10 18 1 0
BITMAP
0200
0F00
1F00
3C00
3800
7000
7000
EF00
FF80
FF80
F3C0
E1C0
E1C0
E1C0
F3C0
7F80
7F80
1E00
ENDCHAR
STARTCHAR seven
ENCODING 55
SWIDTH 478 0
DWIDTH 12 0
BBX 10 18 1 0
BITMAP
FFC0
FFC0
FFC0
0380
0380
0300
0700
0700
0E00
0E00
0E00
1C00
1C00
1C00
3800
3800
3000
7000
ENDCHAR
STARTCHAR eight
ENCODING 56
SWIDTH 478 0
DWIDTH 12 0
BBX 10 18 1 0
BITMAP
1F00
3F80
7FC0
71C0
71C0
71C0
7180
3B00
3E00
3F00
7780
E1C0
E1C0
E1C0
F3C0
FF80
7F80
1E00
ENDCHAR
STARTCHAR nine
ENCODING 57
SWIDTH 478 0
DWIDTH 12 0
BBX 10 18 1 0
BITMAP
1E00
7F00
7F80
F3C0
E1C0
E1C0
E1C0
F1C0
7FC0
7FC0
3DC0
0380
0380
0780
0F00
3E00
3C00
1800
ENDCHAR
STARTCHAR colon
ENCODING 58
SWIDTH 251 0
DWIDTH 6 0
BBX 4 13 1 0
BITMAP
60
F0
F0
60
00
00
00
00
00
60
F0
F0
60
ENDCHAR
STARTCHAR semicolon
ENCODING 59
SWIDTH 251 0
DWIDTH 6 0
BBX 4 17 1 -4
BITMAP
60
F0
F0
60
00
00
00
00
00
60
F0
F0
70
30
60
E0
40
ENDCHAR
STARTCHAR less
ENCODING 60
SWIDTH 444 0
DWIDTH 11 0
BBX 9 13 1 2
BITMAP
0100
0780
0F00
1E00
3C00
F800
E000
F800
7C00
1E00
0F00
0780
0100
ENDCHAR
STARTCHAR equal
ENCODING 61
SWIDTH 444 0
DWIDTH 11 0
BBX 9 7 1 5
BITMAP
FF80
FF80
0000
0000
0000
FF80
FF80
ENDCHAR
STARTCHAR greater
ENCODING 62
SWIDTH 444 0
DWIDTH 11 0
BBX 9 13 1 2
BITMAP
4000
F000
7800
3C00
1F00
0F80
0380
0F80
1E00
3C00
7800
F000
4000
ENDCHAR
STARTCHAR question
ENCODING 63
SWIDTH 382 0
DWIDTH 10 0
BBX 9 18 0 0
BITMAP
3E00
FF00
FF80
4380
0380
0380
0780
0700
0E00
1C00
3C00
3800
3800
0000
1800
3C00
3C00
1800
ENDCHAR
STARTCHAR at
ENCODING 64
SWIDTH 881 0
DWIDTH 22 0
BBX 19 21 2 -4
BITMAP
01F800
07FF00
1F0780
3C03C0
3801C0
70FEE0
71FCE0
E3FCE0
E39CE0
E71CE0
E71CE0
E719E0
E73DC0
E7FFC0
E7DF80
738E00
700000
380000
1E1000
0FF800
03F000
ENDCHAR
STARTCHAR A
ENCODING 65
SWIDTH 501 0
DWIDTH 13 0
BBX 13 18 0 0
BITMAP
0700
0700
0700
0F80
0D80
0D80
1DC0
1DC0
19C0
18E0
38E0
3FE0
3FE0
7FF0
7070
7070
E038
E038
ENDCHAR
STARTCHAR B
ENCODING 66
SWIDTH 490 0
DWIDTH 12 0
BBX 10 18 1 0
BITMAP
FE00
FF80
FFC0
E3C0
E1C0
E1C0
E380
FF00
FF00
FF80
E3C0
E1C0
E1C0
E1C0
E3C0
FF80
FF80
FE00
ENDCHAR
STARTCHAR C
ENCODING 67
SWIDTH 457 0
DWIDTH 12 0
BBX 10 18 1 0
BITMAP
0F80
3FC0
3FC0
7880
7000
E000
E000
E000
E000
E000
E000
E000
E000
7000
7880
7FC0
3FC0
0F80
ENDCHAR
STARTCHAR D
ENCODING 68
SWIDTH 535 0
DWIDTH 13 0
BBX 11 18 1 0
BITMAP
FE00
FF80
FFC0
E3C0
E1C0
E0E0
E0E0
E0E0
E0E0
E0E0
E0E0
E0E0
E1E0
E1C0
E3C0
FF80
FF00
FE00
ENDCHAR
STARTCHAR E
ENCODING 69
SWIDTH 430 0
DWIDTH 11 0
BBX 9 18 1 0
BITMAP
FF80
FF80
FF80
E000
E000
E000
E000
FF00
FF00
FF00
E000
E000
E000
E000
E000
FF80
FF80
FF80
ENDCHAR
STARTCHAR F
ENCODING 70
SWIDTH 419 0
DWIDTH 10 0
BBX 8 18 1 0
BITMAP
FF
FF
FF
E0
E0
E0
E0
E0
FF
FF
FF
E0
E0
E0
E0
E0
E0
E0
ENDCHAR
STARTCHAR G
ENCODING 71
SWIDTH 502 0
DWIDTH 13 0
BBX 11 18 1 0
BITMAP
0F80
3FC0
3FC0
7880
7000
E000
E000
E000
E000
E3E0
E3E0
E3E0
E0E0
70E0
78E0
7FE0
3FE0
0F80
ENDCHAR
STARTCHAR H
ENCODING 72
SWIDTH 533 0
DWIDTH 13 0
BBX 11 18 1 0
BITMAP
E0E0
E0E0
E0E0
E0E0
E0E0
E0E0
E0E0
FFE0
FFE0
FFE0
E0E0
E0E0
E0E0
E0E0
E0E0
E0E0
E0E0
E0E0
ENDCHAR
STARTCHAR I
ENCODING 73
SWIDTH 238 0
DWIDTH 7 0
BBX 3 18 2 0
BITMAP
E0
E0
E0
E0
E0
E0
E0
E0
E0
E0
E0
E0
E0
E0
E0
E0
E0
E0
ENDCHAR
STARTCHAR J
ENCODING 74
SWIDTH 289 0
DWIDTH 7 0
BBX 6 18 0 0
BITMAP
1C
1C
1C
1C
1C
1C
1C
1C
1C
1C
1C
1C
1C
1C
1C
7C
F8
F0
ENDCHAR
STARTCHAR K
ENCODING 75
SWIDTH 519 0
DWIDTH 13 0
BBX 12 18 1 0
BITMAP
E0E0
E1C0
E3C0
E380
E700
E700
EE00
FC00
FE00
FF00
E700
E780
E380
E3C0
E1C0
E1E0
E0E0
E0F0
ENDCHAR
STARTCHAR L
ENCODING 76
SWIDTH 424 0
DWIDTH 10 0
BBX 9 18 1 0
BITMAP
E000
E000
E000
E000
E000
E000
E000
E000
E000
E000
E000
E000
E000
E000
E000
FF80
FF80
FF80
ENDCHAR
STARTCHAR M
ENCODING 77
SWIDTH 664 0
DWIDTH 16 0
BBX 14 18 1 0
BITMAP
E01C
E01C
F03C
F03C
F83C
F87C
FC7C
ECDC
ECDC
EE9C
E79C
E79C
E31C
E31C
E31C
E01C
E01C
E01C
ENDCHAR
STARTCHAR N
ENCODING 78
SWIDTH 540 0
DWIDTH 13 0
BBX 11 18 1 0
BITMAP
E0E0
E0E0
F0E0
F0E0
F8E0
F8E0
FCE0
FCE0
ECE0
EEE0
E6E0
E7E0
E3E0
E3E0
E1E0
E1E0
E0E0
E0E0
ENDCHAR
STARTCHAR O
ENCODING 79
SWIDTH 553 0
DWIDTH 14 0
BBX 12 18 1 0
BITMAP
0F00
3FC0
7FE0
79E0
70E0
E070
E070
E070
E070
E070
E070
E070
E070
70E0
79E0
7FE0
3FC0
1F00
ENDCHAR
STARTCHAR P
ENCODING 80
SWIDTH 477 0
DWIDTH 12 0
BBX 10 18 1 0
BITMAP
FE00
FF80
FF80
E3C0
E1C0
E1C0
E1C0
E1C0
E3C0
FF80
FF00
FE00
E000
E000
E000
E000
E000
E000
ENDCHAR
STARTCHAR Q
ENCODING 81
SWIDTH 553 0
DWIDTH 14 0
BBX 13 23 1 -5
BITMAP
0F00
3FC0
7FE0
79E0
70E0
E070
E070
E070
E070
E070
E070
E070
E070
70E0
79E0
7FE0
3FC0
1F00
0000
1E00
1FF8
1FF8
01F8
ENDCHAR
STARTCHAR R
ENCODING 82
SWIDTH 503 0
DWIDTH 12 0
BBX 11 18 1 0
BITMAP
FE00
FF80
FF80
E3C0
E1C0
E1C0
E1C0
E3C0
FF80
FF00
FE00
E700
E700
E380
E380
E3C0
E1C0
E1E0
ENDCHAR
STARTCHAR S
ENCODING 83
SWIDTH 439 0
DWIDTH 11 0
BBX 9 18 1 0
BITMAP
3F00
7F80
FF80
E100
E000
E000
F000
7C00
3E00
1F00
0780
0380
0380
0380
4780
FF00
FF00
7E00
ENDCHAR
STARTCHAR T
ENCODING 84
SWIDTH 474 0
DWIDTH 11 0
BBX 11 18 0 0
BITMAP
FFE0
FFE0
FFE0
0E00
0E00
0E00
0E00
0E00
0E00
0E00
0E00
0E00
0E00
0E00
0E00
0E00
0E00
0E00
ENDCHAR
STARTCHAR U
ENCODING 85
SWIDTH 515 0
DWIDTH 13 0
BBX 11 18 1 0
BITMAP
E0E0
E0E0
E0E0
E0E0
E0E0
E0E0
E0E0
E0E0
E0E0
E0E0
E0E0
E0E0
E0E0
E0E0
F1E0
7FC0
7FC0
1F00
ENDCHAR
STARTCHAR V
ENCODING 86
SWIDTH 503 0
DWIDTH 13 0
BBX 13 18 0 0
BITMAP
F038
7070
7070
7070
7870
38E0
38E0
38E0
1CC0
1DC0
1DC0
1DC0
0D80
0F80
0F80
0700
0700
0700
ENDCHAR
STARTCHAR W
ENCODING 87
SWIDTH 717 0
DWIDTH 18 0
BBX 18 18 0 0
BITMAP
E0C1C0
F0C1C0
70E180
71E380
71E380
71E380
71F380
3BF300
3B3300
3B3700
3B3700
3B3F00
1E1E00
1E1E00
1E1E00
1E1E00
0C0C00
0C0C00
ENDCHAR
STARTCHAR X
ENCODING 88
SWIDTH 528 0
DWIDTH 13 0
BBX 13 18 0 0
BITMAP
F078
7870
38E0
38E0
3CE0
1DC0
1FC0
0F80
0F80
0F80
0F80
1DC0
1DC0
39E0
38E0
38F0
7070
F078
ENDCHAR
STARTCHAR Y
ENCODING 89
SWIDTH 495 0
DWIDTH 13 0
BBX 13 18 0 0
BITMAP
F038
7070
7870
38E0
38E0
1CC0
1DC0
1DC0
0F80
0F80
0700
0700
0700
0700
0700
0700
0700
0700
ENDCHAR
STARTCHAR Z
ENCODING 90
SWIDTH 445 0
DWIDTH 12 0
BBX 10 18 1 0
BITMAP
FFC0
FFC0
FFC0
01C0
0380
0780
0700
0F00
0E00
1C00
3C00
3800
7800
7000
E000
FFC0
FFC0
FFC0
ENDCHAR
STARTCHAR bracketleft
ENCODING 91
SWIDTH 276 0
DWIDTH 7 0
BBX 5 24 1 -6
BITMAP
F8
F8
F8
E0
E0
E0
E0
E0
E0
E0
E0
E0
E0
E0
E0
E0
E0
E0
E0
E0
E0
F8
F8
F8
ENDCHAR
STARTCHAR backslash
ENCODING 92
SWIDTH 362 0
DWIDTH 9 0
BBX 9 22 0 -4
BITMAP
C000
C000
E000
6000
6000
7000
3000
3000
3800
1800
1800
0C00
0C00
0E00
0600
0600
0700
0300
0300
0380
0180
0100
ENDCHAR
STARTCHAR bracketright
ENCODING 93
SWIDTH 276 0
DWIDTH 7 0
BBX 5 24 1 -6
BITMAP
F8
F8
F8
38
38
38
38
38
38
38
38
38
38
38
38
38
38
38
38
38
38
F8
F8
F8
ENDCHAR
STARTCHAR asciicircum
ENCODING 94
SWIDTH 428 0
DWIDTH 11 0
BBX 10 7 0 11
BITMAP
0C00
1E00
1E00
3F00
7380
7380
E1C0
ENDCHAR
STARTCHAR underscore
ENCODING 95
SWIDTH 374 0
DWIDTH 9 0
BBX 9 3 0 -6
BITMAP
FF80
FF80
FF80
ENDCHAR
STARTCHAR grave
ENCODING 96
SWIDTH 290 0
DWIDTH 7 0
BBX 4 4 2 14
BITMAP
E0
60
70
30
ENDCHAR
STARTCHAR a
ENCODING 97
SWIDTH 413 0
DWIDTH 11 0
BBX 9 13 1 0
BITMAP
3E00
7F00
7F80
2380
0380
3F80
7F80
FF80
E380
E380
FF80
7F80
3980
ENDCHAR
STARTCHAR b
ENCODING 98
SWIDTH 443 0
DWIDTH 11 0
BBX 9 18 1 0
BITMAP
E000
E000
E000
E000
E000
EE00
FF00
FF80
E780
E380
E380
E380
E380
E380
E780
FF00
FF00
7C00
ENDCHAR
STARTCHAR c
ENCODING 99
SWIDTH 350 0
DWIDTH 9 0
BBX 8 13 1 0
BITMAP
1E
7F
7E
F0
E0
E0
E0
E0
E0
F2
7F
7F
1E
ENDCHAR
STARTCHAR d
ENCODING 100
SWIDTH 445 0
DWIDTH 11 0
BBX 9 18 1 0
BITMAP
0380
0380
0380
0380
0380
1F80
7F80
7F80
F380
E380
E380
E380
E380
E380
F380
FF80
7F80
3D80
ENDCHAR
STARTCHAR e
ENCODING 101
SWIDTH 428 0
DWIDTH 11 0
BBX 9 13 1 0
BITMAP
1E00
7F00
7F80
F380
E380
FF80
FF80
FF80
E000
F100
7F80
7F80
1F00
ENDCHAR
STARTCHAR f
ENCODING 102
SWIDTH 267 0
DWIDTH 6 0
BBX 6 18 0 0
BITMAP
3C
7C
7C
70
70
FC
FC
FC
70
70
70
70
70
70
70
70
70
70
ENDCHAR
STARTCHAR g
ENCODING 103
SWIDTH 443 0
DWIDTH 11 0
BBX 9 18 1 -5
BITMAP
1F00
7F80
7F80
F380
E380
E380
E380
E380
E380
F380
7F80
7F80
3F80
0380
4780
7F80
7F00
3E00
ENDCHAR
STARTCHAR h
ENCODING 104
SWIDTH 449 0
DWIDTH 11 0
BBX 9 18 1 0
BITMAP
E000
E000
E000
E000
E000
EE00
FF00
FF80
F380
E380
E380
E380
E380
E380
E380
E380
E380
E380
ENDCHAR
STARTCHAR i
ENCODING 105
SWIDTH 225 0
DWIDTH 6 0
BBX 4 18 1 0
BITMAP
60
F0
F0
40
00
E0
E0
E0
E0
E0
E0
E0
E0
E0
E0
E0
E0
E0
ENDCHAR
STARTCHAR j
ENCODING 106
SWIDTH 225 0
DWIDTH 6 0
BBX 5 23 0 -5
BITMAP
30
78
78
20
00
70
70
70
70
70
70
70
70
70
70
70
70
70
70
70
F0
F0
E0
ENDCHAR
STARTCHAR k
ENCODING 107
SWIDTH 412 0
DWIDTH 10 0
BBX 9 18 1 0
BITMAP
E000
E000
E000
E000
E000
E380
E700
E700
E600
EE00
EC00
F800
FC00
EE00
EE00
E700
E700
E380
ENDCHAR
STARTCHAR l
ENCODING 108
SWIDTH 243 0
DWIDTH 6 0
BBX 5 18 1 0
BITMAP
E0
E0
E0
E0
E0
E0
E0
E0
E0
E0
E0
E0
E0
E0
E0
F8
F8
78
ENDCHAR
STARTCHAR m
ENCODING 109
SWIDTH 663 0
DWIDTH 17 0
BBX 15 13 1 0
BITMAP
CE38
FF7C
FFFE
F38E
E38E
E38E
E38E
E38E
E38E
E38E
E38E
E38E
E38E
ENDCHAR
STARTCHAR n
ENCODING 110
SWIDTH 449 0
DWIDTH 11 0
BBX 9 13 1 0
BITMAP
CE00
FF00
FF80
F380
E380
E380
E380
E380
E380
E380
E380
E380
E380
ENDCHAR
STARTCHAR o
ENCODING 111
SWIDTH 445 0
DWIDTH 12 0
BBX 10 13 1 0
BITMAP
1E00
7F80
7F80
F3C0
E1C0
E1C0
E1C0
E1C0
E1C0
F3C0
7F80
7F80
1E00
ENDCHAR
STARTCHAR p
ENCODING 112
SWIDTH 447 0
DWIDTH 11 0
BBX 9 18 1 -5
BITMAP
CE00
FF00
FF80
E780
E380
E380
E380
E380
E380
E780
FF00
FF00
FE00
E000
E000
E000
E000
E000
ENDCHAR
STARTCHAR q
ENCODING 113
SWIDTH 443 0
DWIDTH 11 0
BBX 9 18 1 -5
BITMAP
1F00
3F80
7F80
F380
E380
E380
E380
E380
E380
F380
7F80
7F80
3B80
0380
0380
0380
0380
0380
ENDCHAR
STARTCHAR r
ENCODING 114
SWIDTH 293 0
DWIDTH 7 0
BBX 6 13 1 0
BITMAP
CC
FC
FC
F0
E0
E0
E0
E0
E0
E0
E0
E0
E0
ENDCHAR
STARTCHAR s
ENCODING 115
SWIDTH 350 0
DWIDTH 9 0
BBX 7 13 1 0
BITMAP
7C
FE
FE
E4
E0
78
7C
1E
0E
8E
FE
FC
78
ENDCHAR
STARTCHAR t
ENCODING 116
SWIDTH 291 0
DWIDTH 8 0
BBX 8 16 0 0
BITMAP
18
38
38
FE
FE
FE
38
38
38
38
38
38
38
3F
3F
1F
ENDCHAR
STARTCHAR u
ENCODING 117
SWIDTH 446 0
DWIDTH 11 0
BBX 9 13 1 0
BITMAP
E380
E380
E380
E380
E380
E380
E380
E380
E380
E780
FF80
7D80
3980
ENDCHAR
STARTCHAR v
ENCODING 118
SWIDTH 399 0
DWIDTH 10 0
BBX 10 13 0 0
BITMAP
E1C0
E1C0
7180
7380
7380
3380
3B00
3F00
1F00
1E00
1E00
0E00
0C00
ENDCHAR
STARTCHAR w
ENCODING 119
SWIDTH 596 0
DWIDTH 15 0
BBX 15 13 0 0
BITMAP
E38E
E38E
738C
73CC
72CC
76DC
36DC
3EF8
3E78
3C78
1C78
1C70
1C30
ENDCHAR
STARTCHAR x
ENCODING 120
SWIDTH 439 0
DWIDTH 11 0
BBX 11 13 0 0
BITMAP
F0E0
71C0
79C0
3B80
3B80
1F00
1F00
1F00
3B80
3B80
71C0
71C0
E0E0
ENDCHAR
STARTCHAR y
ENCODING 121
SWIDTH 400 0
DWIDTH 10 0
BBX 10 18 0 -5
BITMAP
E1C0
F1C0
71C0
7180
7380
3B80
3B00
3B00
1B00
1F00
1E00
0E00
0E00
0E00
1C00
7C00
7800
7000
ENDCHAR
STARTCHAR z
ENCODING 122
SWIDTH 381 0
DWIDTH 10 0
BBX 8 13 1 0
BITMAP
FF
FF
FF
07
0E
1C
3C
38
70
E0
FF
FF
FF
ENDCHAR
STARTCHAR braceleft
ENCODING 123
SWIDTH 313 0
DWIDTH 8 0
BBX 7 24 1 -6
BITMAP
1E
3E
3E
38
38
38
38
38
38
38
78
F0
F0
78
38
38
38
38
38
38
38
3E
3E
1E
ENDCHAR
STARTCHAR bar
ENCODING 124
SWIDTH 188 0
DWIDTH 5 0
BBX 2 21 1 -3
BITMAP
C0
C0
C0
C0
C0
C0
C0
C0
C0
C0
C0
C0
C0
C0
C0
C0
C0
C0
C0
C0
C0
ENDCHAR
STARTCHAR braceright
ENCODING 125
SWIDTH 313 0
DWIDTH 8 0
BBX 7 24 1 -6
BITMAP
F0
F8
F8
38
38
38
38
38
38
38
3C
1E
1E
3C
38
38
38
38
38
38
38
F8
F8
F0
ENDCHAR
STARTCHAR asciitilde
ENCODING 126
SWIDTH 444 0
DWIDTH 11 0
BBX 10 4 1 7
BITMAP
3880
FFC0
FFC0
4780
ENDCHAR
STARTCHAR degree
ENCODING 176
SWIDTH 364 0
DWIDTH 9 0
BBX 7 8 1 10
BITMAP
38
7C
EE
C6
C6
CE
7C
38
ENDCHAR
ENDFONT
