STARTFONT 2.1
FONT -FontForge-Roboto-Book-R-Normal--15-140-75-75-P-75-ISO10646-1
SIZE 14 75 75
FONTBOUNDINGBOX 13 16 0 -3
COMMENT "Generated by fontforge, http://fontforge.sourceforge.net"
COMMENT "Copyright 2011 Google Inc. All Rights Reserved."
STARTPROPERTIES 40
FOUNDRY "FontForge"
FAMILY_NAME "Roboto"
WEIGHT_NAME "Book"
SLANT "R"
SETWIDTH_NAME "Normal"
ADD_STYLE_NAME ""
PIXEL_SIZE 15
POINT_SIZE 140
RESOLUTION_X 75
RESOLUTION_Y 75
SPACING "P"
AVERAGE_WIDTH 75
CHARSET_REGISTRY "ISO10646"
CHARSET_ENCODING "1"
FONTNAME_REGISTRY ""
CHARSET_COLLECTIONS "ISO10646-1"
FONT_NAME "Roboto-Regular"
FACE_NAME "Roboto"
COPYRIGHT "Copyright 2011 Google Inc. All Rights Reserved."
FONT_VERSION "2.137; 2017"
FONT_ASCENT 11
FONT_DESCENT 4
UNDERLINE_POSITION -1
UNDERLINE_THICKNESS 1
X_HEIGHT 7
CAP_HEIGHT 10
RAW_ASCENT 750
RAW_DESCENT 250
NORM_SPACE 4
RELATIVE_WEIGHT 40
RELATIVE_SETWIDTH 50
SUPERSCRIPT_X 0
SUPERSCRIPT_Y 7
SUPERSCRIPT_SIZE 9
SUBSCRIPT_X 0
SUBSCRIPT_Y 2
SUBSCRIPT_SIZE 9
FIGURE_WIDTH 8
AVG_LOWERCASE_WIDTH 74
AVG_UPPERCASE_WIDTH 94
ENDPROPERTIES
CHARS 96
STARTCHAR space
ENCODING 32
SWIDTH 247 0
DWIDTH 4 0
BBX 1 1 0 0
BITMAP
00
ENDCHAR
STARTCHAR exclam
ENCODING 33
SWIDTH 257 0
DWIDTH 4 0
BBX 2 11 1 0
BITMAP
C0
C0
C0
C0
C0
C0
C0
00
00
C0
C0
ENDCHAR
STARTCHAR quotedbl
ENCODING 34
SWIDTH 319 0
DWIDTH 5 0
BBX 3 4 1 7
BITMAP
A0
A0
A0
A0
ENDCHAR
STARTCHAR numbersign
ENCODING 35
SWIDTH 615 0
DWIDTH 9 0
BBX 8 11 1 0
BITMAP
12
12
FF
24
24
24
FF
24
48
48
48
ENDCHAR
STARTCHAR dollar
ENCODING 36
SWIDTH 561 0
DWIDTH 8 0
BBX 7 14 1 -1
BITMAP
10
10
78
44
C4
C2
40
38
0C
06
86
C4
78
10
ENDCHAR
STARTCHAR percent
ENCODING 37
SWIDTH 732 0
DWIDTH 11 0
BBX 9 11 1 0
BITMAP
6000
9200
9200
9400
6400
0800
1380
1480
2480
6480
0380
ENDCHAR
STARTCHAR ampersand
ENCODING 38
SWIDTH 621 0
DWIDTH 9 0
BBX 8 11 1 0
BITMAP
38
4C
44
48
70
70
DB
8A
86
C6
7B
ENDCHAR
STARTCHAR quotesingle
ENCODING 39
SWIDTH 174 0
DWIDTH 3 0
BBX 1 3 1 8
BITMAP
80
80
80
ENDCHAR
STARTCHAR parenleft
ENCODING 40
SWIDTH 341 0
DWIDTH 5 0
BBX 4 15 1 -3
BITMAP
10
20
40
40
C0
80
80
80
80
80
C0
40
40
20
10
ENDCHAR
STARTCHAR parenright
ENCODING 41
SWIDTH 347 0
DWIDTH 5 0
BBX 4 15 0 -3
BITMAP
80
40
20
20
30
10
10
10
10
10
30
20
20
40
80
ENDCHAR
STARTCHAR asterisk
ENCODING 42
SWIDTH 430 0
DWIDTH 6 0
BBX 6 6 0 5
BITMAP
10
10
FC
30
38
48
ENDCHAR
STARTCHAR plus
ENCODING 43
SWIDTH 566 0
DWIDTH 9 0
BBX 7 7 1 2
BITMAP
10
10
10
FE
10
10
10
ENDCHAR
STARTCHAR comma
ENCODING 44
SWIDTH 196 0
DWIDTH 3 0
BBX 2 4 0 -2
BITMAP
40
40
40
80
ENDCHAR
STARTCHAR hyphen
ENCODING 45
SWIDTH 275 0
DWIDTH 4 0
BBX 4 1 0 4
BITMAP
F0
ENDCHAR
STARTCHAR period
ENCODING 46
SWIDTH 263 0
DWIDTH 4 0
BBX 2 2 1 0
BITMAP
C0
C0
ENDCHAR
STARTCHAR slash
ENCODING 47
SWIDTH 412 0
DWIDTH 6 0
BBX 6 12 0 -1
BITMAP
0C
08
08
10
10
10
20
20
60
40
40
80
ENDCHAR
STARTCHAR zero
ENCODING 48
SWIDTH 561 0
DWIDTH 8 0
BBX 7 11 1 0
BITMAP
78
CC
84
86
86
86
86
86
84
CC
78
ENDCHAR
STARTCHAR one
ENCODING 49
SWIDTH 561 0
DWIDTH 8 0
BBX 4 11 1 0
BITMAP
30
D0
10
10
10
10
10
10
10
10
10
ENDCHAR
STARTCHAR two
ENCODING 50
SWIDTH 561 0
DWIDTH 8 0
BBX 7 11 1 0
BITMAP
78
CC
84
04
04
08
18
30
60
C0
FE
ENDCHAR
STARTCHAR three
ENCODING 51
SWIDTH 561 0
DWIDTH 8 0
BBX 6 11 1 0
BITMAP
78
CC
84
04
0C
38
0C
04
84
C4
78
ENDCHAR
STARTCHAR four
ENCODING 52
SWIDTH 561 0
DWIDTH 8 0
BBX 8 11 0 0
BITMAP
06
0E
0E
16
36
26
46
FF
06
06
06
ENDCHAR
STARTCHAR five
ENCODING 53
SWIDTH 561 0
DWIDTH 8 0
BBX 7 11 1 0
BITMAP
7E
40
40
40
78
44
06
06
86
44
38
ENDCHAR
STARTCHAR six
ENCODING 54
SWIDTH 561 0
DWIDTH 8 0
BBX 7 11 1 0
BITMAP
18
60
40
C0
B8
C4
86
86
C6
44
38
ENDCHAR
STARTCHAR seven
ENCODING 55
SWIDTH 561 0
DWIDTH 8 0
BBX 7 11 1 0
BITMAP
FE
04
04
0C
08
18
10
30
20
20
60
ENDCHAR
STARTCHAR eight
ENCODING 56
SWIDTH 561 0
DWIDTH 8 0
BBX 7 11 1 0
BITMAP
78
CC
84
84
CC
38
C4
86
86
C4
78
ENDCHAR
STARTCHAR nine
ENCODING 57
SWIDTH 561 0
DWIDTH 8 0
BBX 6 11 1 0
BITMAP
78
CC
84
84
84
CC
74
04
0C
18
70
ENDCHAR
STARTCHAR colon
ENCODING 58
SWIDTH 242 0
DWIDTH 4 0
BBX 2 8 1 0
BITMAP
C0
C0
00
00
00
00
C0
C0
ENDCHAR
STARTCHAR semicolon
ENCODING 59
SWIDTH 211 0
DWIDTH 3 0
BBX 3 10 0 -2
BITMAP
40
60
00
00
00
00
40
40
40
C0
ENDCHAR
STARTCHAR less
ENCODING 60
SWIDTH 508 0
DWIDTH 8 0
BBX 6 7 1 1
BITMAP
0C
3C
E0
80
E0
3C
0C
ENDCHAR
STARTCHAR equal
ENCODING 61
SWIDTH 548 0
DWIDTH 8 0
BBX 6 4 1 3
BITMAP
FC
00
00
FC
ENDCHAR
STARTCHAR greater
ENCODING 62
SWIDTH 522 0
DWIDTH 8 0
BBX 6 7 1 1
BITMAP
80
E0
38
04
38
E0
80
ENDCHAR
STARTCHAR question
ENCODING 63
SWIDTH 472 0
DWIDTH 7 0
BBX 5 11 1 0
BITMAP
70
88
88
08
18
30
20
20
00
20
20
ENDCHAR
STARTCHAR at
ENCODING 64
SWIDTH 897 0
DWIDTH 13 0
BBX 12 13 1 -3
BITMAP
0F80
3040
4020
4720
8910
9910
9110
9110
9320
8DC0
4000
6100
1F00
ENDCHAR
STARTCHAR A
ENCODING 65
SWIDTH 652 0
DWIDTH 10 0
BBX 10 11 0 0
BITMAP
0C00
0C00
1E00
1200
1200
3300
2100
3F00
6180
4080
C0C0
ENDCHAR
STARTCHAR B
ENCODING 66
SWIDTH 622 0
DWIDTH 9 0
BBX 8 11 1 0
BITMAP
FC
C6
C2
C2
C6
FC
C2
C2
C3
C6
FC
ENDCHAR
STARTCHAR C
ENCODING 67
SWIDTH 650 0
DWIDTH 10 0
BBX 8 11 1 0
BITMAP
3C
62
C3
81
80
80
80
81
C3
62
3C
ENDCHAR
STARTCHAR D
ENCODING 68
SWIDTH 655 0
DWIDTH 10 0
BBX 8 11 1 0
BITMAP
F8
C6
C2
C3
C1
C1
C1
C3
C2
C6
F8
ENDCHAR
STARTCHAR E
ENCODING 69
SWIDTH 568 0
DWIDTH 9 0
BBX 7 11 1 0
BITMAP
FE
C0
C0
C0
C0
FC
C0
C0
C0
C0
FE
ENDCHAR
STARTCHAR F
ENCODING 70
SWIDTH 552 0
DWIDTH 8 0
BBX 7 11 1 0
BITMAP
FE
C0
C0
C0
C0
FC
C0
C0
C0
C0
C0
ENDCHAR
STARTCHAR G
ENCODING 71
SWIDTH 681 0
DWIDTH 10 0
BBX 8 11 1 0
BITMAP
3C
62
C3
80
80
80
8F
81
C1
63
3E
ENDCHAR
STARTCHAR H
ENCODING 72
SWIDTH 712 0
DWIDTH 11 0
BBX 8 11 1 0
BITMAP
C1
C1
C1
C1
C1
FF
C1
C1
C1
C1
C1
ENDCHAR
STARTCHAR I
ENCODING 73
SWIDTH 271 0
DWIDTH 4 0
BBX 2 11 1 0
BITMAP
C0
C0
C0
C0
C0
C0
C0
C0
C0
C0
C0
ENDCHAR
STARTCHAR J
ENCODING 74
SWIDTH 551 0
DWIDTH 8 0
BBX 7 11 0 0
BITMAP
02
02
02
02
02
02
02
02
C2
46
3C
ENDCHAR
STARTCHAR K
ENCODING 75
SWIDTH 626 0
DWIDTH 9 0
BBX 8 11 1 0
BITMAP
C3
C6
CC
D8
D0
F0
C8
CC
C6
C2
C3
ENDCHAR
STARTCHAR L
ENCODING 76
SWIDTH 538 0
DWIDTH 8 0
BBX 7 11 1 0
BITMAP
C0
C0
C0
C0
C0
C0
C0
C0
C0
C0
FE
ENDCHAR
STARTCHAR M
ENCODING 77
SWIDTH 873 0
DWIDTH 13 0
BBX 11 11 1 0
BITMAP
C060
E0E0
E0A0
E0A0
F1A0
D160
D960
CA60
CA60
CE60
C460
ENDCHAR
STARTCHAR N
ENCODING 78
SWIDTH 712 0
DWIDTH 11 0
BBX 9 11 1 0
BITMAP
C180
E180
E180
D180
D980
C980
CD80
C780
C380
C380
C180
ENDCHAR
STARTCHAR O
ENCODING 79
SWIDTH 687 0
DWIDTH 10 0
BBX 8 11 1 0
BITMAP
3C
62
C1
81
81
81
81
81
C1
62
3C
ENDCHAR
STARTCHAR P
ENCODING 80
SWIDTH 630 0
DWIDTH 9 0
BBX 8 11 1 0
BITMAP
FC
82
83
83
82
FC
80
80
80
80
80
ENDCHAR
STARTCHAR Q
ENCODING 81
SWIDTH 687 0
DWIDTH 10 0
BBX 8 13 1 -2
BITMAP
3C
42
C3
81
81
81
81
81
C3
42
3E
03
02
ENDCHAR
STARTCHAR R
ENCODING 82
SWIDTH 615 0
DWIDTH 9 0
BBX 8 11 1 0
BITMAP
FC
C6
C2
C2
C6
FC
CC
C4
C6
C2
C3
ENDCHAR
STARTCHAR S
ENCODING 83
SWIDTH 593 0
DWIDTH 9 0
BBX 7 11 1 0
BITMAP
7C
C6
82
80
40
38
06
02
82
C6
7C
ENDCHAR
STARTCHAR T
ENCODING 84
SWIDTH 596 0
DWIDTH 9 0
BBX 9 11 0 0
BITMAP
FF80
0800
0800
0800
0800
0800
0800
0800
0800
0800
0800
ENDCHAR
STARTCHAR U
ENCODING 85
SWIDTH 648 0
DWIDTH 10 0
BBX 8 11 1 0
BITMAP
C3
C3
C3
C3
C3
C3
C3
C3
C3
42
3C
ENDCHAR
STARTCHAR V
ENCODING 86
SWIDTH 636 0
DWIDTH 10 0
BBX 10 11 0 0
BITMAP
C0C0
4080
6180
2100
2100
3300
1200
1200
1E00
0C00
0C00
ENDCHAR
STARTCHAR W
ENCODING 87
SWIDTH 887 0
DWIDTH 13 0
BBX 13 11 0 0
BITMAP
C218
4318
4710
6510
2590
24B0
2CA0
38A0
38E0
1860
1060
ENDCHAR
STARTCHAR X
ENCODING 88
SWIDTH 626 0
DWIDTH 9 0
BBX 9 11 0 0
BITMAP
C180
6300
3200
1600
1C00
0C00
1C00
1600
3200
6300
C180
ENDCHAR
STARTCHAR Y
ENCODING 89
SWIDTH 600 0
DWIDTH 9 0
BBX 9 11 0 0
BITMAP
C180
4100
6300
2200
1400
1C00
0800
0800
0800
0800
0800
ENDCHAR
STARTCHAR Z
ENCODING 90
SWIDTH 598 0
DWIDTH 9 0
BBX 7 11 1 0
BITMAP
FE
06
04
08
18
10
30
60
40
C0
FE
ENDCHAR
STARTCHAR bracketleft
ENCODING 91
SWIDTH 265 0
DWIDTH 4 0
BBX 3 14 1 -2
BITMAP
E0
80
80
80
80
80
80
80
80
80
80
80
80
E0
ENDCHAR
STARTCHAR backslash
ENCODING 92
SWIDTH 410 0
DWIDTH 6 0
BBX 6 12 0 -1
BITMAP
C0
40
60
20
20
30
10
10
18
08
08
04
ENDCHAR
STARTCHAR bracketright
ENCODING 93
SWIDTH 265 0
DWIDTH 4 0
BBX 3 14 0 -2
BITMAP
E0
60
60
60
60
60
60
60
60
60
60
60
60
E0
ENDCHAR
STARTCHAR asciicircum
ENCODING 94
SWIDTH 417 0
DWIDTH 6 0
BBX 6 5 0 6
BITMAP
30
30
78
48
CC
ENDCHAR
STARTCHAR underscore
ENCODING 95
SWIDTH 451 0
DWIDTH 7 0
BBX 7 1 0 -1
BITMAP
FE
ENDCHAR
STARTCHAR grave
ENCODING 96
SWIDTH 309 0
DWIDTH 5 0
BBX 3 2 0 9
BITMAP
E0
20
ENDCHAR
STARTCHAR a
ENCODING 97
SWIDTH 543 0
DWIDTH 8 0
BBX 6 8 1 0
BITMAP
78
CC
04
7C
C4
84
8C
74
ENDCHAR
STARTCHAR b
ENCODING 98
SWIDTH 561 0
DWIDTH 8 0
BBX 7 11 1 0
BITMAP
80
80
80
B8
CC
84
86
86
84
CC
B8
ENDCHAR
STARTCHAR c
ENCODING 99
SWIDTH 523 0
DWIDTH 8 0
BBX 6 8 1 0
BITMAP
78
C4
84
80
80
84
C4
78
ENDCHAR
STARTCHAR d
ENCODING 100
SWIDTH 563 0
DWIDTH 8 0
BBX 7 11 0 0
BITMAP
02
02
02
3A
66
42
C2
C2
42
66
3A
ENDCHAR
STARTCHAR e
ENCODING 101
SWIDTH 529 0
DWIDTH 8 0
BBX 6 8 1 0
BITMAP
78
C4
84
FC
80
80
C4
78
ENDCHAR
STARTCHAR f
ENCODING 102
SWIDTH 347 0
DWIDTH 5 0
BBX 5 12 0 0
BITMAP
18
20
20
20
F8
20
20
20
20
20
20
20
ENDCHAR
STARTCHAR g
ENCODING 103
SWIDTH 561 0
DWIDTH 8 0
BBX 6 11 1 -3
BITMAP
74
CC
84
84
84
84
CC
74
04
8C
78
ENDCHAR
STARTCHAR h
ENCODING 104
SWIDTH 550 0
DWIDTH 8 0
BBX 6 11 1 0
BITMAP
80
80
80
B8
CC
84
84
84
84
84
84
ENDCHAR
STARTCHAR i
ENCODING 105
SWIDTH 242 0
DWIDTH 4 0
BBX 2 11 1 0
BITMAP
C0
C0
00
C0
C0
C0
C0
C0
C0
C0
C0
ENDCHAR
STARTCHAR j
ENCODING 106
SWIDTH 238 0
DWIDTH 4 0
BBX 3 14 0 -3
BITMAP
60
60
00
60
60
60
60
60
60
60
60
60
60
C0
ENDCHAR
STARTCHAR k
ENCODING 107
SWIDTH 506 0
DWIDTH 8 0
BBX 7 12 1 0
BITMAP
80
80
80
80
8C
98
B0
A0
D0
98
88
86
ENDCHAR
STARTCHAR l
ENCODING 108
SWIDTH 242 0
DWIDTH 4 0
BBX 2 12 1 0
BITMAP
C0
C0
C0
C0
C0
C0
C0
C0
C0
C0
C0
C0
ENDCHAR
STARTCHAR m
ENCODING 109
SWIDTH 876 0
DWIDTH 13 0
BBX 11 8 1 0
BITMAP
B9C0
CE60
8420
8420
8420
8420
8420
8420
ENDCHAR
STARTCHAR n
ENCODING 110
SWIDTH 551 0
DWIDTH 8 0
BBX 6 8 1 0
BITMAP
B8
CC
84
84
84
84
84
84
ENDCHAR
STARTCHAR o
ENCODING 111
SWIDTH 570 0
DWIDTH 9 0
BBX 7 8 1 0
BITMAP
38
44
82
82
82
82
44
38
ENDCHAR
STARTCHAR p
ENCODING 112
SWIDTH 561 0
DWIDTH 8 0
BBX 7 11 1 -3
BITMAP
B8
CC
84
86
86
84
CC
B8
80
80
80
ENDCHAR
STARTCHAR q
ENCODING 113
SWIDTH 568 0
DWIDTH 9 0
BBX 7 11 1 -3
BITMAP
7E
C6
86
86
86
86
C6
7E
06
06
06
ENDCHAR
STARTCHAR r
ENCODING 114
SWIDTH 338 0
DWIDTH 5 0
BBX 4 8 1 0
BITMAP
B0
C0
80
80
80
80
80
80
ENDCHAR
STARTCHAR s
ENCODING 115
SWIDTH 515 0
DWIDTH 8 0
BBX 6 8 1 0
BITMAP
78
CC
C0
60
1C
84
C4
78
ENDCHAR
STARTCHAR t
ENCODING 116
SWIDTH 326 0
DWIDTH 5 0
BBX 4 10 0 0
BITMAP
20
20
F0
20
20
20
20
20
20
30
ENDCHAR
STARTCHAR u
ENCODING 117
SWIDTH 551 0
DWIDTH 8 0
BBX 6 8 1 0
BITMAP
84
84
84
84
84
84
CC
74
ENDCHAR
STARTCHAR v
ENCODING 118
SWIDTH 484 0
DWIDTH 7 0
BBX 7 8 0 0
BITMAP
C6
44
44
6C
28
28
38
10
ENDCHAR
STARTCHAR w
ENCODING 119
SWIDTH 751 0
DWIDTH 11 0
BBX 11 8 0 0
BITMAP
C460
4C40
4A40
4A40
6A80
3180
3180
3180
ENDCHAR
STARTCHAR x
ENCODING 120
SWIDTH 495 0
DWIDTH 7 0
BBX 7 8 0 0
BITMAP
C6
64
28
18
18
28
64
C6
ENDCHAR
STARTCHAR y
ENCODING 121
SWIDTH 473 0
DWIDTH 7 0
BBX 7 11 0 -3
BITMAP
C6
44
44
6C
28
28
38
10
10
20
60
ENDCHAR
STARTCHAR z
ENCODING 122
SWIDTH 495 0
DWIDTH 7 0
BBX 6 8 1 0
BITMAP
FC
08
18
30
20
40
C0
FC
ENDCHAR
STARTCHAR braceleft
ENCODING 123
SWIDTH 338 0
DWIDTH 5 0
BBX 5 15 0 -3
BITMAP
18
30
20
20
20
20
20
C0
20
20
20
20
20
30
18
ENDCHAR
STARTCHAR bar
ENCODING 124
SWIDTH 243 0
DWIDTH 4 0
BBX 1 13 1 -2
BITMAP
80
80
80
80
80
80
80
80
80
80
80
80
80
ENDCHAR
STARTCHAR braceright
ENCODING 125
SWIDTH 338 0
DWIDTH 5 0
BBX 5 15 0 -3
BITMAP
80
40
20
20
20
20
20
18
20
20
20
20
20
40
80
ENDCHAR
STARTCHAR asciitilde
ENCODING 126
SWIDTH 680 0
DWIDTH 10 0
BBX 8 3 1 3
BITMAP
71
99
8E
ENDCHAR
STARTCHAR degree
ENCODING 176
SWIDTH 373 0
DWIDTH 6 0
BBX 4 4 1 7
BITMAP
60
90
90
60
ENDCHAR
ENDFONT
