STARTFONT 2.1
FONT -FontForge-Roboto Medium-Medium-R-Normal--31-300-75-75-P-160-ISO10646-1
SIZE 30 75 75
FONTBOUNDINGBOX 28 32 -1 -7
COMMENT "Generated by fontforge, http://fontforge.sourceforge.net"
COMMENT "Copyright 2011 Google Inc. All Rights Reserved."
STARTPROPERTIES 40
FOUNDRY "FontForge"
FAMILY_NAME "Roboto Medium"
WEIGHT_NAME "Medium"
SLANT "R"
SETWIDTH_NAME "Normal"
ADD_STYLE_NAME ""
PIXEL_SIZE 31
POINT_SIZE 300
RESOLUTION_X 75
RESOLUTION_Y 75
SPACING "P"
AVERAGE_WIDTH 160
CHARSET_REGISTRY "ISO10646"
CHARSET_ENCODING "1"
FONTNAME_REGISTRY ""
CHARSET_COLLECTIONS "ISO10646-1"
FONT_NAME "Roboto-Medium"
FACE_NAME "Roboto Medium"
COPYRIGHT "Copyright 2011 Google Inc. All Rights Reserved."
FONT_VERSION "2.137; 2017"
FONT_ASCENT 23
FONT_DESCENT 8
UNDERLINE_POSITION -3
UNDERLINE_THICKNESS 2
X_HEIGHT 16
CAP_HEIGHT 21
RAW_ASCENT 750
RAW_DESCENT 250
NORM_SPACE 8
RELATIVE_WEIGHT 50
RELATIVE_SETWIDTH 50
SUPERSCRIPT_X 0
SUPERSCRIPT_Y 14
SUPERSCRIPT_SIZE 20
SUBSCRIPT_X 0
SUBSCRIPT_Y 4
SUBSCRIPT_SIZE 20
FIGURE_WIDTH 18
AVG_LOWERCASE_WIDTH 156
AVG_UPPERCASE_WIDTH 198
ENDPROPERTIES
CHARS 96
STARTCHAR space
ENCODING 32
SWIDTH 249 0
DWIDTH 8 0
BBX 1 1 0 0
BITMAP
00
ENDCHAR
STARTCHAR exclam
ENCODING 33
SWIDTH 268 0
DWIDTH 8 0
BBX 4 22 2 0
BITMAP
F0
F0
F0
F0
F0
F0
F0
F0
F0
F0
F0
F0
F0
F0
F0
00
00
00
70
F0
F0
70
ENDCHAR
STARTCHAR quotedbl
ENCODING 34
SWIDTH 324 0
DWIDTH 10 0
BBX 7 8 2 16
BITMAP
CE
CE
CE
CE
CE
CC
CC
CC
ENDCHAR
STARTCHAR numbersign
ENCODING 35
SWIDTH 610 0
DWIDTH 19 0
BBX 17 22 1 0
BITMAP
018600
018600
038E00
038E00
038E00
030C00
3FFF80
3FFF80
071C00
071800
061800
061800
0E3800
FFFF00
FFFF00
0C3000
0C3000
0C7000
1C7000
1C7000
1C7000
186000
ENDCHAR
STARTCHAR dollar
ENCODING 36
SWIDTH 568 0
DWIDTH 18 0
BBX 14 28 2 -3
BITMAP
0380
0380
0380
0FC0
3FF0
3FF8
7878
783C
703C
703C
7800
7C00
3F00
1FC0
07F0
01F8
007C
003C
E01C
F01C
F03C
F87C
7FF8
3FF0
0FC0
0300
0300
0300
ENDCHAR
STARTCHAR percent
ENCODING 37
SWIDTH 734 0
DWIDTH 23 0
BBX 20 22 2 0
BITMAP
3E0000
7F0000
E38200
C38700
C38E00
C38C00
C39C00
E3B800
7F3000
3E7000
006000
00C000
01C780
019FE0
039CE0
073860
063870
0E3870
1C3860
081CE0
001FE0
000780
ENDCHAR
STARTCHAR ampersand
ENCODING 38
SWIDTH 639 0
DWIDTH 20 0
BBX 19 22 1 0
BITMAP
07E000
0FF000
1FF800
3E3800
3C3800
3C3800
3C3800
1C7800
1FF000
0FC000
0F8000
1FC380
3FE380
79F380
70F380
F07F80
F03F00
781F00
7C3F00
3FFF80
1FFF80
0FE3E0
ENDCHAR
STARTCHAR quotesingle
ENCODING 39
SWIDTH 168 0
DWIDTH 5 0
BBX 3 8 1 16
BITMAP
E0
E0
E0
E0
E0
E0
E0
E0
ENDCHAR
STARTCHAR parenleft
ENCODING 40
SWIDTH 348 0
DWIDTH 11 0
BBX 8 32 2 -7
BITMAP
01
07
07
0E
1C
3C
38
38
70
70
70
F0
F0
E0
E0
E0
E0
E0
E0
F0
F0
70
70
70
38
38
3C
1C
0E
07
07
01
ENDCHAR
STARTCHAR parenright
ENCODING 41
SWIDTH 352 0
DWIDTH 11 0
BBX 8 32 1 -7
BITMAP
80
C0
E0
70
38
38
1C
1C
0E
0E
0E
0F
0F
0F
07
07
07
07
0F
0F
0F
0E
0E
0E
1C
1C
38
38
70
E0
C0
80
ENDCHAR
STARTCHAR asterisk
ENCODING 42
SWIDTH 441 0
DWIDTH 14 0
BBX 13 13 0 9
BITMAP
0300
0300
0300
0300
7338
7FF8
BFF0
0780
0F80
1DC0
1CE0
38F0
1040
ENDCHAR
STARTCHAR plus
ENCODING 43
SWIDTH 557 0
DWIDTH 17 0
BBX 15 16 1 2
BITMAP
0380
0380
0380
0380
0380
0380
FFFE
FFFE
FFFE
0380
0380
0380
0380
0380
0380
0380
ENDCHAR
STARTCHAR comma
ENCODING 44
SWIDTH 219 0
DWIDTH 7 0
BBX 4 9 1 -5
BITMAP
70
70
70
70
70
70
E0
E0
40
ENDCHAR
STARTCHAR hyphen
ENCODING 45
SWIDTH 328 0
DWIDTH 10 0
BBX 8 3 1 8
BITMAP
FF
FF
FF
ENDCHAR
STARTCHAR period
ENCODING 46
SWIDTH 279 0
DWIDTH 9 0
BBX 5 4 2 0
BITMAP
70
F0
F8
70
ENDCHAR
STARTCHAR slash
ENCODING 47
SWIDTH 395 0
DWIDTH 12 0
BBX 12 24 0 -2
BITMAP
0070
00E0
00E0
01C0
01C0
01C0
0380
0380
0380
0700
0700
0600
0E00
0E00
1C00
1C00
1C00
3800
3800
3800
7000
7000
6000
E000
ENDCHAR
STARTCHAR zero
ENCODING 48
SWIDTH 568 0
DWIDTH 18 0
BBX 14 22 2 0
BITMAP
0FC0
3FF0
7FF8
7878
F03C
F03C
F03C
E03C
E01C
E01C
E01C
E01C
E01C
E01C
E03C
F03C
F03C
F03C
7878
7FF8
3FF0
0FC0
ENDCHAR
STARTCHAR one
ENCODING 49
SWIDTH 568 0
DWIDTH 18 0
BBX 9 22 3 0
BITMAP
0180
0F80
7F80
FF80
F780
8780
0780
0780
0780
0780
0780
0780
0780
0780
0780
0780
0780
0780
0780
0780
0780
0780
ENDCHAR
STARTCHAR two
ENCODING 50
SWIDTH 568 0
DWIDTH 18 0
BBX 16 22 1 0
BITMAP
07E0
1FF8
3FFC
7C3C
781E
701E
F01E
001E
001C
003C
0078
00F0
01F0
03E0
07C0
0780
0F00
1E00
3C00
7FFF
7FFF
7FFF
ENDCHAR
STARTCHAR three
ENCODING 51
SWIDTH 568 0
DWIDTH 18 0
BBX 15 22 1 0
BITMAP
07E0
1FF8
3FFC
7C3C
781E
701E
001E
001C
003C
07F8
07E0
07F8
003C
001E
001E
001E
F01E
781E
7C3C
3FFC
1FF8
0FE0
ENDCHAR
STARTCHAR four
ENCODING 52
SWIDTH 568 0
DWIDTH 18 0
BBX 16 22 1 0
BITMAP
0078
00F8
00F8
01F8
03F8
03F8
0778
0F78
0E78
1E78
3C78
3878
7878
7078
FFFF
FFFF
FFFF
0078
0078
0078
0078
0078
ENDCHAR
STARTCHAR five
ENCODING 53
SWIDTH 568 0
DWIDTH 18 0
BBX 15 22 2 0
BITMAP
3FFC
3FFC
3FFC
3800
7800
7800
7800
7FE0
7FF0
7FF8
787C
003C
001C
001E
001E
001E
F01C
F03C
787C
3FF8
1FF0
0FC0
ENDCHAR
STARTCHAR six
ENCODING 54
SWIDTH 568 0
DWIDTH 18 0
BBX 15 22 2 0
BITMAP
01E0
07E0
1FE0
1F00
3C00
7800
7000
73E0
FFF0
FFF8
F87C
F03C
F01C
F01C
F01E
F01C
F01C
783C
7C7C
3FF8
1FF0
07C0
ENDCHAR
STARTCHAR seven
ENCODING 55
SWIDTH 568 0
DWIDTH 18 0
BBX 15 22 1 0
BITMAP
FFFE
FFFE
FFFE
001E
001C
003C
0038
0078
0070
00F0
00F0
01E0
01E0
01C0
03C0
0380
0780
0780
0F00
0F00
1E00
1E00
ENDCHAR
STARTCHAR eight
ENCODING 56
SWIDTH 568 0
DWIDTH 18 0
BBX 14 22 2 0
BITMAP
0FC0
3FF0
7FF8
7878
F03C
F03C
F03C
7038
7878
3FF0
1FE0
3FF0
7878
F03C
F03C
E01C
F03C
F03C
F87C
7FF8
3FF0
0FC0
ENDCHAR
STARTCHAR nine
ENCODING 57
SWIDTH 568 0
DWIDTH 18 0
BBX 14 22 2 0
BITMAP
0F80
3FE0
7FF0
F8F8
F078
E03C
E03C
E03C
E03C
F03C
F87C
7FFC
3FFC
1F3C
0038
0038
0078
00F0
03F0
1FE0
1F80
1E00
ENDCHAR
STARTCHAR colon
ENCODING 58
SWIDTH 265 0
DWIDTH 8 0
BBX 4 17 2 0
BITMAP
70
F0
F0
70
00
00
00
00
00
00
00
00
00
70
F0
F0
70
ENDCHAR
STARTCHAR semicolon
ENCODING 59
SWIDTH 237 0
DWIDTH 7 0
BBX 5 22 1 -5
BITMAP
70
78
78
70
00
00
00
00
00
00
00
00
00
78
78
78
78
70
70
E0
E0
40
ENDCHAR
STARTCHAR less
ENCODING 60
SWIDTH 508 0
DWIDTH 16 0
BBX 13 14 1 3
BITMAP
0008
0078
01F8
07F8
1FE0
FF00
F800
F800
FE00
3FC0
0FF8
01F8
0078
0018
ENDCHAR
STARTCHAR equal
ENCODING 61
SWIDTH 559 0
DWIDTH 17 0
BBX 13 9 2 5
BITMAP
FFF8
FFF8
FFF8
0000
0000
0000
FFF8
FFF8
FFF8
ENDCHAR
STARTCHAR greater
ENCODING 62
SWIDTH 520 0
DWIDTH 16 0
BBX 13 14 2 3
BITMAP
8000
E000
FC00
FF00
3FC0
07F8
00F8
00F8
07F8
1FE0
FF00
FC00
F000
8000
ENDCHAR
STARTCHAR question
ENCODING 63
SWIDTH 486 0
DWIDTH 15 0
BBX 13 22 1 0
BITMAP
1F80
3FE0
7FF0
F8F8
F078
0078
0078
0070
00F0
01E0
03C0
0780
0700
0F00
0F00
0000
0000
0000
0600
0F00
0F00
0700
ENDCHAR
STARTCHAR at
ENCODING 64
SWIDTH 894 0
DWIDTH 28 0
BBX 25 29 2 -7
BITMAP
007F8000
01FFE000
07C0F000
0F003800
1C001C00
38000E00
38000600
701F0700
707F8300
60F1C300
E0E18300
E1C18300
E1C38300
C1C38380
C3838300
C3838300
C3838300
C3838300
C3878600
E1C78E00
E1FDFC00
60F0F000
70000000
70000000
38000000
1C000000
0F018000
07FF8000
00FE0000
ENDCHAR
STARTCHAR A
ENCODING 65
SWIDTH 665 0
DWIDTH 21 0
BBX 20 22 0 0
BITMAP
00F000
00F800
00F800
01F800
01FC00
03DC00
03DE00
039E00
078E00
078F00
070F00
0F0700
0F0780
1E0780
1FFFC0
1FFFC0
3FFFC0
3C01E0
3C01E0
7801E0
7800F0
F000F0
ENDCHAR
STARTCHAR B
ENCODING 66
SWIDTH 630 0
DWIDTH 20 0
BBX 16 22 2 0
BITMAP
FFF0
FFFC
FFFE
F01E
F00F
F00F
F00F
F01E
F03E
FFFC
FFF8
FFFE
F01E
F00F
F00F
F00F
F00F
F00F
F01F
FFFE
FFFC
FFF0
ENDCHAR
STARTCHAR C
ENCODING 67
SWIDTH 652 0
DWIDTH 20 0
BBX 18 22 1 0
BITMAP
03F800
0FFE00
1FFF00
3E0F80
3C0780
7803C0
7803C0
700000
F00000
F00000
F00000
F00000
F00000
F00000
700000
7803C0
7803C0
3C0780
3E0F80
1FFF00
0FFE00
03F800
ENDCHAR
STARTCHAR D
ENCODING 68
SWIDTH 653 0
DWIDTH 20 0
BBX 17 22 2 0
BITMAP
FFC000
FFF000
FFF800
F07C00
F01E00
F00F00
F00F00
F00F00
F00700
F00780
F00780
F00780
F00780
F00700
F00F00
F00F00
F01F00
F01E00
F07C00
FFF800
FFF000
FFC000
ENDCHAR
STARTCHAR E
ENCODING 69
SWIDTH 565 0
DWIDTH 18 0
BBX 15 22 2 0
BITMAP
FFFE
FFFE
FFFE
F000
F000
F000
F000
F000
F000
FFF8
FFF8
FFF8
F000
F000
F000
F000
F000
F000
F000
FFFE
FFFE
FFFE
ENDCHAR
STARTCHAR F
ENCODING 70
SWIDTH 549 0
DWIDTH 17 0
BBX 14 22 2 0
BITMAP
FFFC
FFFC
FFFC
F000
F000
F000
F000
F000
F000
F000
FFF8
FFF8
FFF8
F000
F000
F000
F000
F000
F000
F000
F000
F000
ENDCHAR
STARTCHAR G
ENCODING 71
SWIDTH 680 0
DWIDTH 21 0
BBX 17 22 2 0
BITMAP
07F000
1FFC00
3FFE00
7C1F00
780F00
F00780
F00780
F00000
F00000
E00000
E00000
E07F80
E07F80
F07F80
F00780
F00780
F80780
780780
7E0F80
3FFF80
0FFE00
03F800
ENDCHAR
STARTCHAR H
ENCODING 72
SWIDTH 710 0
DWIDTH 22 0
BBX 18 22 2 0
BITMAP
F003C0
F003C0
F003C0
F003C0
F003C0
F003C0
F003C0
F003C0
F003C0
FFFFC0
FFFFC0
FFFFC0
F003C0
F003C0
F003C0
F003C0
F003C0
F003C0
F003C0
F003C0
F003C0
F003C0
ENDCHAR
STARTCHAR I
ENCODING 73
SWIDTH 282 0
DWIDTH 9 0
BBX 4 22 2 0
BITMAP
F0
F0
F0
F0
F0
F0
F0
F0
F0
F0
F0
F0
F0
F0
F0
F0
F0
F0
F0
F0
F0
F0
ENDCHAR
STARTCHAR J
ENCODING 74
SWIDTH 555 0
DWIDTH 17 0
BBX 14 22 1 0
BITMAP
003C
003C
003C
003C
003C
003C
003C
003C
003C
003C
003C
003C
003C
003C
003C
E03C
E03C
F03C
F878
7FF8
3FF0
0FC0
ENDCHAR
STARTCHAR K
ENCODING 75
SWIDTH 630 0
DWIDTH 20 0
BBX 18 22 2 0
BITMAP
F00F80
F01F00
F01E00
F03C00
F07C00
F0F800
F1F000
F3E000
F3C000
F78000
FFC000
FFC000
FFE000
FDF000
F8F000
F07800
F07C00
F03E00
F01E00
F01F00
F00F80
F007C0
ENDCHAR
STARTCHAR L
ENCODING 76
SWIDTH 541 0
DWIDTH 17 0
BBX 14 22 2 0
BITMAP
F000
F000
F000
F000
F000
F000
F000
F000
F000
F000
F000
F000
F000
F000
F000
F000
F000
F000
F000
FFFC
FFFC
FFFC
ENDCHAR
STARTCHAR M
ENCODING 77
SWIDTH 875 0
DWIDTH 27 0
BBX 23 22 2 0
BITMAP
F8003E
FC007E
FC007E
FE007E
FE00FE
FE00FE
FF01FE
F701DE
F701DE
F783DE
F3839E
F3C39E
F1C79E
F1C71E
F1EF1E
F0EE1E
F0EE1E
F0FE1E
F07C1E
F07C1E
F03C1E
F0381E
ENDCHAR
STARTCHAR N
ENCODING 78
SWIDTH 709 0
DWIDTH 22 0
BBX 18 22 2 0
BITMAP
F003C0
F803C0
FC03C0
FC03C0
FE03C0
FF03C0
FF03C0
F783C0
F783C0
F3C3C0
F1E3C0
F1E3C0
F0F3C0
F07BC0
F07BC0
F03FC0
F03FC0
F01FC0
F00FC0
F00FC0
F007C0
F003C0
ENDCHAR
STARTCHAR O
ENCODING 79
SWIDTH 690 0
DWIDTH 21 0
BBX 19 22 1 0
BITMAP
03F800
0FFE00
1FFF00
3E0F80
3C0780
7803C0
7803C0
7003C0
F001C0
F001E0
F001E0
F001E0
F001E0
F001E0
7003C0
7803C0
7803C0
3C0780
3E0F80
1FFF00
0FFE00
03F800
ENDCHAR
STARTCHAR P
ENCODING 80
SWIDTH 639 0
DWIDTH 20 0
BBX 17 22 2 0
BITMAP
FFF000
FFFC00
FFFE00
F01F00
F00F00
F00780
F00780
F00780
F00780
F00F00
F01F00
FFFE00
FFFC00
FFF000
F00000
F00000
F00000
F00000
F00000
F00000
F00000
F00000
ENDCHAR
STARTCHAR Q
ENCODING 81
SWIDTH 690 0
DWIDTH 21 0
BBX 19 26 1 -4
BITMAP
03F800
0FFE00
1FFF00
3E0F80
3C0780
7803C0
7803C0
7003C0
F001C0
F001E0
F001E0
F001E0
F001E0
F001C0
7003C0
7803C0
7803C0
3C0780
3E0F80
1FFF00
0FFE00
03FF00
000FC0
0003E0
000180
000100
ENDCHAR
STARTCHAR R
ENCODING 82
SWIDTH 624 0
DWIDTH 19 0
BBX 17 22 2 0
BITMAP
FFE000
FFFC00
FFFE00
F03E00
F01F00
F00F00
F00F00
F00F00
F01E00
F03E00
FFFC00
FFF800
FFF000
F0F000
F07800
F07800
F03C00
F03C00
F01E00
F01F00
F00F00
F00F80
ENDCHAR
STARTCHAR S
ENCODING 83
SWIDTH 603 0
DWIDTH 19 0
BBX 17 22 1 0
BITMAP
07F000
1FFC00
3FFE00
3C1F00
780F00
780780
780780
780000
3E0000
3FC000
0FF000
07FC00
00FE00
001F00
000F80
F00780
F00780
780780
7C1F00
3FFF00
1FFE00
07F000
ENDCHAR
STARTCHAR T
ENCODING 84
SWIDTH 606 0
DWIDTH 19 0
BBX 17 22 1 0
BITMAP
FFFF80
FFFF80
FFFF80
03C000
03C000
03C000
03C000
03C000
03C000
03C000
03C000
03C000
03C000
03C000
03C000
03C000
03C000
03C000
03C000
03C000
03C000
03C000
ENDCHAR
STARTCHAR U
ENCODING 85
SWIDTH 651 0
DWIDTH 20 0
BBX 16 22 2 0
BITMAP
F00F
F00F
F00F
F00F
F00F
F00F
F00F
F00F
F00F
F00F
F00F
F00F
F00F
F00F
F00F
F00F
F00F
F00F
7C3E
7FFE
1FF8
07E0
ENDCHAR
STARTCHAR V
ENCODING 86
SWIDTH 646 0
DWIDTH 20 0
BBX 20 22 0 0
BITMAP
F801F0
7801E0
7801E0
7C03E0
3C03C0
3C03C0
1E0780
1E0780
1E0780
0F0F00
0F0F00
0F0F00
070E00
079E00
079E00
039C00
03FC00
01F800
01F800
01F800
00F000
00F000
ENDCHAR
STARTCHAR W
ENCODING 87
SWIDTH 879 0
DWIDTH 27 0
BBX 26 22 1 0
BITMAP
F01C03C0
F01E0780
F03E0780
F03E0780
703E0780
783F0700
78770F00
78770F00
38770F00
38738E00
3CE38E00
3CE39E00
3CE39E00
1CE1DC00
1DC1DC00
1FC1DC00
1FC1FC00
0FC0FC00
0F80F800
0F80F800
0F80F800
07007800
ENDCHAR
STARTCHAR X
ENCODING 88
SWIDTH 632 0
DWIDTH 20 0
BBX 18 22 1 0
BITMAP
F007C0
780780
7C0F00
3C1F00
1E1E00
1E3E00
0F3C00
0FF800
07F800
03F000
03E000
03F000
07F000
07F800
0FF800
0F3C00
1E3E00
3E1E00
3C1F00
7C0F80
780780
F007C0
ENDCHAR
STARTCHAR Y
ENCODING 89
SWIDTH 609 0
DWIDTH 19 0
BBX 19 22 0 0
BITMAP
F803E0
7803C0
7C0780
3C0780
3E0F00
1E0F00
0F1E00
0F1E00
07BC00
07BC00
03F800
03F800
01F000
01F000
00E000
00E000
00E000
00E000
00E000
00E000
00E000
00E000
ENDCHAR
STARTCHAR Z
ENCODING 90
SWIDTH 602 0
DWIDTH 19 0
BBX 17 22 1 0
BITMAP
FFFF00
FFFF00
FFFF00
001E00
001E00
003C00
007800
007800
00F000
01E000
03E000
03C000
078000
0F8000
0F0000
1E0000
3E0000
3C0000
780000
FFFF80
FFFF80
FFFF80
ENDCHAR
STARTCHAR bracketleft
ENCODING 91
SWIDTH 273 0
DWIDTH 8 0
BBX 6 30 2 -5
BITMAP
FC
FC
FC
F0
F0
F0
F0
F0
F0
F0
F0
F0
F0
F0
F0
F0
F0
F0
F0
F0
F0
F0
F0
F0
F0
F0
F0
FC
FC
FC
ENDCHAR
STARTCHAR backslash
ENCODING 92
SWIDTH 417 0
DWIDTH 13 0
BBX 13 24 0 -2
BITMAP
F000
7800
7800
3800
3C00
3C00
1C00
1E00
0E00
0F00
0F00
0700
0780
0780
03C0
03C0
01C0
01E0
01E0
00E0
00F0
0070
0078
0078
ENDCHAR
STARTCHAR bracketright
ENCODING 93
SWIDTH 273 0
DWIDTH 8 0
BBX 6 30 0 -5
BITMAP
FC
FC
FC
1C
1C
1C
1C
1C
1C
1C
1C
1C
1C
1C
1C
1C
1C
1C
1C
1C
1C
1C
1C
1C
1C
1C
1C
FC
FC
FC
ENDCHAR
STARTCHAR asciicircum
ENCODING 94
SWIDTH 427 0
DWIDTH 13 0
BBX 11 11 1 11
BITMAP
0E00
0E00
1F00
1F00
3B80
3B80
3B80
71C0
71C0
E0E0
E0E0
ENDCHAR
STARTCHAR underscore
ENCODING 95
SWIDTH 451 0
DWIDTH 14 0
BBX 14 3 0 -3
BITMAP
FFFC
FFFC
FFFC
ENDCHAR
STARTCHAR grave
ENCODING 96
SWIDTH 322 0
DWIDTH 10 0
BBX 7 5 1 19
BITMAP
F0
78
3C
1C
1E
ENDCHAR
STARTCHAR a
ENCODING 97
SWIDTH 541 0
DWIDTH 17 0
BBX 15 17 1 0
BITMAP
07E0
1FF0
3FF8
7C7C
783C
003C
003C
0FFC
3FFC
7FFC
783C
F03C
F03C
787C
7FFC
3FFC
1F9E
ENDCHAR
STARTCHAR b
ENCODING 98
SWIDTH 562 0
DWIDTH 17 0
BBX 14 23 2 0
BITMAP
E000
E000
E000
E000
E000
E000
E7C0
EFF0
FFF8
F8F8
F078
E03C
E03C
E03C
E03C
E03C
E03C
E03C
F078
F878
FFF0
EFF0
E7C0
ENDCHAR
STARTCHAR c
ENCODING 99
SWIDTH 523 0
DWIDTH 16 0
BBX 14 17 1 0
BITMAP
07C0
1FF0
3FF8
7C7C
783C
F01C
F000
F000
F000
F000
F000
F01C
783C
7C7C
3FF8
1FF0
07C0
ENDCHAR
STARTCHAR d
ENCODING 100
SWIDTH 564 0
DWIDTH 18 0
BBX 15 23 1 0
BITMAP
001E
001E
001E
001E
001E
001E
0F9E
1FFE
3FFE
7C3E
781E
781E
701E
F01E
F01E
F01E
701E
781E
781E
7C3E
3FFE
1FFE
0F9E
ENDCHAR
STARTCHAR e
ENCODING 101
SWIDTH 536 0
DWIDTH 17 0
BBX 15 17 1 0
BITMAP
07E0
1FF8
3FF8
3C3C
781C
701E
7FFE
FFFE
FFFE
F000
7000
7800
7808
3E1C
3FFE
1FF8
07E0
ENDCHAR
STARTCHAR f
ENCODING 102
SWIDTH 354 0
DWIDTH 11 0
BBX 10 24 1 0
BITMAP
07C0
0FC0
1FC0
3E00
3C00
3C00
3C00
FF80
FF80
FF80
3C00
3C00
3C00
3C00
3C00
3C00
3C00
3C00
3C00
3C00
3C00
3C00
3C00
3C00
ENDCHAR
STARTCHAR g
ENCODING 103
SWIDTH 566 0
DWIDTH 18 0
BBX 15 23 1 -6
BITMAP
07CE
1FFE
3FFE
7C3E
781E
781E
701E
F01E
F01E
F01E
701E
781E
781E
7C3E
3FFE
1FFE
0FDE
001E
201E
383C
7FF8
1FF0
07E0
ENDCHAR
STARTCHAR h
ENCODING 104
SWIDTH 555 0
DWIDTH 17 0
BBX 13 23 2 0
BITMAP
E000
E000
E000
E000
E000
E000
E3E0
EFF0
FFF8
F878
F078
E038
E038
E038
E038
E038
E038
E038
E038
E038
E038
E038
E038
ENDCHAR
STARTCHAR i
ENCODING 105
SWIDTH 255 0
DWIDTH 8 0
BBX 4 23 2 0
BITMAP
60
F0
F0
60
00
00
F0
F0
F0
F0
F0
F0
F0
F0
F0
F0
F0
F0
F0
F0
F0
F0
F0
ENDCHAR
STARTCHAR j
ENCODING 106
SWIDTH 250 0
DWIDTH 8 0
BBX 7 29 -1 -6
BITMAP
1C
1E
1E
1C
00
00
1E
1E
1E
1E
1E
1E
1E
1E
1E
1E
1E
1E
1E
1E
1E
1E
1E
1E
1E
1E
FC
FC
F0
ENDCHAR
STARTCHAR k
ENCODING 107
SWIDTH 521 0
DWIDTH 16 0
BBX 14 24 2 0
BITMAP
F000
F000
F000
F000
F000
F000
F000
F07C
F0F0
F1F0
F3E0
F7C0
F780
FF00
FF00
FF80
FF80
F3C0
F3E0
F1E0
F0F0
F0F8
F078
F03C
ENDCHAR
STARTCHAR l
ENCODING 108
SWIDTH 255 0
DWIDTH 8 0
BBX 4 24 2 0
BITMAP
F0
F0
F0
F0
F0
F0
F0
F0
F0
F0
F0
F0
F0
F0
F0
F0
F0
F0
F0
F0
F0
F0
F0
F0
ENDCHAR
STARTCHAR m
ENCODING 109
SWIDTH 870 0
DWIDTH 27 0
BBX 23 17 2 0
BITMAP
E3E1F0
EFF3FC
FFFFFC
F87E3E
F07C1E
F0381E
F0381E
F0381E
F0381E
F0381E
F0381E
F0381E
F0381E
F0381E
F0381E
F0381E
F0381E
ENDCHAR
STARTCHAR n
ENCODING 110
SWIDTH 556 0
DWIDTH 17 0
BBX 13 17 2 0
BITMAP
E3E0
EFF0
FFF8
F878
F078
E038
E038
E038
E038
E038
E038
E038
E038
E038
E038
E038
E038
ENDCHAR
STARTCHAR o
ENCODING 111
SWIDTH 569 0
DWIDTH 18 0
BBX 16 17 1 0
BITMAP
07E0
1FF8
3FFC
3C3C
781E
781E
700E
F00F
F00F
F00F
700E
781E
781E
3C3C
3FFC
1FF8
07E0
ENDCHAR
STARTCHAR p
ENCODING 112
SWIDTH 562 0
DWIDTH 17 0
BBX 14 23 2 -6
BITMAP
E7C0
EFF0
FFF0
F8F8
F078
E03C
E03C
E03C
E03C
E03C
E03C
E03C
F078
F8F8
FFF0
EFF0
E7C0
E000
E000
E000
E000
E000
E000
ENDCHAR
STARTCHAR q
ENCODING 113
SWIDTH 567 0
DWIDTH 18 0
BBX 15 23 1 -6
BITMAP
0F9E
1FFE
3FFE
7C3E
781E
781E
701E
F01E
F01E
F01E
701E
781E
781E
7C3E
3FFE
1FFE
0F9E
001E
001E
001E
001E
001E
001E
ENDCHAR
STARTCHAR r
ENCODING 114
SWIDTH 351 0
DWIDTH 11 0
BBX 9 17 2 0
BITMAP
E780
EF80
FF80
F800
F000
F000
F000
F000
F000
F000
F000
F000
F000
F000
F000
F000
F000
ENDCHAR
STARTCHAR s
ENCODING 115
SWIDTH 516 0
DWIDTH 16 0
BBX 14 17 1 0
BITMAP
0FC0
3FF0
7FF8
7878
7038
7004
7C00
3F80
1FF0
07F8
0078
F03C
F03C
7878
7FF8
3FF0
0FC0
ENDCHAR
STARTCHAR t
ENCODING 116
SWIDTH 332 0
DWIDTH 10 0
BBX 9 21 0 0
BITMAP
1C00
1C00
1C00
1C00
FF80
FF80
FF80
1C00
1C00
1C00
1C00
1C00
1C00
1C00
1C00
1C00
1C00
1E00
1F80
1F80
0F80
ENDCHAR
STARTCHAR u
ENCODING 117
SWIDTH 555 0
DWIDTH 17 0
BBX 13 17 2 0
BITMAP
E038
E038
E038
E038
E038
E038
E038
E038
E038
E038
E038
E038
F078
F0F8
FFF8
7FB8
3F38
ENDCHAR
STARTCHAR v
ENCODING 118
SWIDTH 494 0
DWIDTH 15 0
BBX 15 17 0 0
BITMAP
F01E
701C
783C
783C
3838
3C78
3C78
1C70
1C70
1EF0
0EE0
0EE0
0FE0
07C0
07C0
07C0
0380
ENDCHAR
STARTCHAR w
ENCODING 119
SWIDTH 743 0
DWIDTH 23 0
BBX 22 17 0 0
BITMAP
F0381C
70381C
787C3C
787C3C
387C38
38FC38
3CEE78
3CEE78
1CEE70
1DC770
1DC770
0FC7E0
0F83E0
0F83E0
0F83E0
0703C0
0701C0
ENDCHAR
STARTCHAR x
ENCODING 120
SWIDTH 502 0
DWIDTH 16 0
BBX 15 17 0 0
BITMAP
781E
3C3C
3C78
1E78
1EF0
0FF0
07E0
07C0
03C0
07E0
0FE0
0FF0
1E70
1E78
3C3C
783C
F81E
ENDCHAR
STARTCHAR y
ENCODING 121
SWIDTH 486 0
DWIDTH 15 0
BBX 15 23 0 -6
BITMAP
F01E
783C
783C
783C
3838
3C78
3C78
1C70
1EF0
1EF0
0EE0
0FE0
07E0
07C0
07C0
0380
0380
0780
0700
0F00
7F00
7E00
7800
ENDCHAR
STARTCHAR z
ENCODING 122
SWIDTH 502 0
DWIDTH 16 0
BBX 14 17 1 0
BITMAP
FFF8
FFF8
FFF8
00F0
01F0
01E0
03C0
07C0
0780
0F00
1E00
3E00
3C00
7800
FFFC
FFFC
FFFC
ENDCHAR
STARTCHAR braceleft
ENCODING 123
SWIDTH 335 0
DWIDTH 10 0
BBX 9 29 1 -5
BITMAP
0100
0780
0F00
1E00
1C00
1C00
1C00
1C00
1C00
1C00
1C00
3C00
7800
F800
E000
F800
7800
3C00
1C00
1C00
1C00
1C00
1C00
1C00
1C00
1E00
0F00
0780
0100
ENDCHAR
STARTCHAR bar
ENCODING 124
SWIDTH 250 0
DWIDTH 8 0
BBX 2 26 3 -4
BITMAP
C0
C0
C0
C0
C0
C0
C0
C0
C0
C0
C0
C0
C0
C0
C0
C0
C0
C0
C0
C0
C0
C0
C0
C0
C0
C0
ENDCHAR
STARTCHAR braceright
ENCODING 125
SWIDTH 335 0
DWIDTH 10 0
BBX 9 29 0 -5
BITMAP
4000
F000
7800
3C00
1C00
1C00
1C00
1C00
1C00
1C00
1C00
1E00
1E00
0F80
0380
0F80
1E00
1E00
1C00
1C00
1C00
1C00
1C00
1C00
1C00
3C00
7800
F000
4000
ENDCHAR
STARTCHAR asciitilde
ENCODING 126
SWIDTH 664 0
DWIDTH 21 0
BBX 17 6 2 6
BITMAP
1E0380
7F8380
7FC780
F1FF00
E0FF00
003C00
ENDCHAR
STARTCHAR degree
ENCODING 176
SWIDTH 379 0
DWIDTH 12 0
BBX 8 8 2 14
BITMAP
3C
7E
E7
C3
C3
E7
7E
3C
ENDCHAR
ENDFONT
