STARTFONT 2.1
FONT -FontForge-Roboto-Book-R-Normal--17-120-100-100-P-87-ISO10646-1
SIZE 12 100 100
FONTBOUNDINGBOX 16 18 -1 -4
COMMENT "Generated by fontforge, http://fontforge.sourceforge.net"
COMMENT "Copyright 2011 Google Inc. All Rights Reserved."
STARTPROPERTIES 40
FOUNDRY "FontForge"
FAMILY_NAME "Roboto"
WEIGHT_NAME "Book"
SLANT "R"
SETWIDTH_NAME "Normal"
ADD_STYLE_NAME ""
PIXEL_SIZE 17
POINT_SIZE 120
RESOLUTION_X 100
RESOLUTION_Y 100
SPACING "P"
AVERAGE_WIDTH 87
CHARSET_REGISTRY "ISO10646"
CHARSET_ENCODING "1"
FONTNAME_REGISTRY ""
CHARSET_COLLECTIONS "ISO10646-1"
FONT_NAME "Roboto-Regular"
FACE_NAME "Roboto"
COPYRIGHT "Copyright 2011 Google Inc. All Rights Reserved."
FONT_VERSION "2.137; 2017"
FONT_ASCENT 13
FONT_DESCENT 4
UNDERLINE_POSITION -2
UNDERLINE_THICKNESS 1
X_HEIGHT 8
CAP_HEIGHT 11
RAW_ASCENT 750
RAW_DESCENT 250
NORM_SPACE 4
RELATIVE_WEIGHT 40
RELATIVE_SETWIDTH 50
SUPERSCRIPT_X 0
SUPERSCRIPT_Y 8
SUPERSCRIPT_SIZE 11
SUBSCRIPT_X 0
SUBSCRIPT_Y 2
SUBSCRIPT_SIZE 11
FIGURE_WIDTH 10
AVG_LOWERCASE_WIDTH 85
AVG_UPPERCASE_WIDTH 108
ENDPROPERTIES
CHARS 96
STARTCHAR space
ENCODING 32
SWIDTH 247 0
DWIDTH 4 0
BBX 1 1 0 0
BITMAP
00
ENDCHAR
STARTCHAR exclam
ENCODING 33
SWIDTH 257 0
DWIDTH 4 0
BBX 2 12 1 0
BITMAP
C0
C0
C0
C0
C0
C0
C0
C0
00
00
C0
C0
ENDCHAR
STARTCHAR quotedbl
ENCODING 34
SWIDTH 319 0
DWIDTH 5 0
BBX 4 4 1 9
BITMAP
B0
B0
A0
A0
ENDCHAR
STARTCHAR numbersign
ENCODING 35
SWIDTH 615 0
DWIDTH 10 0
BBX 9 12 1 0
BITMAP
0900
1900
1300
7F80
1200
3200
2200
FF80
2400
2400
2400
6400
ENDCHAR
STARTCHAR dollar
ENCODING 36
SWIDTH 561 0
DWIDTH 10 0
BBX 8 16 1 -2
BITMAP
18
18
3C
46
C2
C3
40
70
1C
06
83
C3
C6
3C
10
10
ENDCHAR
STARTCHAR percent
ENCODING 37
SWIDTH 732 0
DWIDTH 12 0
BBX 11 12 1 0
BITMAP
7000
9980
8900
8A00
9A00
7400
0DC0
0A60
1220
3220
2260
01C0
ENDCHAR
STARTCHAR ampersand
ENCODING 38
SWIDTH 621 0
DWIDTH 11 0
BBX 10 12 1 0
BITMAP
3C00
6600
4600
6600
6C00
3000
7980
CD80
8780
8300
C700
3DC0
ENDCHAR
STARTCHAR quotesingle
ENCODING 39
SWIDTH 174 0
DWIDTH 3 0
BBX 1 4 1 9
BITMAP
80
80
80
80
ENDCHAR
STARTCHAR parenleft
ENCODING 40
SWIDTH 341 0
DWIDTH 6 0
BBX 4 18 1 -4
BITMAP
10
10
20
60
40
40
C0
C0
C0
C0
C0
C0
40
40
60
20
10
10
ENDCHAR
STARTCHAR parenright
ENCODING 41
SWIDTH 347 0
DWIDTH 6 0
BBX 5 18 0 -4
BITMAP
80
40
20
30
30
10
10
18
18
18
18
10
10
10
30
20
40
80
ENDCHAR
STARTCHAR asterisk
ENCODING 42
SWIDTH 430 0
DWIDTH 7 0
BBX 7 7 0 5
BITMAP
10
10
FE
18
28
6C
08
ENDCHAR
STARTCHAR plus
ENCODING 43
SWIDTH 566 0
DWIDTH 10 0
BBX 8 9 1 1
BITMAP
18
18
18
18
FF
18
18
18
18
ENDCHAR
STARTCHAR comma
ENCODING 44
SWIDTH 196 0
DWIDTH 3 0
BBX 3 4 0 -2
BITMAP
60
60
40
C0
ENDCHAR
STARTCHAR hyphen
ENCODING 45
SWIDTH 275 0
DWIDTH 5 0
BBX 4 1 0 5
BITMAP
F0
ENDCHAR
STARTCHAR period
ENCODING 46
SWIDTH 263 0
DWIDTH 4 0
BBX 2 2 1 0
BITMAP
C0
C0
ENDCHAR
STARTCHAR slash
ENCODING 47
SWIDTH 412 0
DWIDTH 7 0
BBX 7 13 0 -1
BITMAP
06
04
0C
08
18
10
10
30
20
20
40
40
C0
ENDCHAR
STARTCHAR zero
ENCODING 48
SWIDTH 561 0
DWIDTH 10 0
BBX 8 12 1 0
BITMAP
3C
46
C2
C2
83
83
83
83
C2
C2
46
3C
ENDCHAR
STARTCHAR one
ENCODING 49
SWIDTH 561 0
DWIDTH 10 0
BBX 5 12 1 0
BITMAP
08
38
D8
18
18
18
18
18
18
18
18
18
ENDCHAR
STARTCHAR two
ENCODING 50
SWIDTH 561 0
DWIDTH 10 0
BBX 8 12 1 0
BITMAP
3C
C6
C2
82
02
06
0C
18
30
60
40
FF
ENDCHAR
STARTCHAR three
ENCODING 51
SWIDTH 561 0
DWIDTH 10 0
BBX 7 12 1 0
BITMAP
3C
C6
C2
02
06
38
06
02
02
82
C6
7C
ENDCHAR
STARTCHAR four
ENCODING 52
SWIDTH 561 0
DWIDTH 10 0
BBX 9 12 0 0
BITMAP
0200
0600
0E00
0A00
1200
3200
2200
6200
FF80
0200
0200
0200
ENDCHAR
STARTCHAR five
ENCODING 53
SWIDTH 561 0
DWIDTH 10 0
BBX 8 12 1 0
BITMAP
7F
60
40
40
7C
46
03
03
03
C3
66
3C
ENDCHAR
STARTCHAR six
ENCODING 54
SWIDTH 561 0
DWIDTH 10 0
BBX 8 12 1 0
BITMAP
1C
30
60
40
FC
E6
C3
C3
C3
C3
66
3C
ENDCHAR
STARTCHAR seven
ENCODING 55
SWIDTH 561 0
DWIDTH 10 0
BBX 8 12 1 0
BITMAP
FF
02
02
06
04
0C
08
18
10
30
20
60
ENDCHAR
STARTCHAR eight
ENCODING 56
SWIDTH 561 0
DWIDTH 10 0
BBX 8 12 1 0
BITMAP
3C
46
C2
C2
46
3C
46
C2
83
C2
46
3C
ENDCHAR
STARTCHAR nine
ENCODING 57
SWIDTH 561 0
DWIDTH 10 0
BBX 7 12 1 0
BITMAP
38
46
C2
82
82
C2
C6
7A
02
06
0C
30
ENDCHAR
STARTCHAR colon
ENCODING 58
SWIDTH 242 0
DWIDTH 4 0
BBX 2 9 1 0
BITMAP
C0
C0
00
00
00
00
00
C0
C0
ENDCHAR
STARTCHAR semicolon
ENCODING 59
SWIDTH 211 0
DWIDTH 4 0
BBX 3 11 0 -2
BITMAP
60
60
00
00
00
00
00
60
60
40
C0
ENDCHAR
STARTCHAR less
ENCODING 60
SWIDTH 508 0
DWIDTH 9 0
BBX 6 7 1 2
BITMAP
04
1C
70
80
70
1C
04
ENDCHAR
STARTCHAR equal
ENCODING 61
SWIDTH 548 0
DWIDTH 9 0
BBX 7 4 1 4
BITMAP
FE
00
00
FE
ENDCHAR
STARTCHAR greater
ENCODING 62
SWIDTH 522 0
DWIDTH 9 0
BBX 7 7 1 2
BITMAP
80
F0
1C
02
1C
F0
80
ENDCHAR
STARTCHAR question
ENCODING 63
SWIDTH 472 0
DWIDTH 8 0
BBX 6 12 1 0
BITMAP
78
CC
84
04
0C
18
30
30
00
00
30
30
ENDCHAR
STARTCHAR at
ENCODING 64
SWIDTH 897 0
DWIDTH 15 0
BBX 13 16 1 -4
BITMAP
0FC0
1820
2010
4008
4388
C4C8
8888
8888
8888
8888
8988
CE70
4000
6000
3080
0FC0
ENDCHAR
STARTCHAR A
ENCODING 65
SWIDTH 652 0
DWIDTH 11 0
BBX 11 12 0 0
BITMAP
0400
0E00
0A00
1B00
1B00
1100
3180
3180
3F80
60C0
4040
C060
ENDCHAR
STARTCHAR B
ENCODING 66
SWIDTH 622 0
DWIDTH 11 0
BBX 9 12 1 0
BITMAP
FE00
C300
C100
C100
C300
FE00
C300
C180
C180
C100
C300
FE00
ENDCHAR
STARTCHAR C
ENCODING 67
SWIDTH 650 0
DWIDTH 11 0
BBX 9 12 1 0
BITMAP
1E00
6100
4180
C080
C000
C000
C000
C000
C080
4180
6100
1E00
ENDCHAR
STARTCHAR D
ENCODING 68
SWIDTH 655 0
DWIDTH 11 0
BBX 9 12 1 0
BITMAP
FC00
C300
C100
C180
C180
C080
C080
C180
C180
C100
C300
FC00
ENDCHAR
STARTCHAR E
ENCODING 69
SWIDTH 568 0
DWIDTH 10 0
BBX 8 12 1 0
BITMAP
FF
C0
C0
C0
C0
FE
C0
C0
C0
C0
C0
FF
ENDCHAR
STARTCHAR F
ENCODING 70
SWIDTH 552 0
DWIDTH 9 0
BBX 8 12 1 0
BITMAP
FF
C0
C0
C0
C0
FE
C0
C0
C0
C0
C0
C0
ENDCHAR
STARTCHAR G
ENCODING 71
SWIDTH 681 0
DWIDTH 12 0
BBX 9 12 1 0
BITMAP
1E00
6100
4180
C080
C000
C000
C780
C080
C080
4080
6180
1F00
ENDCHAR
STARTCHAR H
ENCODING 72
SWIDTH 712 0
DWIDTH 12 0
BBX 10 12 1 0
BITMAP
C0C0
C0C0
C0C0
C0C0
C0C0
FFC0
C0C0
C0C0
C0C0
C0C0
C0C0
C0C0
ENDCHAR
STARTCHAR I
ENCODING 73
SWIDTH 271 0
DWIDTH 5 0
BBX 1 12 2 0
BITMAP
80
80
80
80
80
80
80
80
80
80
80
80
ENDCHAR
STARTCHAR J
ENCODING 74
SWIDTH 551 0
DWIDTH 9 0
BBX 8 12 0 0
BITMAP
03
03
03
03
03
03
03
03
C3
43
62
3C
ENDCHAR
STARTCHAR K
ENCODING 75
SWIDTH 626 0
DWIDTH 11 0
BBX 10 12 1 0
BITMAP
C180
C300
C600
CC00
D800
D800
E800
C400
C600
C300
C180
C1C0
ENDCHAR
STARTCHAR L
ENCODING 76
SWIDTH 538 0
DWIDTH 9 0
BBX 8 12 1 0
BITMAP
C0
C0
C0
C0
C0
C0
C0
C0
C0
C0
C0
FF
ENDCHAR
STARTCHAR M
ENCODING 77
SWIDTH 873 0
DWIDTH 15 0
BBX 12 12 1 0
BITMAP
E030
E030
E070
F050
D050
D8D0
C890
C990
CD10
C510
C710
C210
ENDCHAR
STARTCHAR N
ENCODING 78
SWIDTH 712 0
DWIDTH 12 0
BBX 10 12 1 0
BITMAP
C0C0
E0C0
F0C0
F0C0
D8C0
CCC0
CCC0
C6C0
C3C0
C3C0
C1C0
C0C0
ENDCHAR
STARTCHAR O
ENCODING 79
SWIDTH 687 0
DWIDTH 12 0
BBX 10 12 1 0
BITMAP
1E00
6100
4180
C080
C0C0
C0C0
C0C0
C0C0
C080
4180
6100
1E00
ENDCHAR
STARTCHAR P
ENCODING 80
SWIDTH 630 0
DWIDTH 11 0
BBX 8 12 2 0
BITMAP
FC
83
83
81
81
83
FE
80
80
80
80
80
ENDCHAR
STARTCHAR Q
ENCODING 81
SWIDTH 687 0
DWIDTH 12 0
BBX 10 14 1 -2
BITMAP
1E00
6100
4080
C0C0
C0C0
C0C0
C0C0
C0C0
C0C0
4080
6100
1F00
0180
00C0
ENDCHAR
STARTCHAR R
ENCODING 82
SWIDTH 615 0
DWIDTH 10 0
BBX 9 12 1 0
BITMAP
FE00
C300
C100
C100
C100
C300
FC00
C600
C600
C300
C300
C180
ENDCHAR
STARTCHAR S
ENCODING 83
SWIDTH 593 0
DWIDTH 10 0
BBX 8 12 1 0
BITMAP
3C
43
C1
C1
C0
70
1E
03
81
81
C3
3E
ENDCHAR
STARTCHAR T
ENCODING 84
SWIDTH 596 0
DWIDTH 10 0
BBX 10 12 0 0
BITMAP
FFC0
0C00
0C00
0C00
0C00
0C00
0C00
0C00
0C00
0C00
0C00
0C00
ENDCHAR
STARTCHAR U
ENCODING 85
SWIDTH 648 0
DWIDTH 11 0
BBX 9 12 1 0
BITMAP
C180
C180
C180
C180
C180
C180
C180
C180
C180
C180
6300
3E00
ENDCHAR
STARTCHAR V
ENCODING 86
SWIDTH 636 0
DWIDTH 11 0
BBX 11 12 0 0
BITMAP
C060
60C0
60C0
2080
3180
3180
1100
1B00
1B00
0A00
0E00
0400
ENDCHAR
STARTCHAR W
ENCODING 87
SWIDTH 887 0
DWIDTH 15 0
BBX 15 12 0 0
BITMAP
C106
4184
6384
628C
22CC
26C8
3648
3458
1478
1C30
1830
1830
ENDCHAR
STARTCHAR X
ENCODING 88
SWIDTH 626 0
DWIDTH 11 0
BBX 10 12 0 0
BITMAP
60C0
2180
3180
1B00
1A00
0E00
0E00
1A00
1300
3180
6180
E0C0
ENDCHAR
STARTCHAR Y
ENCODING 89
SWIDTH 600 0
DWIDTH 10 0
BBX 10 12 0 0
BITMAP
C0C0
6180
2180
3300
1300
1E00
0C00
0C00
0C00
0C00
0C00
0C00
ENDCHAR
STARTCHAR Z
ENCODING 90
SWIDTH 598 0
DWIDTH 10 0
BBX 9 12 1 0
BITMAP
FF00
0300
0600
0600
0C00
1800
1800
3000
6000
6000
C000
FF80
ENDCHAR
STARTCHAR bracketleft
ENCODING 91
SWIDTH 265 0
DWIDTH 5 0
BBX 3 17 1 -3
BITMAP
E0
C0
C0
C0
C0
C0
C0
C0
C0
C0
C0
C0
C0
C0
C0
C0
E0
ENDCHAR
STARTCHAR backslash
ENCODING 92
SWIDTH 410 0
DWIDTH 7 0
BBX 7 13 0 -1
BITMAP
C0
40
60
20
30
30
10
18
08
08
0C
04
06
ENDCHAR
STARTCHAR bracketright
ENCODING 93
SWIDTH 265 0
DWIDTH 5 0
BBX 3 17 0 -3
BITMAP
E0
20
20
20
20
20
20
20
20
20
20
20
20
20
20
20
E0
ENDCHAR
STARTCHAR asciicircum
ENCODING 94
SWIDTH 417 0
DWIDTH 7 0
BBX 7 6 0 6
BITMAP
10
38
28
28
6C
C6
ENDCHAR
STARTCHAR underscore
ENCODING 95
SWIDTH 451 0
DWIDTH 8 0
BBX 8 1 0 -1
BITMAP
FF
ENDCHAR
STARTCHAR grave
ENCODING 96
SWIDTH 309 0
DWIDTH 5 0
BBX 4 2 0 10
BITMAP
E0
30
ENDCHAR
STARTCHAR a
ENCODING 97
SWIDTH 543 0
DWIDTH 9 0
BBX 7 9 1 0
BITMAP
3C
C6
C6
06
7E
C6
86
C6
7E
ENDCHAR
STARTCHAR b
ENCODING 98
SWIDTH 561 0
DWIDTH 10 0
BBX 8 13 1 0
BITMAP
C0
C0
C0
C0
DC
E2
C3
C3
C3
C3
C3
E2
DC
ENDCHAR
STARTCHAR c
ENCODING 99
SWIDTH 523 0
DWIDTH 9 0
BBX 7 9 1 0
BITMAP
3C
46
C2
80
80
80
C2
46
3C
ENDCHAR
STARTCHAR d
ENCODING 100
SWIDTH 563 0
DWIDTH 10 0
BBX 8 13 1 0
BITMAP
03
03
03
03
3B
67
C3
C3
C3
C3
C3
67
3B
ENDCHAR
STARTCHAR e
ENCODING 101
SWIDTH 529 0
DWIDTH 9 0
BBX 7 9 1 0
BITMAP
3C
46
C2
82
FE
80
C0
42
3C
ENDCHAR
STARTCHAR f
ENCODING 102
SWIDTH 347 0
DWIDTH 6 0
BBX 5 13 1 0
BITMAP
38
60
60
60
F0
60
60
60
60
60
60
60
60
ENDCHAR
STARTCHAR g
ENCODING 103
SWIDTH 561 0
DWIDTH 10 0
BBX 8 12 1 -3
BITMAP
3B
67
C3
C3
C3
C3
C3
67
3B
02
46
BC
ENDCHAR
STARTCHAR h
ENCODING 104
SWIDTH 550 0
DWIDTH 9 0
BBX 7 13 1 0
BITMAP
C0
C0
C0
C0
FC
C6
C6
C6
C6
C6
C6
C6
C6
ENDCHAR
STARTCHAR i
ENCODING 105
SWIDTH 242 0
DWIDTH 4 0
BBX 2 13 1 0
BITMAP
C0
C0
00
00
C0
C0
C0
C0
C0
C0
C0
C0
C0
ENDCHAR
STARTCHAR j
ENCODING 106
SWIDTH 238 0
DWIDTH 4 0
BBX 4 16 -1 -3
BITMAP
30
30
00
00
30
30
30
30
30
30
30
30
30
30
30
E0
ENDCHAR
STARTCHAR k
ENCODING 107
SWIDTH 506 0
DWIDTH 9 0
BBX 8 13 1 0
BITMAP
C0
C0
C0
C0
C6
CC
D8
F0
F0
D8
CC
C4
C7
ENDCHAR
STARTCHAR l
ENCODING 108
SWIDTH 242 0
DWIDTH 4 0
BBX 2 13 1 0
BITMAP
C0
C0
C0
C0
C0
C0
C0
C0
C0
C0
C0
C0
C0
ENDCHAR
STARTCHAR m
ENCODING 109
SWIDTH 876 0
DWIDTH 15 0
BBX 13 9 1 0
BITMAP
FCF0
C718
C218
C218
C218
C218
C218
C218
C218
ENDCHAR
STARTCHAR n
ENCODING 110
SWIDTH 551 0
DWIDTH 9 0
BBX 7 9 1 0
BITMAP
BC
C6
C6
C6
C6
C6
C6
C6
C6
ENDCHAR
STARTCHAR o
ENCODING 111
SWIDTH 570 0
DWIDTH 10 0
BBX 8 9 1 0
BITMAP
3C
66
C3
C3
81
C3
C3
66
3C
ENDCHAR
STARTCHAR p
ENCODING 112
SWIDTH 561 0
DWIDTH 10 0
BBX 8 12 1 -3
BITMAP
DC
E6
C3
C3
C3
C3
C3
E6
DC
C0
C0
C0
ENDCHAR
STARTCHAR q
ENCODING 113
SWIDTH 568 0
DWIDTH 10 0
BBX 8 12 1 -3
BITMAP
3B
67
C3
C3
C3
C3
C3
67
3B
03
03
03
ENDCHAR
STARTCHAR r
ENCODING 114
SWIDTH 338 0
DWIDTH 6 0
BBX 5 9 1 0
BITMAP
F8
C0
C0
C0
C0
C0
C0
C0
C0
ENDCHAR
STARTCHAR s
ENCODING 115
SWIDTH 515 0
DWIDTH 9 0
BBX 7 9 1 0
BITMAP
7C
C6
C6
C0
38
06
86
C6
7C
ENDCHAR
STARTCHAR t
ENCODING 116
SWIDTH 326 0
DWIDTH 6 0
BBX 5 11 0 0
BITMAP
20
20
F8
20
20
20
20
20
20
30
18
ENDCHAR
STARTCHAR u
ENCODING 117
SWIDTH 551 0
DWIDTH 9 0
BBX 7 9 1 0
BITMAP
C6
C6
C6
C6
C6
C6
C6
C6
7A
ENDCHAR
STARTCHAR v
ENCODING 118
SWIDTH 484 0
DWIDTH 8 0
BBX 8 9 0 0
BITMAP
C3
42
66
66
24
3C
18
18
18
ENDCHAR
STARTCHAR w
ENCODING 119
SWIDTH 751 0
DWIDTH 13 0
BBX 12 9 0 0
BITMAP
C210
4710
6530
6520
2D20
28A0
38E0
18C0
10C0
ENDCHAR
STARTCHAR x
ENCODING 120
SWIDTH 495 0
DWIDTH 8 0
BBX 8 9 0 0
BITMAP
E3
66
34
1C
18
1C
34
66
C3
ENDCHAR
STARTCHAR y
ENCODING 121
SWIDTH 473 0
DWIDTH 8 0
BBX 8 12 0 -3
BITMAP
C3
42
66
66
24
3C
18
18
18
10
10
60
ENDCHAR
STARTCHAR z
ENCODING 122
SWIDTH 495 0
DWIDTH 8 0
BBX 7 9 1 0
BITMAP
FE
0C
08
18
30
20
60
C0
FE
ENDCHAR
STARTCHAR braceleft
ENCODING 123
SWIDTH 338 0
DWIDTH 6 0
BBX 5 16 1 -3
BITMAP
18
30
20
60
60
60
60
C0
60
60
60
60
60
20
30
18
ENDCHAR
STARTCHAR bar
ENCODING 124
SWIDTH 243 0
DWIDTH 4 0
BBX 2 14 1 -2
BITMAP
C0
C0
C0
C0
C0
C0
C0
C0
C0
C0
C0
C0
C0
C0
ENDCHAR
STARTCHAR braceright
ENCODING 125
SWIDTH 338 0
DWIDTH 6 0
BBX 5 16 0 -3
BITMAP
C0
60
20
30
30
30
30
08
30
30
30
30
30
20
60
C0
ENDCHAR
STARTCHAR asciitilde
ENCODING 126
SWIDTH 680 0
DWIDTH 12 0
BBX 10 3 1 4
BITMAP
78C0
4C80
C780
ENDCHAR
STARTCHAR degree
ENCODING 176
SWIDTH 373 0
DWIDTH 6 0
BBX 4 4 1 8
BITMAP
70
90
90
70
ENDCHAR
ENDFONT
