STARTFONT 2.1
FONT -FontForge-Roboto-Book-R-Normal--31-300-75-75-P-157-ISO10646-1
SIZE 30 75 75
FONTBOUNDINGBOX 28 32 -1 -7
COMMENT "Generated by fontforge, http://fontforge.sourceforge.net"
COMMENT "Copyright 2011 Google Inc. All Rights Reserved."
STARTPROPERTIES 40
FOUNDRY "FontForge"
FAMILY_NAME "Roboto"
WEIGHT_NAME "Book"
SLANT "R"
SETWIDTH_NAME "Normal"
ADD_STYLE_NAME ""
PIXEL_SIZE 31
POINT_SIZE 300
RESOLUTION_X 75
RESOLUTION_Y 75
SPACING "P"
AVERAGE_WIDTH 157
CHARSET_REGISTRY "ISO10646"
CHARSET_ENCODING "1"
FONTNAME_REGISTRY ""
CHARSET_COLLECTIONS "ISO10646-1"
FONT_NAME "Roboto-Regular"
FACE_NAME "Roboto"
COPYRIGHT "Copyright 2011 Google Inc. All Rights Reserved."
FONT_VERSION "2.137; 2017"
FONT_ASCENT 23
FONT_DESCENT 8
UNDERLINE_POSITION -3
UNDERLINE_THICKNESS 2
X_HEIGHT 16
CAP_HEIGHT 21
RAW_ASCENT 750
RAW_DESCENT 250
NORM_SPACE 8
RELATIVE_WEIGHT 40
RELATIVE_SETWIDTH 50
SUPERSCRIPT_X 0
SUPERSCRIPT_Y 14
SUPERSCRIPT_SIZE 20
SUBSCRIPT_X 0
SUBSCRIPT_Y 4
SUBSCRIPT_SIZE 20
FIGURE_WIDTH 17
AVG_LOWERCASE_WIDTH 153
AVG_UPPERCASE_WIDTH 196
ENDPROPERTIES
CHARS 96
STARTCHAR space
ENCODING 32
SWIDTH 247 0
DWIDTH 8 0
BBX 1 1 0 0
BITMAP
00
ENDCHAR
STARTCHAR exclam
ENCODING 33
SWIDTH 257 0
DWIDTH 8 0
BBX 4 22 2 0
BITMAP
60
60
60
60
60
60
60
60
60
60
60
60
60
60
60
60
00
00
00
60
F0
60
ENDCHAR
STARTCHAR quotedbl
ENCODING 34
SWIDTH 319 0
DWIDTH 10 0
BBX 6 7 2 16
BITMAP
CC
CC
CC
CC
CC
CC
CC
ENDCHAR
STARTCHAR numbersign
ENCODING 35
SWIDTH 615 0
DWIDTH 19 0
BBX 17 22 2 0
BITMAP
038600
030E00
030C00
030C00
030C00
070C00
7FFF80
7FFF80
061800
061800
0E3800
0C3000
0C3000
FFFF00
FFFF00
187000
187000
186000
186000
186000
386000
30E000
ENDCHAR
STARTCHAR dollar
ENCODING 36
SWIDTH 561 0
DWIDTH 17 0
BBX 14 28 2 -3
BITMAP
0300
0300
0300
0FC0
3FF0
7870
7038
6038
6018
601C
7000
7000
3C00
1F00
07E0
01F0
0078
0038
C01C
E01C
E01C
E038
7878
3FF0
0FC0
0300
0300
0300
ENDCHAR
STARTCHAR percent
ENCODING 37
SWIDTH 732 0
DWIDTH 23 0
BBX 19 22 2 0
BITMAP
3C0000
7F0000
E30200
C38700
C18E00
C38C00
C39800
E33800
7F3000
3C6000
006000
00C000
01C780
019FC0
0318E0
073860
063060
0C3060
1C3860
0818E0
001FC0
000780
ENDCHAR
STARTCHAR ampersand
ENCODING 38
SWIDTH 621 0
DWIDTH 19 0
BBX 17 22 2 0
BITMAP
0F8000
1FE000
38F000
307000
707000
707000
387000
38E000
1FC000
1F8000
1F0000
3F0000
7B8700
E1C700
E0E700
C0F600
C07E00
E03C00
E03C00
707E00
3FF700
1FC780
ENDCHAR
STARTCHAR quotesingle
ENCODING 39
SWIDTH 174 0
DWIDTH 5 0
BBX 2 7 2 16
BITMAP
C0
C0
C0
C0
C0
C0
C0
ENDCHAR
STARTCHAR parenleft
ENCODING 40
SWIDTH 341 0
DWIDTH 11 0
BBX 8 32 2 -7
BITMAP
01
07
06
0C
1C
38
38
30
70
70
60
E0
E0
E0
E0
E0
E0
E0
E0
E0
E0
60
70
70
30
38
38
1C
0C
06
07
01
ENDCHAR
STARTCHAR parenright
ENCODING 41
SWIDTH 347 0
DWIDTH 11 0
BBX 8 32 1 -7
BITMAP
80
C0
E0
70
38
38
1C
1C
0C
0E
0E
0E
06
06
07
07
07
07
06
06
0E
0E
0E
0C
1C
1C
18
38
70
E0
C0
80
ENDCHAR
STARTCHAR asterisk
ENCODING 42
SWIDTH 430 0
DWIDTH 13 0
BBX 13 13 0 9
BITMAP
0300
0300
0300
0300
6330
7FF8
BFF0
0700
0F80
1DC0
18C0
38E0
1040
ENDCHAR
STARTCHAR plus
ENCODING 43
SWIDTH 566 0
DWIDTH 18 0
BBX 15 15 1 3
BITMAP
0380
0380
0380
0380
0380
0380
FFFE
FFFE
0380
0380
0380
0380
0380
0380
0380
ENDCHAR
STARTCHAR comma
ENCODING 44
SWIDTH 196 0
DWIDTH 6 0
BBX 5 8 0 -5
BITMAP
38
38
38
38
30
70
60
E0
ENDCHAR
STARTCHAR hyphen
ENCODING 45
SWIDTH 275 0
DWIDTH 9 0
BBX 7 2 1 9
BITMAP
FE
FE
ENDCHAR
STARTCHAR period
ENCODING 46
SWIDTH 263 0
DWIDTH 8 0
BBX 4 3 2 0
BITMAP
60
F0
60
ENDCHAR
STARTCHAR slash
ENCODING 47
SWIDTH 412 0
DWIDTH 13 0
BBX 12 24 0 -2
BITMAP
0070
0060
00E0
00E0
00C0
01C0
0180
0180
0380
0300
0700
0600
0600
0E00
0C00
0C00
1C00
1800
3800
3000
3000
7000
6000
E000
ENDCHAR
STARTCHAR zero
ENCODING 48
SWIDTH 561 0
DWIDTH 17 0
BBX 14 22 2 0
BITMAP
0FC0
3FE0
7870
7038
E038
E018
E018
E01C
E01C
E01C
E01C
E01C
E01C
E01C
E01C
E018
E018
E038
7038
7870
3FE0
0FC0
ENDCHAR
STARTCHAR one
ENCODING 49
SWIDTH 561 0
DWIDTH 17 0
BBX 8 22 3 0
BITMAP
03
0F
7F
F7
87
07
07
07
07
07
07
07
07
07
07
07
07
07
07
07
07
07
ENDCHAR
STARTCHAR two
ENCODING 50
SWIDTH 561 0
DWIDTH 17 0
BBX 15 22 1 0
BITMAP
07E0
1FF0
3838
701C
701C
E01C
E01C
001C
001C
0038
0038
0070
00E0
01C0
0380
0700
0E00
1E00
3C00
3800
7FFE
7FFE
ENDCHAR
STARTCHAR three
ENCODING 51
SWIDTH 561 0
DWIDTH 17 0
BBX 14 22 1 0
BITMAP
07C0
1FF0
3838
701C
701C
601C
001C
001C
0038
0078
07E0
07F0
0078
001C
001C
000C
E00C
601C
701C
3838
1FF0
0FE0
ENDCHAR
STARTCHAR four
ENCODING 52
SWIDTH 561 0
DWIDTH 17 0
BBX 16 22 1 0
BITMAP
0078
0078
00F8
01F8
01B8
03B8
0338
0738
0E38
0C38
1C38
3838
3838
7038
E038
FFFF
FFFF
0038
0038
0038
0038
0038
ENDCHAR
STARTCHAR five
ENCODING 53
SWIDTH 561 0
DWIDTH 17 0
BBX 14 22 2 0
BITMAP
3FFC
3FFC
3800
3000
3000
3000
3000
7000
77C0
7FF0
7878
3038
001C
001C
001C
001C
E01C
601C
703C
3878
1FF0
0FC0
ENDCHAR
STARTCHAR six
ENCODING 54
SWIDTH 561 0
DWIDTH 17 0
BBX 14 22 2 0
BITMAP
01E0
07E0
1E00
3C00
3000
7000
6000
67C0
FFF0
F878
F038
E01C
E01C
E01C
E01C
E01C
E01C
7018
7038
3870
1FF0
07C0
ENDCHAR
STARTCHAR seven
ENCODING 55
SWIDTH 561 0
DWIDTH 17 0
BBX 15 22 1 0
BITMAP
FFFE
FFFE
000E
001C
001C
0038
0038
0030
0070
0060
00E0
00E0
01C0
01C0
0380
0380
0700
0700
0600
0E00
0E00
1C00
ENDCHAR
STARTCHAR eight
ENCODING 56
SWIDTH 561 0
DWIDTH 17 0
BBX 14 22 2 0
BITMAP
0FC0
3FE0
7870
7038
E038
E038
E038
E038
7038
7870
1FE0
3FE0
7870
E038
E018
E01C
E01C
E01C
E038
7078
3FF0
1FC0
ENDCHAR
STARTCHAR nine
ENCODING 57
SWIDTH 561 0
DWIDTH 17 0
BBX 13 22 2 0
BITMAP
0F80
3FE0
78F0
E070
E038
C038
C038
C018
C018
C018
E038
E078
70F8
3FF8
1F38
0038
0030
0070
00E0
03C0
1F80
1E00
ENDCHAR
STARTCHAR colon
ENCODING 58
SWIDTH 242 0
DWIDTH 8 0
BBX 4 17 2 0
BITMAP
E0
F0
E0
00
00
00
00
00
00
00
00
00
00
00
E0
E0
F0
ENDCHAR
STARTCHAR semicolon
ENCODING 59
SWIDTH 211 0
DWIDTH 7 0
BBX 4 22 1 -5
BITMAP
70
70
70
00
00
00
00
00
00
00
00
00
00
00
70
70
70
70
60
E0
E0
C0
ENDCHAR
STARTCHAR less
ENCODING 60
SWIDTH 508 0
DWIDTH 16 0
BBX 12 14 1 3
BITMAP
0010
0070
01F0
07E0
1F80
7E00
F000
F000
7E00
1F80
07E0
01F0
0070
0010
ENDCHAR
STARTCHAR equal
ENCODING 61
SWIDTH 548 0
DWIDTH 17 0
BBX 13 8 2 6
BITMAP
FFF8
FFF8
0000
0000
0000
0000
FFF8
FFF8
ENDCHAR
STARTCHAR greater
ENCODING 62
SWIDTH 522 0
DWIDTH 16 0
BBX 13 14 2 3
BITMAP
8000
E000
FC00
7F00
0FC0
03F0
0078
0078
03F0
0FC0
7F00
FC00
E000
8000
ENDCHAR
STARTCHAR question
ENCODING 63
SWIDTH 472 0
DWIDTH 15 0
BBX 12 22 1 0
BITMAP
0F80
3FE0
70F0
E070
E070
0030
0070
0070
0070
00E0
01C0
0380
0700
0700
0E00
0E00
0000
0000
0000
0600
0F00
0600
ENDCHAR
STARTCHAR at
ENCODING 64
SWIDTH 897 0
DWIDTH 28 0
BBX 24 29 2 -7
BITMAP
007F00
01FFE0
0780F0
0E0038
1C000C
18000E
300006
701E06
607F83
60E183
E0C183
C1C183
C18183
C18183
C38383
C38383
C38383
C38303
C38386
C1C786
E1FDFC
60F0F8
600000
300000
380000
1C0000
0F0180
07FF80
00FE00
ENDCHAR
STARTCHAR A
ENCODING 65
SWIDTH 652 0
DWIDTH 20 0
BBX 20 22 0 0
BITMAP
006000
00F000
00F000
01F800
01F800
019800
039C00
039C00
070E00
070E00
070E00
0E0700
0E0700
0C0300
1FFF80
1FFF80
3801C0
3801C0
3801C0
7000E0
7000E0
F00070
ENDCHAR
STARTCHAR B
ENCODING 66
SWIDTH 622 0
DWIDTH 19 0
BBX 15 22 3 0
BITMAP
FFC0
FFF0
C078
C01C
C01C
C01C
C01C
C03C
C078
FFE0
FFF0
C038
C01C
C01C
C00C
C00E
C00C
C01C
C01C
C078
FFF0
FFE0
ENDCHAR
STARTCHAR C
ENCODING 67
SWIDTH 650 0
DWIDTH 20 0
BBX 17 22 2 0
BITMAP
03F000
0FFC00
3C1E00
380F00
700700
600700
E00380
E00000
E00000
E00000
E00000
E00000
E00000
E00000
E00000
E00380
E00700
700700
380F00
3C1E00
1FFC00
07F000
ENDCHAR
STARTCHAR D
ENCODING 68
SWIDTH 655 0
DWIDTH 20 0
BBX 16 22 3 0
BITMAP
FF80
FFE0
C0F8
C038
C01C
C00E
C00E
C00E
C006
C006
C007
C007
C006
C00E
C00E
C00E
C00E
C01C
C038
C0F8
FFE0
FF80
ENDCHAR
STARTCHAR E
ENCODING 69
SWIDTH 568 0
DWIDTH 18 0
BBX 14 22 3 0
BITMAP
FFF8
FFF8
C000
C000
C000
C000
C000
C000
C000
FFF0
FFF0
C000
C000
C000
C000
C000
C000
C000
C000
C000
FFFC
FFFC
ENDCHAR
STARTCHAR F
ENCODING 70
SWIDTH 552 0
DWIDTH 17 0
BBX 13 22 3 0
BITMAP
FFF8
FFF8
C000
C000
C000
C000
C000
C000
C000
C000
FFF0
FFF0
C000
C000
C000
C000
C000
C000
C000
C000
C000
C000
ENDCHAR
STARTCHAR G
ENCODING 71
SWIDTH 681 0
DWIDTH 21 0
BBX 17 22 2 0
BITMAP
07F000
1FFC00
3C1E00
380F00
700700
600380
E00380
E00000
E00000
E00000
E00000
E07F80
E07F80
E00380
E00380
E00380
700380
700380
380380
1E0F00
0FFE00
03F800
ENDCHAR
STARTCHAR H
ENCODING 72
SWIDTH 712 0
DWIDTH 22 0
BBX 17 22 3 0
BITMAP
C00380
C00380
C00380
C00380
C00380
C00380
C00380
C00380
C00380
FFFF80
FFFF80
C00380
C00380
C00380
C00380
C00380
C00380
C00380
C00380
C00380
C00380
C00380
ENDCHAR
STARTCHAR I
ENCODING 73
SWIDTH 271 0
DWIDTH 8 0
BBX 3 22 3 0
BITMAP
E0
E0
E0
E0
E0
E0
E0
E0
E0
E0
E0
E0
E0
E0
E0
E0
E0
E0
E0
E0
E0
E0
ENDCHAR
STARTCHAR J
ENCODING 74
SWIDTH 551 0
DWIDTH 17 0
BBX 14 22 1 0
BITMAP
001C
001C
001C
001C
001C
001C
001C
001C
001C
001C
001C
001C
001C
001C
001C
001C
E01C
E038
E038
7870
3FF0
1FC0
ENDCHAR
STARTCHAR K
ENCODING 75
SWIDTH 626 0
DWIDTH 19 0
BBX 16 22 3 0
BITMAP
C00F
C01C
C03C
C078
C0F0
C1E0
C3C0
C780
C700
CE00
DF00
FF00
F380
F3C0
E1E0
C0E0
C070
C038
C03C
C01E
C00E
C007
ENDCHAR
STARTCHAR L
ENCODING 76
SWIDTH 538 0
DWIDTH 17 0
BBX 13 22 3 0
BITMAP
C000
C000
C000
C000
C000
C000
C000
C000
C000
C000
C000
C000
C000
C000
C000
C000
C000
C000
C000
C000
FFF8
FFF8
ENDCHAR
STARTCHAR M
ENCODING 77
SWIDTH 873 0
DWIDTH 27 0
BBX 21 22 3 0
BITMAP
F00038
F00078
F00078
F800F8
F800F8
DC00D8
DC01D8
DC01D8
CE0398
CE0398
C70718
C70718
C30718
C38E18
C38E18
C1DC18
C1DC18
C0D818
C0F818
C0F818
C07018
C07018
ENDCHAR
STARTCHAR N
ENCODING 78
SWIDTH 712 0
DWIDTH 22 0
BBX 17 22 2 0
BITMAP
F00180
F00180
F80180
FC0180
FC0180
EE0180
EF0180
E70180
E38180
E3C180
E1C180
E0E180
E0F180
E07180
E03980
E03D80
E01D80
E00F80
E00F80
E00780
E00380
E00380
ENDCHAR
STARTCHAR O
ENCODING 79
SWIDTH 687 0
DWIDTH 21 0
BBX 18 22 2 0
BITMAP
03F000
0FFC00
3C1E00
380F00
700700
700380
E00380
E00380
E00180
E00180
E001C0
E001C0
E00180
E00180
E00380
E00380
700380
700700
380700
3C1E00
0FFC00
03F000
ENDCHAR
STARTCHAR P
ENCODING 80
SWIDTH 630 0
DWIDTH 20 0
BBX 16 22 3 0
BITMAP
FFE0
FFF8
E03C
E00E
E00E
E007
E007
E007
E00E
E00E
E03C
FFF8
FFE0
E000
E000
E000
E000
E000
E000
E000
E000
E000
ENDCHAR
STARTCHAR Q
ENCODING 81
SWIDTH 687 0
DWIDTH 21 0
BBX 18 25 1 -3
BITMAP
03F000
0FFC00
1E0F00
3C0700
380380
700380
7001C0
7001C0
6001C0
6001C0
E001C0
E001C0
6001C0
6001C0
7001C0
7001C0
700380
380380
3C0700
1E0F00
0FFC00
03FF00
000780
0003C0
000180
ENDCHAR
STARTCHAR R
ENCODING 82
SWIDTH 615 0
DWIDTH 19 0
BBX 17 22 2 0
BITMAP
FFE000
FFF800
E03C00
E00E00
E00E00
E00600
E00700
E00600
E00E00
E00E00
E03C00
FFF800
FFE000
E07000
E07000
E03800
E03C00
E01C00
E00E00
E00E00
E00700
E00780
ENDCHAR
STARTCHAR S
ENCODING 83
SWIDTH 593 0
DWIDTH 18 0
BBX 16 22 1 0
BITMAP
07E0
1FF8
3C1C
700E
7007
7007
7007
7000
7800
3E00
0FC0
03F0
007C
001E
0007
E007
E007
E007
700F
3C1E
1FFC
07F0
ENDCHAR
STARTCHAR T
ENCODING 84
SWIDTH 596 0
DWIDTH 19 0
BBX 17 22 1 0
BITMAP
FFFF80
FFFF80
01C000
01C000
01C000
01C000
01C000
01C000
01C000
01C000
01C000
01C000
01C000
01C000
01C000
01C000
01C000
01C000
01C000
01C000
01C000
01C000
ENDCHAR
STARTCHAR U
ENCODING 85
SWIDTH 648 0
DWIDTH 20 0
BBX 16 22 2 0
BITMAP
E007
E007
E007
E007
E007
E007
E007
E007
E007
E007
E007
E007
E007
E007
E007
E007
E007
E007
700E
3C1C
1FF8
07E0
ENDCHAR
STARTCHAR V
ENCODING 86
SWIDTH 636 0
DWIDTH 20 0
BBX 18 22 1 0
BITMAP
E001C0
E001C0
F003C0
700380
700380
380700
380700
380700
1C0E00
1C0E00
1C0E00
0E1C00
0E1C00
061800
073800
073800
033000
03F000
03F000
01E000
01E000
00C000
ENDCHAR
STARTCHAR W
ENCODING 87
SWIDTH 887 0
DWIDTH 28 0
BBX 26 22 1 0
BITMAP
E00C01C0
E01E0180
601E0380
701E0380
703E0380
703F0380
70370700
38330700
38738700
38738700
38618600
18E18E00
1CE1CE00
1CC1CE00
1CC0CC00
0DC0DC00
0FC0FC00
0F807C00
0F807800
07807800
07007800
07003800
ENDCHAR
STARTCHAR X
ENCODING 88
SWIDTH 626 0
DWIDTH 19 0
BBX 18 22 1 0
BITMAP
F00380
700780
380F00
3C0E00
1C1E00
0E1C00
0F3800
077800
07F000
03E000
01E000
01E000
03F000
07F000
077800
0E3800
1E1C00
1C1E00
3C0E00
780700
700780
F003C0
ENDCHAR
STARTCHAR Y
ENCODING 89
SWIDTH 600 0
DWIDTH 19 0
BBX 18 22 0 0
BITMAP
F001C0
7003C0
380380
380700
1C0700
1C0E00
0E0E00
0E1C00
071C00
073800
03B800
01F000
01E000
00E000
00E000
00E000
00E000
00E000
00E000
00E000
00E000
00E000
ENDCHAR
STARTCHAR Z
ENCODING 90
SWIDTH 598 0
DWIDTH 19 0
BBX 16 22 1 0
BITMAP
FFFF
FFFF
000E
001E
001C
0038
0078
0070
00E0
01E0
01C0
0380
0780
0700
0E00
1E00
1C00
3800
7800
7000
FFFF
FFFF
ENDCHAR
STARTCHAR bracketleft
ENCODING 91
SWIDTH 265 0
DWIDTH 8 0
BBX 6 30 2 -5
BITMAP
FC
FC
E0
E0
E0
E0
E0
E0
E0
E0
E0
E0
E0
E0
E0
E0
E0
E0
E0
E0
E0
E0
E0
E0
E0
E0
E0
E0
FC
FC
ENDCHAR
STARTCHAR backslash
ENCODING 92
SWIDTH 410 0
DWIDTH 13 0
BBX 11 24 1 -2
BITMAP
C000
E000
6000
7000
7000
3000
3800
3800
1C00
1C00
0C00
0E00
0E00
0600
0700
0300
0380
0380
0180
01C0
01C0
00E0
00E0
0060
ENDCHAR
STARTCHAR bracketright
ENCODING 93
SWIDTH 265 0
DWIDTH 8 0
BBX 6 30 0 -5
BITMAP
FC
FC
1C
1C
1C
1C
1C
1C
1C
1C
1C
1C
1C
1C
1C
1C
1C
1C
1C
1C
1C
1C
1C
1C
1C
1C
1C
1C
FC
FC
ENDCHAR
STARTCHAR asciicircum
ENCODING 94
SWIDTH 417 0
DWIDTH 13 0
BBX 11 11 1 11
BITMAP
0E00
0E00
1E00
1F00
1B00
3B80
3180
71C0
71C0
60C0
E0E0
ENDCHAR
STARTCHAR underscore
ENCODING 95
SWIDTH 451 0
DWIDTH 14 0
BBX 14 2 0 -2
BITMAP
FFFC
FFFC
ENDCHAR
STARTCHAR grave
ENCODING 96
SWIDTH 309 0
DWIDTH 10 0
BBX 6 4 1 19
BITMAP
F0
78
38
1C
ENDCHAR
STARTCHAR a
ENCODING 97
SWIDTH 543 0
DWIDTH 17 0
BBX 13 17 2 0
BITMAP
0F80
3FE0
70F0
E070
E038
0038
0038
0FF8
3FF8
7038
E038
E038
E038
E078
F0F8
7FB8
1F38
ENDCHAR
STARTCHAR b
ENCODING 98
SWIDTH 561 0
DWIDTH 17 0
BBX 14 23 2 0
BITMAP
E000
E000
E000
E000
E000
E000
E7C0
FFE0
F870
E038
E038
E01C
E01C
E01C
E01C
E01C
E01C
E01C
E038
E038
F870
FFE0
E7C0
ENDCHAR
STARTCHAR c
ENCODING 99
SWIDTH 523 0
DWIDTH 16 0
BBX 14 17 1 0
BITMAP
07C0
1FF0
3C78
7018
701C
601C
E000
E000
E000
E000
E000
6000
701C
701C
3878
1FF0
07C0
ENDCHAR
STARTCHAR d
ENCODING 100
SWIDTH 563 0
DWIDTH 17 0
BBX 14 23 1 0
BITMAP
001C
001C
001C
001C
001C
001C
0F9C
1FFC
387C
701C
701C
E01C
E01C
E01C
E01C
E01C
E01C
E01C
701C
701C
387C
1FFC
0F9C
ENDCHAR
STARTCHAR e
ENCODING 101
SWIDTH 529 0
DWIDTH 16 0
BBX 14 17 1 0
BITMAP
07C0
1FF0
3C78
7038
701C
601C
E01C
FFFC
FFFC
E000
E000
E000
7010
7818
3C3C
1FF0
07E0
ENDCHAR
STARTCHAR f
ENCODING 102
SWIDTH 347 0
DWIDTH 11 0
BBX 10 24 1 0
BITMAP
07C0
0FC0
1E00
1C00
1800
1800
1800
FF80
FF80
1800
1800
1800
1800
1800
1800
1800
1800
1800
1800
1800
1800
1800
1800
1800
ENDCHAR
STARTCHAR g
ENCODING 103
SWIDTH 561 0
DWIDTH 17 0
BBX 14 23 1 -6
BITMAP
0F8C
1FFC
387C
701C
701C
601C
E01C
E01C
E01C
E01C
E01C
601C
701C
701C
387C
1FFC
0F9C
001C
001C
2038
7878
3FF0
0FC0
ENDCHAR
STARTCHAR h
ENCODING 104
SWIDTH 550 0
DWIDTH 17 0
BBX 13 23 2 0
BITMAP
E000
E000
E000
E000
E000
E000
E7C0
EFF0
F870
F038
E038
E038
E038
E038
E038
E038
E038
E038
E038
E038
E038
E038
E038
ENDCHAR
STARTCHAR i
ENCODING 105
SWIDTH 242 0
DWIDTH 8 0
BBX 4 23 2 0
BITMAP
60
F0
60
00
00
00
60
60
60
60
60
60
60
60
60
60
60
60
60
60
60
60
60
ENDCHAR
STARTCHAR j
ENCODING 106
SWIDTH 238 0
DWIDTH 7 0
BBX 6 29 -1 -6
BITMAP
1C
1C
1C
00
00
00
1C
1C
1C
1C
1C
1C
1C
1C
1C
1C
1C
1C
1C
1C
1C
1C
1C
1C
1C
1C
38
F8
F0
ENDCHAR
STARTCHAR k
ENCODING 107
SWIDTH 506 0
DWIDTH 16 0
BBX 14 24 2 0
BITMAP
E000
E000
E000
E000
E000
E000
E000
E078
E0F0
E1E0
E3C0
E780
E700
EE00
FE00
FF00
F700
E380
E3C0
E1C0
E0E0
E070
E078
E03C
ENDCHAR
STARTCHAR l
ENCODING 108
SWIDTH 242 0
DWIDTH 8 0
BBX 3 24 2 0
BITMAP
E0
E0
E0
E0
E0
E0
E0
E0
E0
E0
E0
E0
E0
E0
E0
E0
E0
E0
E0
E0
E0
E0
E0
E0
ENDCHAR
STARTCHAR m
ENCODING 109
SWIDTH 876 0
DWIDTH 27 0
BBX 23 17 2 0
BITMAP
E7C1F0
FFF7FC
F87E1C
E03C0E
E0380E
E0380E
E0380E
E0380E
E0380E
E0380E
E0380E
E0380E
E0380E
E0380E
E0380E
E0380E
E0380E
ENDCHAR
STARTCHAR n
ENCODING 110
SWIDTH 551 0
DWIDTH 17 0
BBX 13 17 2 0
BITMAP
E7C0
EFF0
F870
F038
E038
E038
E038
E038
E038
E038
E038
E038
E038
E038
E038
E038
E038
ENDCHAR
STARTCHAR o
ENCODING 111
SWIDTH 570 0
DWIDTH 18 0
BBX 14 17 2 0
BITMAP
0FC0
3FF0
7878
7038
E01C
E01C
E01C
C00C
C00C
C00C
C01C
E01C
E01C
7038
7878
3FF0
0FC0
ENDCHAR
STARTCHAR p
ENCODING 112
SWIDTH 561 0
DWIDTH 17 0
BBX 14 23 2 -6
BITMAP
E7C0
FFE0
F8F0
E038
E038
E018
E01C
E01C
E01C
E01C
E01C
E018
E038
E038
F8F0
FFE0
E7C0
E000
E000
E000
E000
E000
E000
ENDCHAR
STARTCHAR q
ENCODING 113
SWIDTH 568 0
DWIDTH 18 0
BBX 13 23 2 -6
BITMAP
0F98
3FD8
7878
7038
E018
E018
E018
C018
C018
C018
E018
E018
E018
7038
7878
3FD8
0F98
0018
0018
0018
0018
0018
0018
ENDCHAR
STARTCHAR r
ENCODING 114
SWIDTH 338 0
DWIDTH 10 0
BBX 8 17 2 0
BITMAP
EF
FF
F0
E0
E0
E0
E0
E0
E0
E0
E0
E0
E0
E0
E0
E0
E0
ENDCHAR
STARTCHAR s
ENCODING 115
SWIDTH 515 0
DWIDTH 16 0
BBX 13 17 1 0
BITMAP
0FC0
1FF0
3878
7038
7038
7000
7800
3F00
0FE0
01F0
0038
0038
E018
7038
7878
3FF0
0FC0
ENDCHAR
STARTCHAR t
ENCODING 116
SWIDTH 326 0
DWIDTH 10 0
BBX 9 21 0 0
BITMAP
1C00
1C00
1C00
1C00
FF80
FF80
1C00
1C00
1C00
1C00
1C00
1C00
1C00
1C00
1C00
1C00
1C00
1C00
1C00
0F80
0780
ENDCHAR
STARTCHAR u
ENCODING 117
SWIDTH 551 0
DWIDTH 17 0
BBX 13 17 2 0
BITMAP
E038
E038
E038
E038
E038
E038
E038
E038
E038
E038
E038
E038
E038
E078
70F8
7FF8
1F38
ENDCHAR
STARTCHAR v
ENCODING 118
SWIDTH 484 0
DWIDTH 15 0
BBX 14 17 0 0
BITMAP
F01C
701C
701C
3038
3838
3838
1830
1C70
1C70
0C60
0EE0
06C0
06C0
07C0
0380
0380
0380
ENDCHAR
STARTCHAR w
ENCODING 119
SWIDTH 751 0
DWIDTH 23 0
BBX 21 17 1 0
BITMAP
C07038
E07038
E07038
E0F830
60D830
70D870
71DC70
319C60
318C60
3B8CE0
3B0EC0
1B06C0
1B06C0
1F07C0
0E0380
0E0380
0E0380
ENDCHAR
STARTCHAR x
ENCODING 120
SWIDTH 495 0
DWIDTH 15 0
BBX 14 17 1 0
BITMAP
E03C
7078
7070
38E0
1CE0
1DC0
0F80
0780
0700
0F80
0FC0
1DC0
1CE0
38E0
7070
7038
E03C
ENDCHAR
STARTCHAR y
ENCODING 121
SWIDTH 473 0
DWIDTH 15 0
BBX 14 23 0 -6
BITMAP
F01C
701C
701C
3838
3838
3838
1C70
1C70
0C70
0EE0
0EE0
06C0
07C0
07C0
0380
0380
0380
0300
0300
0700
0E00
7C00
7800
ENDCHAR
STARTCHAR z
ENCODING 122
SWIDTH 495 0
DWIDTH 15 0
BBX 13 17 1 0
BITMAP
FFF8
FFF8
0070
00F0
00E0
01C0
03C0
0380
0700
0F00
0E00
1C00
3800
7800
7000
FFF8
FFF8
ENDCHAR
STARTCHAR braceleft
ENCODING 123
SWIDTH 338 0
DWIDTH 10 0
BBX 9 30 1 -6
BITMAP
0180
0780
0F00
0E00
1C00
1C00
1C00
1C00
1C00
1C00
1C00
1C00
1800
3800
F000
F000
3800
1800
1C00
1C00
1C00
1C00
1C00
1C00
1C00
1C00
0E00
0F00
0780
0180
ENDCHAR
STARTCHAR bar
ENCODING 124
SWIDTH 243 0
DWIDTH 8 0
BBX 2 26 3 -4
BITMAP
C0
C0
C0
C0
C0
C0
C0
C0
C0
C0
C0
C0
C0
C0
C0
C0
C0
C0
C0
C0
C0
C0
C0
C0
C0
C0
ENDCHAR
STARTCHAR braceright
ENCODING 125
SWIDTH 338 0
DWIDTH 10 0
BBX 9 30 0 -6
BITMAP
C000
F000
7800
3800
1C00
1C00
1C00
1C00
1C00
1C00
1C00
1C00
0C00
0E00
0780
0780
0E00
0C00
1C00
1C00
1C00
1C00
1C00
1C00
1C00
1C00
3800
7800
F000
C000
ENDCHAR
STARTCHAR asciitilde
ENCODING 126
SWIDTH 680 0
DWIDTH 21 0
BBX 17 6 2 6
BITMAP
1E0180
7F0180
638380
E1E300
C07F00
003C00
ENDCHAR
STARTCHAR degree
ENCODING 176
SWIDTH 373 0
DWIDTH 12 0
BBX 8 8 2 14
BITMAP
3C
7E
E6
C3
C3
E6
7E
3C
ENDCHAR
ENDFONT
