STARTFONT 2.1
FONT -FontForge-Rubik Medium-Medium-R-Normal--31-300-75-75-P-180-ISO10646-1
SIZE 30 75 75
FONTBOUNDINGBOX 22 22 1 0
COMMENT "Generated by fontforge, http://fontforge.sourceforge.net"
COMMENT "Copyright 2015 The Rubik Project Authors (https://github.com/googlefonts/rubik)"
STARTPROPERTIES 35
FOUNDRY "FontForge"
FAMILY_NAME "Rubik Medium"
WEIGHT_NAME "Medium"
SLANT "R"
SETWIDTH_NAME "Normal"
ADD_STYLE_NAME ""
PIXEL_SIZE 31
POINT_SIZE 300
RESOLUTION_X 75
RESOLUTION_Y 75
SPACING "P"
AVERAGE_WIDTH 180
CHARSET_REGISTRY "ISO10646"
CHARSET_ENCODING "1"
FONTNAME_REGISTRY ""
CHARSET_COLLECTIONS "ISO10646-1"
FONT_NAME "Rubik-Medium"
FACE_NAME "Rubik Medium"
COPYRIGHT "Copyright 2015 The Rubik Project Authors (https://github.com/googlefonts/rubik)"
FONT_VERSION "2.300;gftools[0.9.30]"
FONT_ASCENT 25
FONT_DESCENT 6
UNDERLINE_POSITION -3
UNDERLINE_THICKNESS 2
RAW_ASCENT 800
RAW_DESCENT 200
RELATIVE_WEIGHT 50
RELATIVE_SETWIDTH 50
SUPERSCRIPT_X 0
SUPERSCRIPT_Y 10
SUPERSCRIPT_SIZE 18
SUBSCRIPT_X 0
SUBSCRIPT_Y 2
SUBSCRIPT_SIZE 18
AVG_UPPERCASE_WIDTH 230
ENDPROPERTIES
CHARS 14
STARTCHAR period
ENCODING 46
SWIDTH 268 0
DWIDTH 8 0
BBX 4 5 2 0
BITMAP
F0
F0
F0
F0
F0
ENDCHAR
STARTCHAR zero
ENCODING 48
SWIDTH 657 0
DWIDTH 20 0
BBX 17 22 2 0
BITMAP
07F000
1FF800
3FFE00
7FFE00
7C1F00
F81F00
F80F00
F00F00
F00F80
F00F80
F00F80
F00F80
F00F80
F00F80
F00F80
F00F00
F80F00
F81F00
7E7E00
3FFE00
3FFC00
0FF000
ENDCHAR
STARTCHAR one
ENCODING 49
SWIDTH 463 0
DWIDTH 14 0
BBX 11 22 1 0
BITMAP
01E0
03E0
0FE0
1FE0
3FE0
FDE0
F9E0
F1E0
61E0
01E0
01E0
01E0
01E0
01E0
01E0
01E0
01E0
01E0
01E0
01E0
01E0
01E0
ENDCHAR
STARTCHAR two
ENCODING 50
SWIDTH 619 0
DWIDTH 19 0
BBX 17 22 1 0
BITMAP
07F000
0FFC00
3FFE00
3FFF00
7C1F00
780F00
780F00
700F00
001F00
003F00
007E00
00FC00
01F800
03F000
07E000
0FC000
1F8000
3F0000
7FFF00
FFFF80
FFFF80
FFFF80
ENDCHAR
STARTCHAR three
ENCODING 51
SWIDTH 630 0
DWIDTH 20 0
BBX 17 22 1 0
BITMAP
7FFF00
7FFF00
7FFF00
7FFF00
003E00
007C00
00F800
01F000
03E000
07F000
07FE00
07FF00
001F00
000F80
000780
000780
F00780
F80F80
7E3F00
7FFF00
3FFE00
0FF800
ENDCHAR
STARTCHAR four
ENCODING 52
SWIDTH 652 0
DWIDTH 20 0
BBX 18 22 1 0
BITMAP
003C00
007E00
00FE00
01FE00
01FE00
03DE00
079E00
079E00
0F1E00
1E1E00
3E1E00
3C1E00
781E00
F01E00
FFFFC0
FFFFC0
FFFFC0
003E00
003E00
003E00
003E00
001E00
ENDCHAR
STARTCHAR five
ENCODING 53
SWIDTH 620 0
DWIDTH 19 0
BBX 17 22 1 0
BITMAP
1FFE00
3FFF00
3FFF00
3FFE00
3C0000
3C0000
3C0000
3C0000
3BF800
7FFC00
7FFE00
7E1F00
000F80
000F80
000780
700F80
F80F80
F80F80
7E3F00
7FFE00
3FFC00
0FF800
ENDCHAR
STARTCHAR six
ENCODING 54
SWIDTH 627 0
DWIDTH 19 0
BBX 17 22 1 0
BITMAP
007800
00F800
01F000
03E000
03E000
07C000
0F8000
0FF000
1FFC00
3FFE00
7FFF00
7C1F80
780F80
F80780
F80780
F80780
F80780
7C0F80
7F3F00
3FFF00
1FFE00
07F800
ENDCHAR
STARTCHAR seven
ENCODING 55
SWIDTH 543 0
DWIDTH 17 0
BBX 15 22 1 0
BITMAP
FFFE
FFFE
FFFE
FFFE
003E
003C
007C
0078
00F8
00F0
00F0
01F0
01E0
03E0
03C0
07C0
0780
0F80
0F80
0F00
1F00
1E00
ENDCHAR
STARTCHAR eight
ENCODING 56
SWIDTH 656 0
DWIDTH 20 0
BBX 17 22 2 0
BITMAP
07F000
1FFC00
3FFE00
7E3E00
F81F00
F80F00
F00F00
F80F00
7C3E00
3FFE00
1FFC00
7FFE00
FE3F00
F80F00
F00F80
F00F80
F00F80
F00F80
FC1F00
7FFF00
3FFC00
0FF800
ENDCHAR
STARTCHAR nine
ENCODING 57
SWIDTH 617 0
DWIDTH 19 0
BBX 17 22 1 0
BITMAP
07F000
1FFC00
3FFE00
7FFF00
7C1F00
F80F80
F00F80
F00F80
F80F80
F80F80
7C1F00
7FFF00
3FFE00
1FFC00
07FC00
00F800
01F000
01E000
03E000
07C000
0F8000
0F8000
ENDCHAR
STARTCHAR C
ENCODING 67
SWIDTH 684 0
DWIDTH 21 0
BBX 18 22 2 0
BITMAP
07F000
1FFE00
3FFF00
7FFF80
7C0F80
F807C0
F007C0
F003C0
F00000
F00000
F00000
F00000
F00000
F00000
F00380
F007C0
F807C0
F80F80
7E1F80
3FFF00
1FFE00
0FF800
ENDCHAR
STARTCHAR M
ENCODING 77
SWIDTH 811 0
DWIDTH 25 0
BBX 21 22 2 0
BITMAP
700070
F800F8
F800F8
FC01F8
FE01F8
FE03F8
FF03F8
FF07F8
FF8F78
FF8F78
FBDE78
FBDE78
F9FC78
F8FC78
F8F878
F87878
F87078
F80078
F80078
F80078
F80078
F80078
ENDCHAR
STARTCHAR degree
ENCODING 176
SWIDTH 399 0
DWIDTH 12 0
BBX 10 10 1 12
BITMAP
1E00
3F80
7BC0
E1C0
E0C0
E1C0
F1C0
7F80
3F00
0C00
ENDCHAR
ENDFONT
