STARTFONT 2.1
FONT -FontForge-Rubik Medium-Medium-R-Normal--21-200-75-75-P-123-ISO10646-1
SIZE 20 75 75
FONTBOUNDINGBOX 15 15 0 0
COMMENT "Generated by fontforge, http://fontforge.sourceforge.net"
COMMENT "Copyright 2015 The Rubik Project Authors (https://github.com/googlefonts/rubik)"
STARTPROPERTIES 35
FOUNDRY "FontForge"
FAMILY_NAME "Rubik Medium"
WEIGHT_NAME "Medium"
SLANT "R"
SETWIDTH_NAME "Normal"
ADD_STYLE_NAME ""
PIXEL_SIZE 21
POINT_SIZE 200
RESOLUTION_X 75
RESOLUTION_Y 75
SPACING "P"
AVERAGE_WIDTH 123
CHARSET_REGISTRY "ISO10646"
CHARSET_ENCODING "1"
FONTNAME_REGISTRY ""
CHARSET_COLLECTIONS "ISO10646-1"
FONT_NAME "Rubik-Medium"
FACE_NAME "Rubik Medium"
COPYRIGHT "Copyright 2015 The Rubik Project Authors (https://github.com/googlefonts/rubik)"
FONT_VERSION "2.300;gftools[0.9.30]"
FONT_ASCENT 17
FONT_DESCENT 4
UNDERLINE_POSITION -2
UNDERLINE_THICKNESS 2
RAW_ASCENT 800
RAW_DESCENT 200
RELATIVE_WEIGHT 50
RELATIVE_SETWIDTH 50
SUPERSCRIPT_X 0
SUPERSCRIPT_Y 7
SUPERSCRIPT_SIZE 12
SUBSCRIPT_X 0
SUBSCRIPT_Y 1
SUBSCRIPT_SIZE 12
AVG_UPPERCASE_WIDTH 155
ENDPROPERTIES
CHARS 14
STARTCHAR period
ENCODING 46
SWIDTH 268 0
DWIDTH 6 0
BBX 3 3 1 0
BITMAP
E0
E0
E0
ENDCHAR
STARTCHAR zero
ENCODING 48
SWIDTH 657 0
DWIDTH 14 0
BBX 12 15 1 0
BITMAP
1F00
3FC0
7FE0
70E0
E0E0
E070
E070
E070
E070
E070
E0E0
70E0
79E0
3FC0
1F80
ENDCHAR
STARTCHAR one
ENCODING 49
SWIDTH 463 0
DWIDTH 10 0
BBX 8 15 0 0
BITMAP
07
0F
1F
7F
F7
67
07
07
07
07
07
07
07
07
07
ENDCHAR
STARTCHAR two
ENCODING 50
SWIDTH 619 0
DWIDTH 13 0
BBX 11 15 1 0
BITMAP
1F00
3FC0
7BC0
F1E0
E0E0
01E0
01C0
03C0
0780
1E00
3C00
7800
FFC0
FFE0
FFE0
ENDCHAR
STARTCHAR three
ENCODING 51
SWIDTH 630 0
DWIDTH 13 0
BBX 11 15 1 0
BITMAP
7FC0
7FE0
7FC0
0380
0780
0F00
1E00
1FC0
01E0
00E0
00E0
E0E0
F1E0
7FC0
3F80
ENDCHAR
STARTCHAR four
ENCODING 52
SWIDTH 652 0
DWIDTH 14 0
BBX 12 15 1 0
BITMAP
03C0
07C0
07C0
0FC0
1DC0
19C0
39C0
71C0
E1C0
FFF0
FFF0
FFF0
01C0
01C0
01C0
ENDCHAR
STARTCHAR five
ENCODING 53
SWIDTH 620 0
DWIDTH 13 0
BBX 11 15 1 0
BITMAP
7FC0
7FC0
7FC0
7000
6000
6600
7F80
7FC0
60E0
00E0
00E0
E0E0
F1E0
7FC0
3F80
ENDCHAR
STARTCHAR six
ENCODING 54
SWIDTH 627 0
DWIDTH 13 0
BBX 11 15 1 0
BITMAP
0300
0700
0E00
1E00
1C00
3F00
7FC0
79E0
E0E0
E0E0
E0E0
E0E0
F1E0
7FC0
1F80
ENDCHAR
STARTCHAR seven
ENCODING 55
SWIDTH 543 0
DWIDTH 11 0
BBX 10 15 1 0
BITMAP
FFC0
FFC0
FFC0
0380
0380
0380
0700
0700
0E00
0E00
1C00
1C00
3800
3800
3800
ENDCHAR
STARTCHAR eight
ENCODING 56
SWIDTH 656 0
DWIDTH 14 0
BBX 12 15 1 0
BITMAP
1F00
3FC0
79E0
70E0
60E0
70E0
7FC0
3FC0
79E0
E0F0
E070
E070
F0E0
7FE0
3F80
ENDCHAR
STARTCHAR nine
ENCODING 57
SWIDTH 617 0
DWIDTH 13 0
BBX 11 15 1 0
BITMAP
1F00
7FC0
FFC0
E0E0
E0E0
E0E0
E0E0
F1C0
7FC0
3F80
0700
0700
0E00
1C00
3C00
ENDCHAR
STARTCHAR C
ENCODING 67
SWIDTH 684 0
DWIDTH 14 0
BBX 13 15 1 0
BITMAP
0F80
3FE0
7FF0
7070
E070
E008
E000
E000
E000
E000
E078
F070
78F0
3FE0
1FC0
ENDCHAR
STARTCHAR M
ENCODING 77
SWIDTH 811 0
DWIDTH 17 0
BBX 13 15 2 0
BITMAP
C018
E038
E038
F078
F078
F8F8
DDD8
CD98
CF98
C718
C718
C018
C018
C018
C018
ENDCHAR
STARTCHAR degree
ENCODING 176
SWIDTH 399 0
DWIDTH 8 0
BBX 7 7 1 8
BITMAP
38
FC
C4
C6
CC
7C
30
ENDCHAR
ENDFONT
